<?xml version="1.0" encoding="iso-8859-1"?>
<!-- Generator: Adobe Illustrator 16.0.0, SVG Export Plug-In . SVG Version: 6.00 Build 0)  -->
<!DOCTYPE svg PUBLIC "-//W3C//DTD SVG 1.1//EN" "http://www.w3.org/Graphics/SVG/1.1/DTD/svg11.dtd">
<svg version="1.1" id="Capa_1" xmlns="http://www.w3.org/2000/svg" xmlns:xlink="http://www.w3.org/1999/xlink" x="0px" y="0px"
	 width="571.988px" height="571.987px" viewBox="0 0 571.988 571.987" style="enable-background:new 0 0 571.988 571.987;"
	 xml:space="preserve">
<g>
	<g>
		<path d="M428.098,391.477c2.143,5.197,2.755,6.482,5.406,7.898c0.832,0.453,1.465,0.575,1.93,0.665
			c0.727,0.143,1.122,0.221,2.501,3.061c2.317,4.725,2.62,5.332,5.717,6.879c0.493,0.248,0.954,0.461,1.375,0.652
			c1.95,0.897,2.407,1.158,2.439,2.493c0.118,4.545,4.309,9.804,6.948,9.804c0.767,0,1.587-0.428,1.905-1.562
			c0.669,0.47,1.428,0.845,2.211,1.236c2.433,1.212,4.945,2.469,6.259,6.781c0.151,0.497,0.625,2.016,1.869,2.016
			c0.371,0,0.914-0.147,1.366-0.845c0.906-1.379,1.273-4.741,0.425-6.695c-3.309-7.691-8.49-13.419-11.407-14.317
			c-2.521-0.754-3.86-1.228-4.325-2.949c-0.767-2.795-1.999-6.148-4.7-7.295c-2.889-1.208-4.565-3.052-4.981-5.468
			c-0.335-1.986-2.853-4.757-5.773-7.964c-2.611-2.868-5.565-6.116-6.658-8.568c-5.357-15.116-10.065-32.848-14.619-50
			c-6.834-25.753-13.288-50.082-21.24-63.097c-0.253-0.408-0.457-1.093-0.661-1.754s-0.416-1.342-0.697-1.885
			c-0.38-0.727-0.987-1.359-1.816-1.885c-1.008-0.632-2.688-0.938-5.137-0.938c-12.011,0-43.292,8.197-58.376,21.596
			c-0.714,0.632-1.281,1.077-1.571,1.265c-0.184-0.061-0.547-0.216-1.248-0.58c-0.461-0.236-0.951-0.971-0.946-1.742
			c0.044-5.116-0.678-7.805-1.771-10.273c-0.021-0.045-0.036-0.086-0.053-0.119c0.086-0.004,0.159-0.008,0.159-0.008
			c5.268,0.457,8.29-1.31,9.865-2.771c1.163-1.081,2.224-1.905,2.909-2.26c20.824-10.792,58.136-72.689,62.538-88.671
			c0.221-0.795,0.967-1.632,1.673-1.869c3.636-1.204,9.299-3.868,15.635-9.739c0.236-0.212,0.465-0.73,0.437-1.044
			c-0.024-0.318-0.159-0.555-0.343-0.755c1.094-0.853,2.836-2.061,4.541-3.235c2.652-1.832,5.161-3.562,6.214-4.619
			c0.249-0.257,0.42-0.82,0.326-1.167c-0.167-0.624-0.73-0.889-1.346-1.085c2.28-2.195,4.732-4.316,6.748-6.059
			c3.953-3.415,4.451-3.884,4.312-4.737c-0.008-0.049-0.021-0.098-0.041-0.151c1.102-0.869,1.363-1.167,1.444-1.84
			c0.069-0.563,1.24-2.191,3.391-4.72c0.845-1.016,1.632-1.869,2.383-2.566c1.016-0.951,1.521-1.432,1.236-2.208
			c-0.065-0.175-0.204-0.338-0.376-0.465c0.033-0.151,0.106-0.359,0.27-0.592c2.032-2.848,6.802-3.504,10.286-3.986
			c2.799-0.388,4.487-0.621,4.79-1.958c0.265-1.155-0.878-2.097-2.154-2.946c-2.57-1.697-5.578-2.632-8.475-2.632
			c-4.994,0-9.07,2.624-11.24,7.209c-0.286-0.237-0.629-0.359-0.987-0.359c-1.017,0-1.877,0.906-2.885,3.027
			c-0.38,0.808-2.317,5.018-3.211,8.719c-0.106,0.445-0.184,0.539-0.392,0.792c-0.184,0.225-0.396,0.486-0.648,0.938
			c-0.172,0.31-0.376,0.694-0.601,1.126c-0.918,1.742-2.248,4.264-3.921,6.275c-0.347-0.795-0.754-1.648-1.652-1.648
			c-0.257,0-0.681,0.179-0.873,0.359c-1.407,1.347-2.823,3.456-4.328,5.688c-1.041,1.555-2.109,3.142-3.195,4.504
			c-0.049-0.159-0.122-0.306-0.24-0.437c-0.351-0.404-1.216-0.42-1.624-0.085c-1.526,1.248-3.243,2.794-5.015,4.386
			c-2.619,2.358-5.32,4.794-7.642,6.463c-0.86,0.616-2.46,1.424-3.415,1.905c-7.613,3.831-10.392,8.939-19.584,25.867
			c-2.513,4.631-5.521,10.159-9.241,16.806c-22.016,39.302-32.742,45.173-37.177,45.173c-0.506,0-0.991-0.077-1.444-0.229
			c-1.094-0.359-2.15-0.542-3.162-0.542c-3.685,0-6.018,2.326-7.891,4.194l-0.759,0.71c-0.028-0.008-0.146-0.094-0.232-0.363
			c-4.264-13.619-16.577-25.561-23.754-31.612c14.496-1.779,20.808-8.192,28.739-17.744c12.979-15.7,1.077-47.826-4.725-61.086
			l-0.285-0.547c0-0.085,0.049-0.477,0.722-1.742c0.551-1.028,0.828-2.077,0.828-3.109l0.005-2.26
			c0.004-0.967,0.354-2.562,0.767-3.484c1.759-3.925,3.443-7.85,5.104-11.722c6.813-15.875,13.247-30.869,22.786-41.126
			c0.449-0.481,0.976-1.351,1.607-2.652c0.535-1.106,1.126-2.93,1.396-4.06c2.652-11.257,10.588-49.527,1.396-69.287
			C349.754,0.759,346.719,0,345.116,0c-1.865,0-3.733,0.988-5.129,2.709c-1.823,2.244-2.587,5.394-1.991,8.217
			c6.279,30.359,8.441,51.061,6.438,61.518c-0.191,0.996-0.865,2.562-1.371,3.407c-1.098,1.82-2.685,4.354-4.026,6.108
			c-8.923,11.742-15.243,28.046-23.24,48.687c-0.24,0.608-1.093,1.15-1.905,1.204c-0.661,0.045-1.277,0.151-1.844,0.306
			c-0.779,0.221-1.448,0.086-1.755-0.367c-2.19-3.345-4.447-6.03-6.899-8.201c-0.632-0.559-1.126-1.706-1.081-2.501
			c0.143-2.387,0.058-4.153-0.257-5.247c-0.146-0.519-0.592-2.105-5.725-5.524c-0.999-0.665-1.872-0.6-2.378,0.021
			c-0.352,0.424-0.441,1.036-0.277,1.864c0.208,1.073,0.293,2.762-0.453,4.7c-0.2,0.502-1.049,0.885-1.796,0.767
			c-1.529-0.253-3.137-0.388-4.691-0.253c-0.408,0.037-1.069,0.037-1.473,0c-1.563-0.13-3.167,0.004-4.692,0.253
			c-0.726,0.11-1.599-0.257-1.787-0.763c-0.759-1.942-0.669-3.631-0.461-4.7c0.163-0.832,0.073-1.444-0.277-1.868
			c-0.51-0.616-1.383-0.682-2.379-0.017c-5.137,3.419-5.577,5.006-5.72,5.521c-0.318,1.102-0.408,2.868-0.261,5.251
			c0.049,0.804-0.445,1.95-1.077,2.505c-2.448,2.162-4.705,4.847-6.903,8.197c-0.302,0.461-0.975,0.596-1.759,0.371
			c-0.563-0.159-1.183-0.261-1.848-0.306c-0.804-0.053-1.656-0.596-1.893-1.199c-8.001-20.641-14.325-36.944-23.248-48.691
			c-1.338-1.75-2.929-4.288-4.023-6.107c-0.506-0.845-1.179-2.412-1.371-3.407c-2.003-10.457,0.159-31.155,6.438-61.515
			c0.596-2.823-0.167-5.973-1.991-8.221c-1.396-1.722-3.264-2.709-5.129-2.709c-1.603,0-4.639,0.759-7.001,5.851
			c-9.192,19.759-1.261,58.03,1.396,69.286c0.265,1.126,0.861,2.954,1.395,4.056c0.628,1.302,1.155,2.17,1.607,2.652
			c9.539,10.257,15.974,25.251,22.787,41.126c1.661,3.868,3.346,7.793,5.104,11.718c0.412,0.922,0.763,2.518,0.767,3.484
			l0.004,2.256c0,1.032,0.277,2.081,0.828,3.109c0.637,1.195,0.714,1.612,0.755,1.612c0,0,0.004,0,0.008-0.004l-0.412,0.857
			c-5.716,13.084-17.617,45.21-4.643,60.915c7.932,9.551,14.243,15.965,28.735,17.744c-7.172,6.055-19.486,17.997-23.75,31.616
			c-0.078,0.249-0.196,0.355-0.424,0.228l-0.575-0.567c-1.877-1.869-4.207-4.194-7.895-4.194c-1.012,0-2.073,0.184-3.166,0.547
			c-0.445,0.151-0.934,0.224-1.44,0.224c-4.435,0-15.162-5.867-37.177-45.173c-3.721-6.646-6.724-12.175-9.241-16.806
			c-9.192-16.928-11.971-22.036-19.584-25.867c-0.955-0.481-2.554-1.29-3.415-1.905c-2.321-1.673-5.022-4.109-7.642-6.463
			c-1.771-1.591-3.484-3.142-5.022-4.394c-0.408-0.327-1.269-0.306-1.616,0.094c-0.114,0.135-0.192,0.277-0.241,0.437
			c-1.089-1.367-2.154-2.954-3.195-4.504c-1.501-2.231-2.921-4.341-4.337-5.696c-0.188-0.175-0.604-0.351-0.861-0.351
			c-0.902,0-1.306,0.849-1.652,1.648c-1.673-2.012-3.003-4.533-3.921-6.275c-0.229-0.432-0.428-0.816-0.604-1.126
			c-0.253-0.453-0.461-0.714-0.645-0.938c-0.208-0.253-0.282-0.347-0.392-0.792c-0.894-3.701-2.832-7.911-3.215-8.723
			c-1.003-2.121-1.864-3.023-2.88-3.023c-0.359,0-0.702,0.123-0.987,0.359c-2.17-4.59-6.247-7.209-11.24-7.209
			c-2.897,0-5.904,0.935-8.474,2.632c-1.277,0.849-2.424,1.787-2.154,2.946c0.302,1.338,1.991,1.571,4.79,1.958
			c3.484,0.481,8.25,1.138,10.286,3.986c0.163,0.233,0.241,0.445,0.269,0.596c-0.171,0.126-0.31,0.29-0.375,0.465
			c-0.285,0.775,0.221,1.256,1.273,2.244c0.71,0.661,1.498,1.514,2.35,2.538c2.142,2.521,3.313,4.153,3.382,4.712
			c0.086,0.673,0.343,0.971,1.444,1.84c-0.02,0.049-0.033,0.098-0.041,0.151c-0.139,0.849,0.359,1.318,4.312,4.737
			c2.02,1.746,4.472,3.868,6.748,6.059c-0.616,0.196-1.179,0.461-1.346,1.085c-0.09,0.351,0.082,0.918,0.339,1.175
			c1.044,1.049,3.549,2.779,6.206,4.61c1.701,1.175,3.452,2.379,4.537,3.236c-0.171,0.188-0.314,0.428-0.338,0.759
			c-0.029,0.314,0.2,0.828,0.428,1.04c6.345,5.871,12.008,8.54,15.643,9.743c0.702,0.232,1.452,1.073,1.672,1.873
			c4.411,15.986,41.727,77.883,62.539,88.663c0.686,0.351,1.746,1.179,2.913,2.265c1.571,1.46,4.59,3.239,9.861,2.77l0.13-1h0.004
			l0.057,0.824c0,0,0.004,0.09-0.086,0.298c-1.093,2.468-1.812,5.161-1.771,10.273c0.004,0.771-0.486,1.505-0.947,1.742
			c-0.718,0.371-1.081,0.522-1.244,0.583c-0.282-0.188-0.857-0.632-1.575-1.273c-15.08-13.395-46.361-21.591-58.376-21.591
			c-2.448,0-4.129,0.306-5.141,0.942c-0.824,0.522-1.436,1.155-1.812,1.881c-0.281,0.542-0.494,1.224-0.697,1.885
			c-0.204,0.665-0.412,1.351-0.657,1.754c-7.956,13.016-14.41,37.345-21.244,63.098c-4.554,17.152-9.262,34.884-14.59,49.927
			c-1.118,2.521-4.076,5.773-6.687,8.638c-2.921,3.206-5.439,5.973-5.773,7.96c-0.416,2.419-2.093,4.259-4.986,5.471
			c-2.697,1.143-3.929,4.501-4.696,7.3c-0.461,1.718-1.799,2.19-4.333,2.949c-2.905,0.897-8.086,6.626-11.396,14.309
			c-0.853,1.959-0.481,5.32,0.424,6.699c0.453,0.698,0.996,0.845,1.367,0.845c1.245,0,1.714-1.518,1.873-2.02
			c1.31-4.309,3.827-5.561,6.254-6.776c0.775-0.388,1.522-0.76,2.211-1.245c0.314,1.139,1.134,1.571,1.905,1.571
			c2.64,0,6.83-5.26,6.948-9.809c0.033-1.33,0.49-1.591,2.44-2.488c0.42-0.192,0.881-0.404,1.375-0.653
			c3.101-1.546,3.398-2.154,5.716-6.883c1.379-2.836,1.779-2.913,2.501-3.056c0.461-0.09,1.097-0.213,1.926-0.661
			c2.656-1.42,3.268-2.705,5.41-7.903c1.188-2.88,0.747-4.521,0.453-5.605c-0.237-0.865-0.249-0.918,0.767-1.562
			c0.612-0.388,1.085-0.417,1.628-0.445c2.648-0.15,3.778-1.212,6.03-12.558c2.448-12.433,9.188-30.274,15.712-47.524
			c7.56-20.004,15.377-40.694,16.679-53.411c0.041-0.416,0.196-0.416,0.269-0.416c0.065,0,0.171,0.012,0.331,0.077
			c0.277,0.119,0.571,0.229,0.873,0.339c1.269,0.461,3.252,0.759,4.219,0.857c8.764,0.922,11.526,2.893,15.349,5.622
			c4.276,3.056,9.596,6.858,24.855,11.065c3.953,0.759,7.025,2.559,9.833,4.337c0.689,0.437,1.575,1.489,2.224,2.256l0.318,0.372
			c0.975,1.138,2.799,2.55,5.944,2.815c0.739,0.064,1.436,0.595,1.583,1.215c0.494,2.069,1.02,3.832,1.444,5.247
			c0.188,0.633-0.155,1.53-0.75,1.955c-2.081,1.497-3.99,3.296-5.108,4.806c-0.31,0.42-0.579,0.837-0.795,1.18
			c-0.094,0.15-0.175,0.285-0.249,0.387c-0.057,0.017-0.114,0.037-0.171,0.058c-28.499,11.114-53.97,36.006-54.06,47.838
			c0,0.931,0.029,1.738,0.11,2.399c0.061,0.469,0.192,1.02,0.327,1.595c0.175,0.738,0.375,1.571,0.359,2.13
			c-0.208,9.164,0.783,20.307,1.93,33.203c1.905,21.428,4.276,48.095,2.416,79.527c-0.045,0.804-0.665,2.036-1.351,2.692
			c-4.357,4.134-7.997,10.494-8.103,14.187c-0.065,2.754-1.607,5.051-4.578,6.83c-2.754,1.624-3.558,5.451-3.954,8.604
			c-0.253,2.003-1.726,2.787-4.316,3.994c-2.995,1.392-7.728,8.397-10.131,17.287c-0.587,2.163,0.245,5.517,1.347,6.961
			c0.437,0.571,0.934,0.86,1.469,0.86c0.958,0,1.575-0.812,1.824-2.415c0.767-4.941,3.452-6.798,5.814-8.43
			c0.832-0.579,1.636-1.134,2.321-1.799c0.514,1.334,1.498,1.506,1.958,1.506c0.902,0,1.856-0.567,2.848-1.682
			c2.007-2.264,3.823-6.426,3.395-9.991c-0.171-1.519,0.298-1.886,2.317-3.191c0.424-0.273,0.889-0.575,1.395-0.926
			c3.113-2.179,3.333-2.876,5.096-8.331c1.089-3.379,1.53-3.529,2.326-3.812c0.481-0.171,1.138-0.399,1.958-1.008
			c2.668-1.986,3.129-3.468,4.639-9.416c0.555-2.191,0.612-3.771,0.653-4.921c0.078-2.007,0.094-2.546,2.599-3.929
			c1.024-0.567,1.644-0.661,2.02-0.714c0.331-0.049,0.832-0.122,1.134-0.612c0.318-0.522,0.159-0.995-0.106-1.774
			c-0.404-1.188-1.346-3.966-2.382-10.437c-1.877-11.624-1.42-28.446-0.935-46.251c0.645-23.742,1.314-48.291-3.961-60.466
			c-0.318-0.738-0.216-1.844,0.224-2.37c6.055-7.238,13.635-10.951,21.661-14.876c8.687-4.251,18.536-9.074,28.062-19.2
			c0.53-0.575,0.971-1.131,1.338-1.661c0.481-0.701,1.534-1.383,2.342-1.521c0.494-0.086,1.003-0.196,1.514-0.343
			c0.135-0.041,0.269-0.062,0.404-0.062c0.257,0,0.718,0.078,0.894,0.592c2.75,8.074,5.076,13.477,6.912,16.055
			c0.445,0.629,0.824,1.538,0.555,2.216c-0.75,1.872-1.876,5.059-2.995,9.608c-0.881,3.431-0.648,6.63,0.73,10.062
			c0.229,0.566,0.016,1.19-0.498,1.444c-25.786,12.811-40,34.022-42.244,63.052c-2.232,28.887,8.197,57.377,14.61,71.788
			c1.041,2.342,2.024,4.781,3.003,7.217c2.893,7.177,5.883,14.595,10.253,19.05c0.531,0.547,1.342,1.75,2.232,3.301
			c0.4,0.693,0.788,1.566,1.273,2.644c1.016,2.248,2.403,5.324,4.974,9.479c0.424,0.714,1.534,2.072,2.705,3.513
			c0.963,1.188,1.962,2.411,2.272,2.909c1.081,1.782,1.632,3.084,2.167,4.341c0.514,1.203,0.996,2.342,1.869,3.749
			c0.591,0.951,1.779,1.991,2.925,2.999c0.771,0.678,1.571,1.375,1.889,1.808c3.566,4.929,5.451,7.156,7.629,9.739
			c0.649,0.767,1.326,1.57,2.089,2.484c0.714,0.865,1.885,1.485,3.292,1.742c0.596,0.106,1.384,0.167,2.22,0.167
			s1.624-0.061,2.219-0.167c1.407-0.253,2.578-0.873,3.292-1.738c0.764-0.918,1.44-1.722,2.089-2.488
			c2.179-2.583,4.064-4.814,7.626-9.735c0.322-0.437,1.118-1.139,1.894-1.815c1.146-1.008,2.333-2.048,2.929-3.003
			c0.869-1.403,1.351-2.542,1.865-3.745c0.534-1.261,1.089-2.562,2.162-4.337c0.31-0.506,1.31-1.73,2.276-2.918
			c1.171-1.439,2.281-2.799,2.697-3.496c2.578-4.166,3.966-7.242,4.981-9.49c0.485-1.081,0.877-1.954,1.273-2.647
			c0.889-1.551,1.701-2.75,2.231-3.297c4.365-4.46,7.36-11.877,10.253-19.054c0.979-2.432,1.963-4.871,3.003-7.218
			c6.414-14.41,16.842-42.905,14.61-71.787c-2.248-29.029-16.459-50.241-42.244-63.053c-0.515-0.253-0.727-0.873-0.494-1.444
			c1.375-3.432,1.607-6.626,0.73-10.049c-1.122-4.562-2.252-7.748-2.999-9.616c-0.269-0.682,0.11-1.596,0.56-2.22
			c1.832-2.579,4.161-7.98,6.907-16.051c0.18-0.519,0.633-0.596,0.894-0.596c0.131,0,0.266,0.021,0.412,0.062
			c0.51,0.146,1.012,0.257,1.506,0.342c0.808,0.14,1.86,0.82,2.342,1.519c0.367,0.534,0.808,1.089,1.346,1.673
			c9.52,10.118,19.368,14.94,28.055,19.192c8.025,3.925,15.602,7.638,21.66,14.875c0.437,0.526,0.543,1.632,0.225,2.371
			c-5.275,12.175-4.606,36.724-3.962,60.465c0.486,17.81,0.943,34.627-0.934,46.255c-1.036,6.467-1.979,9.25-2.383,10.438
			c-0.266,0.779-0.425,1.252-0.106,1.774c0.302,0.494,0.804,0.567,1.135,0.612c0.375,0.053,0.995,0.146,2.02,0.714
			c2.501,1.383,2.521,1.922,2.599,3.929c0.041,1.15,0.098,2.729,0.653,4.925c1.509,5.948,1.966,7.426,4.643,9.412
			c0.816,0.604,1.473,0.837,1.954,1.008c0.796,0.277,1.24,0.433,2.326,3.811c1.762,5.451,1.982,6.153,5.1,8.332
			c0.502,0.347,0.967,0.648,1.392,0.922c2.02,1.306,2.488,1.673,2.317,3.187c-0.425,3.57,1.387,7.735,3.395,9.996
			c0.991,1.113,1.95,1.681,2.848,1.681c0.461,0,1.444-0.167,1.954-1.501c0.682,0.661,1.489,1.216,2.326,1.799
			c2.362,1.632,5.043,3.484,5.813,8.43c0.253,1.604,0.865,2.415,1.824,2.415c0.538,0,1.032-0.29,1.469-0.86
			c1.105-1.444,1.934-4.799,1.346-6.961c-2.406-8.891-7.136-15.896-10.13-17.287c-2.591-1.208-4.064-1.991-4.317-3.998
			c-0.396-3.149-1.199-6.977-3.949-8.597c-2.974-1.783-4.517-4.08-4.582-6.842c-0.105-3.685-3.745-10.045-8.103-14.179
			c-0.686-0.652-1.302-1.885-1.351-2.692c-1.86-31.433,0.51-58.1,2.416-79.527c1.142-12.901,2.134-24.039,1.93-33.207
			c-0.017-0.551,0.184-1.388,0.358-2.126c0.135-0.571,0.266-1.126,0.327-1.596c0.085-0.665,0.109-1.469,0.109-2.406
			c-0.09-11.824-25.561-36.717-54.084-47.843c-0.049-0.016-0.094-0.032-0.147-0.049c-0.073-0.102-0.15-0.236-0.248-0.388
			c-0.221-0.343-0.486-0.763-0.792-1.179c-1.118-1.51-3.031-3.309-5.116-4.807c-0.596-0.429-0.935-1.321-0.747-1.954
			c0.425-1.42,0.951-3.179,1.444-5.247c0.147-0.62,0.841-1.15,1.583-1.216c3.146-0.27,4.97-1.681,5.945-2.815l0.318-0.371
			c0.648-0.767,1.533-1.815,2.223-2.256c2.808-1.779,5.88-3.578,9.915-4.357c15.182-4.19,20.498-7.993,24.773-11.049
			c3.823-2.729,6.581-4.704,15.349-5.622c0.968-0.102,2.946-0.396,4.215-0.861c0.302-0.11,0.6-0.224,0.878-0.338
			c0.158-0.065,0.265-0.078,0.33-0.078c0.077,0,0.232,0,0.27,0.416c1.301,12.722,9.118,33.407,16.679,53.411
			c6.523,17.255,13.264,35.093,15.712,47.528c2.252,11.343,3.378,12.407,6.03,12.554c0.547,0.029,1.016,0.058,1.628,0.445
			c1.016,0.645,1.004,0.697,0.768,1.562C427.352,386.956,426.912,388.592,428.098,391.477z"/>
	</g>
</g>
<g>
</g>
<g>
</g>
<g>
</g>
<g>
</g>
<g>
</g>
<g>
</g>
<g>
</g>
<g>
</g>
<g>
</g>
<g>
</g>
<g>
</g>
<g>
</g>
<g>
</g>
<g>
</g>
<g>
</g>
</svg>
