<?xml version="1.0" encoding="iso-8859-1"?>
<!-- Generator: Adobe Illustrator 16.0.0, SVG Export Plug-In . SVG Version: 6.00 Build 0)  -->
<!DOCTYPE svg PUBLIC "-//W3C//DTD SVG 1.1//EN" "http://www.w3.org/Graphics/SVG/1.1/DTD/svg11.dtd">
<svg version="1.1" id="Capa_1" xmlns="http://www.w3.org/2000/svg" xmlns:xlink="http://www.w3.org/1999/xlink" x="0px" y="0px"
	 width="24px" height="24px" viewBox="0 0 24 24" style="enable-background:new 0 0 24 24;" xml:space="preserve">
<g>
	<path d="M24,9.5c0,1.9-1.6,3.5-3.5,3.5S17,11.4,17,9.5c0-0.6,0.3-1.8,1.3-2.5l0.9,2.4l-1-0.6c-0.7,2,0.899,3.4,2.3,3.4
		s2.2-1.2,2.2-2.7c0-2.208-2.483-3.962-2.681-7.64C19.715,1.688,19.5,1.375,19.5,1c0-0.552,0.447-1,1-1s1,0.448,1,1
		c0,0.272-0.109,0.518-0.286,0.698C21.354,5.389,24,7.163,24,9.5z M15.6,16.9c0,0.5,0.4,0.897,0.9,0.897s0.9-0.397,0.9-0.897
		S17,16,16.5,16S15.6,16.4,15.6,16.9z M20.9,17.7l-1.7,1.8l1.3,1.3C19,22.2,14.8,24,12.2,24c-0.864,0-1.782-0.197-2.699-0.507
		C8.262,23.953,6.473,24,6,24c0.279-0.35,0.509-1.088,0.691-1.775c-1.127-0.619-2.149-1.3-2.954-1.879
		C3.183,21.758,1.775,22.77,0,23c0.7-1.1,1.1-2.5,1.1-4S0.7,16.1,0,15c1.755,0.229,3.155,1.218,3.722,2.605
		c0.619-0.465,1.367-0.987,2.199-1.494C5.519,15.521,5,15,5,15l4-3c0,0,1.516,0.107,3.611,2.039
		C17.134,14.243,19.57,16.275,20.9,17.7z M18,17.5c0-0.8-0.7-1.5-1.5-1.5S15,16.7,15,17.5s0.7,1.5,1.5,1.5S18,18.3,18,17.5z"/>
</g>
<g>
</g>
<g>
</g>
<g>
</g>
<g>
</g>
<g>
</g>
<g>
</g>
<g>
</g>
<g>
</g>
<g>
</g>
<g>
</g>
<g>
</g>
<g>
</g>
<g>
</g>
<g>
</g>
<g>
</g>
</svg>
