<?xml version="1.0" encoding="iso-8859-1"?>
<!-- Generator: Adobe Illustrator 16.0.0, SVG Export Plug-In . SVG Version: 6.00 Build 0)  -->
<!DOCTYPE svg PUBLIC "-//W3C//DTD SVG 1.1//EN" "http://www.w3.org/Graphics/SVG/1.1/DTD/svg11.dtd">
<svg version="1.1" id="Capa_1" xmlns="http://www.w3.org/2000/svg" xmlns:xlink="http://www.w3.org/1999/xlink" x="0px" y="0px"
	 width="32.04px" height="32.039px" viewBox="0 0 32.04 32.039" style="enable-background:new 0 0 32.04 32.039;"
	 xml:space="preserve">
<g>
	<g>
		<path d="M31.842,15.057c-0.264-0.265-0.689-0.265-0.953,0c-0.228,0.229-0.246,0.573-0.079,0.834l-3.007,3.008
			c-0.089-0.061-0.187-0.105-0.279-0.157l0.904-3.373c0.309,0.014,0.6-0.177,0.682-0.485c0.1-0.36-0.114-0.729-0.476-0.825
			c-0.36-0.098-0.729,0.116-0.825,0.478c-0.083,0.311,0.073,0.618,0.351,0.762l-0.888,3.307c-0.371-0.164-0.778-0.263-1.207-0.287
			c-3.048-0.168-2.584,3.011-3.806,3.01c-0.285,0-1.716-0.646-1.716-0.646l-0.982,0.201c-3.417,0.497-6.636-1.889-6.76-1.98
			l-0.39-0.296c0,0-0.661,1.275-1.829,1.912c-0.865,0.47-1.861,0.567-2.545,0.567c-1.251,0-2.832-0.349-3.539-1.128
			c-0.111-0.123-0.199-0.256-0.301-0.383c-3.606,1.845-5.085,4.896-3.663,4.896c2.315,0,25.529,0,25.529,0
			c1.698,0,3.075-1.378,3.075-3.076c0-0.951-0.44-1.762-1.119-2.316l2.986-2.988c0.261,0.169,0.605,0.148,0.835-0.078
			C32.106,15.748,32.106,15.32,31.842,15.057z M25.71,20.926c-0.372,0-0.674-0.302-0.674-0.674s0.302-0.674,0.674-0.674
			s0.674,0.302,0.674,0.674S26.083,20.926,25.71,20.926z"/>
		<path d="M10.259,19.925c2.863-1.558,1.811-7.37-1.684-5.348c3.494-2.905,4.963,2.837,4.633,3.785c0,0,3.071,2.32,6.253,1.853
			c0-4.033-1.423-10.616-7.265-12.29C4.408,5.693,0.45,14.493,4.998,19.504C5.766,20.35,8.602,20.828,10.259,19.925z"/>
	</g>
</g>
<g>
</g>
<g>
</g>
<g>
</g>
<g>
</g>
<g>
</g>
<g>
</g>
<g>
</g>
<g>
</g>
<g>
</g>
<g>
</g>
<g>
</g>
<g>
</g>
<g>
</g>
<g>
</g>
<g>
</g>
</svg>
