<?xml version="1.0" encoding="iso-8859-1"?>
<!-- Generator: Adobe Illustrator 18.1.1, SVG Export Plug-In . SVG Version: 6.00 Build 0)  -->
<svg version="1.1" id="Capa_1" xmlns="http://www.w3.org/2000/svg" xmlns:xlink="http://www.w3.org/1999/xlink" x="0px" y="0px"
	 viewBox="0 0 237.295 237.295" style="enable-background:new 0 0 237.295 237.295;" xml:space="preserve">
<g>
	<path style="fill:#030104;" d="M218.037,61.397c-2.645-8.374-26.376-77.81-80.767-57.788c-8.926,4.664-15.91,20.092-12.801,30.121
		c3.158,10.176,20.719,10.82,26.906,3.992c3.564-3.934,8.352-21.766-1.99-19.945c-2.125,4.244,3.787,21.129-8.874,18.032
		c-9.341-2.283-7.497-16.625-2.597-21.738c6.027-6.29,15.879-8.438,24.699-6.341c7.688,1.825,73.479,39.925,39.783,106.546
		c-2.426,2.699-6.242,4.141-8.086,6.839c-1.352-0.644-2.728-1.237-4.1-1.838l-1.186-3.113l-2.567-17.989l-2.366-6.146
		c-0.828-1.364-1.562-2.692-2.212-3.988c2.708-1.58,1.25-2.109,0.274-4.686c-0.307-0.809,0.551-1.483-0.608-2.895
		c-0.874-1.062-2.422-1.338-3.032-2.434c-0.043-0.304-0.077-0.604-0.107-0.903c1.375-0.168,2.752-0.238,4.088-0.589
		c-1.832-1.811-4.504-2.69-6.549-4.305c1.433-0.068,2.893,0.115,4.279-0.287c-1.499-0.991-3.289-1.421-4.816-2.401
		c1.184-0.9,3.146-0.239,4.683-0.718c-2.157-0.921-6.196-1.979-8.622-3.084c0.62-0.324,1.672-0.531,2.538-0.505
		c-2.546-1.46-6.205-2.435-9.099-3.125c1.307,0.014,2.74,0.146,3.95-0.17c-2.181-1.352-5.082-1.382-7.569-1.879
		c0.715-0.464,1.36-0.869,2.186-1.097c-1.521-1.458-5.178-0.716-7.261-0.718c0.517-0.099,1.937-1.052,2.591-1.773
		c-1.605-0.059-3.141,0.553-4.773,0.5c0.607-0.819,1.248-1.688,1.699-2.567c-1.472-0.209-2.885,0.338-4.354,0.178
		c0.131-0.232,0.218-0.638,0.415-0.94c-1.404-0.036-2.779,0.604-4.24,0.429c0.131-0.328,0.066-0.894,0.178-1.225
		c-2.047,0.282-4.072,1.558-6.147,1.227c0.052-0.416-0.164-1.085-0.116-1.433c-1.079,0.463-2.001,1.003-2.771,1.371
		c-0.787-0.086-1.569-0.148-2.35-0.196c-0.244-0.433-0.42-1.108-0.521-2.142c-1.018,0.449-1.83,1.29-2.681,2.053
		c-0.802,0.005-1.601,0.031-2.396,0.078c-0.075-0.751-0.076-1.509-0.078-2.274c-1.537,0.536-2.584,2.479-4.324,2.289
		c-0.07-1.224-0.014-2.487-0.08-3.713c-1.441,0.938-2.7,3.283-3.557,4.895c-0.094,0.023-0.187,0.052-0.279,0.075
		c-0.302-1.682-0.564-3.401-1.027-5.041c-0.967,1.999-1.671,4.355-2.9,6.22c-0.135,0.047-0.271,0.089-0.406,0.138
		c-0.616-1.375-0.915-3.199-1.279-4.62c-0.557,2.098-1.381,4.083-2.263,6.034c-0.782,0.352-1.559,0.735-2.334,1.132
		c-0.411-1.435-0.81-2.874-1.223-4.312c-1.659,1.733-2.258,4.615-3.22,6.874c-0.126,0.08-0.252,0.16-0.378,0.241
		c-0.696-2.276-1.068-4.755-1.302-7.095c-1.432,2.673-1.513,6.339-2.862,9.227c-0.562-1.42-0.756-3.055-0.756-4.584
		c-0.994,2.396-1.54,5.121-2.174,7.784c-0.3,0.258-0.598,0.523-0.897,0.789c-0.983-1.259-1.551-2.747-2.365-4.117
		c-0.534,2.146-0.386,4.48-0.449,6.744c-0.144,0.141-0.288,0.273-0.432,0.416c-0.896-1.047-1.493-2.39-2.355-3.342
		c-0.013,2.044-0.096,4.376-0.62,6.355c-0.933-0.887-1.457-2.471-2.284-3.259c-0.695,1.787-0.208,4.265-0.291,6.281
		c-0.037,0.043-0.072,0.09-0.109,0.133c-0.782-1.219-1.536-2.542-2.249-3.83c-0.516,1.818-0.353,4.519-0.113,6.738
		c-0.16,0.204-0.317,0.422-0.476,0.628c-0.716-0.748-1.432-1.619-2.135-2.204c-0.084,1.521,0.033,3.104-0.099,4.621
		c-0.925-1.854-2.21-3.507-3.792-5.054c1.06,2.402,1.87,5.167,2.213,7.853c-1.001,1.444-1.999,2.92-2.985,4.462l-3.425,18.866
		c-5.565-3.579-5.621-8.01-0.135-13.33l-7.48,0.729L66.8,97.748l-5.844-0.6c-7.326-1.116-13.715-1.27-19.175-0.458
		c-6.103,2.258-12.042,2.612-17.824,1.077c8.493,17.185,6.052,31.25-7.309,42.192c7.261-0.828,8.06,1.23,2.363,6.146
		c9.502-2.468,11.203,0.171,5.094,7.931c6.977-2.793,12.819-2.195,17.544,1.793c5.784,0.783,11.183,0.834,16.195,0.154l1.185,3.033
		c1.389,3.568,2.022,7.113,1.917,10.598c3.451,4.105,5.969,8.303,7.528,12.581c3.509,13.356,3.249,25.64-0.776,36.851
		c-14.587,12.509-12.445,15.693,6.429,9.566c5.272-11.215,8.324-21.736,9.136-31.596l4.667-2.528
		c5.856,13.048,5.718,23.868-0.419,32.487l2.219,7.635c6.666,0.178,12.167-0.722,16.495-2.715
		c0.825-5.603,0.854-10.542,0.101-14.806l-0.431-10.351c-2.954-6.612-4.251-13.148-3.899-19.613
		c2.339-6.386,4.84-11.573,7.494-15.553c4.845-55.544,21.415-36.246,21.415-36.246c6.132,7.318,8.218,15.916,6.283,25.766
		c29.392,25.45,30.5,48.244,3.314,68.406l-0.443,4.354c15.712,1.486,25.295-5.416,28.74-20.681
		c4.988-10.93,6.631-2.882,4.931,24.124c19.724-2.164,21.167-21.236,4.349-57.204c1.23-12.011,3.822-21.278,9.549-32.205
		c4.213-8.035,6.6-16.87,14.366-22.342C223.694,104.485,222.417,75.26,218.037,61.397z M34.793,121.092
		c3.642,2.19,5.785,5.346,6.433,9.476C36.341,128.822,34.197,125.665,34.793,121.092z M51.973,127.251l6.591-6.719
		C61.379,127.756,59.188,129.994,51.973,127.251z"/>
</g>
<g>
</g>
<g>
</g>
<g>
</g>
<g>
</g>
<g>
</g>
<g>
</g>
<g>
</g>
<g>
</g>
<g>
</g>
<g>
</g>
<g>
</g>
<g>
</g>
<g>
</g>
<g>
</g>
<g>
</g>
</svg>
