<?xml version="1.0" encoding="iso-8859-1"?>
<!-- Generator: Adobe Illustrator 16.0.0, SVG Export Plug-In . SVG Version: 6.00 Build 0)  -->
<!DOCTYPE svg PUBLIC "-//W3C//DTD SVG 1.1//EN" "http://www.w3.org/Graphics/SVG/1.1/DTD/svg11.dtd">
<svg version="1.1" id="Capa_1" xmlns="http://www.w3.org/2000/svg" xmlns:xlink="http://www.w3.org/1999/xlink" x="0px" y="0px"
	 width="567.288px" height="567.289px" viewBox="0 0 567.288 567.289" style="enable-background:new 0 0 567.288 567.289;"
	 xml:space="preserve">
<g>
	<g>
		<path d="M8.785,363.167c1.004,3.656,1.799,7.393,2.313,11.146c0.853,6.25,2.868,12.035,6.132,17.404
			c1.003,1.652,2.24,3.188,3.027,4.93c0.392,0.865-0.012,2.08-0.029,3.137c-0.012,0.787,0.021,1.57,0.033,2.359
			c0.877-0.201,2.215-0.119,2.542-0.654c1.02-1.668,2.134-3.52,2.346-5.396c0.371-3.309,0.106-6.695,0.106-10.367
			c0.616-0.4,1.832-1.199,3.064-1.975c0.331-0.209,0.73-0.494,1.073-0.461c7.936,0.762,15.3,2.982,21.954,7.648
			c2.729,1.918,6.202,2.045,9.625,1.27c1.073-0.244,2.693,0.09,3.484,0.805c2.02,1.818,3.717,3.998,5.442,5.924
			c0.824-5.006-2.162-11.783-6.479-14.889c-4.088-2.941-8.474-5.104-13.194-6.92c-2.073-0.795-3.268-3.875-4.859-5.916
			c2.46-2.24,4.753-2.027,7.617-1.17c2.86,0.852,5.112,2.557,7.703,3.732c1.75,0.795,3.746,1.668,5.569,1.555
			c4.198-0.266,7.385,0.461,7.854,5.725c2.325-3.18,1.628-8.543-1.11-11.008c-2.489-2.24-4.908-4.375-8.339-5.512
			c-5.325-1.764-10.368-4.391-15.435-7.357c2.216,0.535,4.411,1.311,6.659,1.535c2.322,0.232,5.088,1.664,6.895-2.154
			c1.343,1.66,2.407,2.975,3.713,4.59c1.865,0.105,2.534-0.881,2.028-3.125c-0.91-4.031-3.248-5.998-7.279-5.908
			c-0.379,0.008-0.942,0.057-1.109-0.156c-2.134-2.721-5.247-1.871-8.021-2.324c-1.995-0.326-3.941-0.959-5.753-1.979
			c2.665,0.15,5.329,0.301,7.973,0.451c0.481-3.59-1.163-5.467-4.113-6.43c-4.729-1.541-17.381-6.16-20.633-10.604
			c2.975,0,5.667,0.082,8.352-0.029c1.881-0.076,3.745-0.514,5.622-0.6c1.195-0.053,2.416,0.18,3.607,0.393
			c1.44,0.252,2.844,0.816,4.288,0.902c4.517,0.271,9.07,0.734,13.558,0.402c1.955-0.143,3.66-2.5,5.692-3.01
			c2.64-0.666,3.794-2.477,4.704-4.514c1.734-3.871,3.309-7.82,4.729-11.814c0.747-2.098,1.645-2.404,3.138-0.861
			c2.113,2.178,4.145,4.436,6.234,6.643c1.934,2.039,3.566,4.748,5.944,5.875c2.199,1.041,4.427,2.002,5.814,3.818
			c3.064,4.016,7.699,5.422,11.718,7.871c1.685,1.027,3.109,2.484,4.782,3.537c3.68,2.312,7.348,4.688,11.2,6.684
			c4.981,2.578,9.992,5.238,15.263,7.07c5.459,1.896,11.265,2.791,16.887,4.242c2.22,0.576,4.427,1.322,6.508,2.277
			c2.688,1.236,5.124,3.113,7.891,4.059c2.591,0.887,5.504,0.764,8.213,1.367c2.689,0.596,5.292,1.57,7.948,2.318
			c1.828,0.514,3.746,0.758,5.516,1.41c4.68,1.723,9.311,3.57,13.938,5.428c1.64,0.656,3.166,1.998,4.818,2.129
			c3.999,0.322,6.593,3.076,9.747,4.863c2.077,1.18,4.207,2.273,6.214,3.562c1.404,0.902,2.636,2.068,3.884,3.072
			c-3.101,3.574-6.189,6.785-8.805,10.348c-0.959,1.305-0.987,3.43-1.085,5.201c-0.587,10.805,2.216,20.645,8.568,29.457
			c4.537,6.301,9.257,12.49,13.398,19.041c1.917,3.037,2.893,6.758,3.827,10.295c0.575,2.174-0.094,4.398-2.444,5.643
			c-3.938,2.084-4.961,8.959-3.542,12.652c0.343,0.889,1.457,1.484,2.077,2.08c2.089-3.488,3.888-6.486,5.684-9.49
			c0.432,0.115,0.861,0.232,1.293,0.348c-4.084,6.98-5.043,14.068-0.967,21.57c1.106-2.26,1.971-4.684,3.375-6.74
			c2.415-3.537,3.162-8.246,6.907-10.742c1.444-0.959,4.015-1.432,5.537-0.812c2.901,1.18,5.663,3.027,8.046,5.096
			c4.255,3.697,8.155,7.801,12.276,11.658c1.946,1.818,4.141,3.377,6.07,5.217c0.809,0.771,1.229,1.955,1.828,2.963
			c2.448-1.982,2.986-7.01,1.277-10.074c-0.522-0.93-0.539-2.146-1.065-3.072c-0.767-1.346-1.607-2.758-2.745-3.766
			c-2.212-1.949-4.317-3.867-4.925-7.928c3.329,1.58,6.238,2.705,8.874,4.289c2.158,1.297,3.537,3.436,6.842,1.848
			c2.428-1.162,7.736,2.447,9.213,5.107c0.42,0.764,1.293,1.277,1.958,1.902c0.294-0.881,0.865-1.775,0.833-2.645
			c-0.143-3.422-0.918-6.58-4.37-8.33c-0.6-0.307-1.326-0.824-1.518-1.404c-1.253-3.777-4.443-4.822-7.735-5.961
			c-1.734-0.6-3.28-1.771-4.876-2.746c-1.481-0.9-2.909-1.889-5.019-3.268c1.661-0.322,2.75-0.531,3.84-0.75
			c3.251-0.658,6.609-1.07,7.638-5.17c0.154-0.621,1.664-1.432,2.329-1.27c1.017,0.25,2.036,1.131,2.677,2.012
			c0.522,0.723,0.494,1.844,0.775,3.088c0.583-0.461,1.293-0.828,1.248-1.012c-0.502-2.076-0.575-4.609-1.856-6.055
			c-1.362-1.537-3.925-2.855-5.916-2.795c-3.146,0.094-6.218,1.625-9.392,2.146c-1.975,0.326-4.203,0.34-6.084-0.252
			c-3.402-1.074-6.629-2.709-9.934-4.102c-5.181-2.182-6.842-7.58-10.334-11.305c-0.196-0.209-0.322-0.514-0.404-0.801
			c-1.396-5.07-2.672-10.176-4.21-15.201c-0.955-3.121-2.31-6.121-3.603-9.49c0.465-0.303,1.134-1.027,1.914-1.188
			c3.419-0.693,6.859-1.521,10.318-1.689c1.685-0.082,3.497,1.045,5.141,1.857c3.362,1.66,6.543,3.744,10.016,5.115
			c1.697,0.674,3.953-0.203,5.813,0.229c2.787,0.648,5.394,2.037,8.173,2.738c4.814,1.221,9.697,2.17,14.557,3.199
			c0.959,0.203,2.293-0.119,2.868,0.424c2.506,2.371,5.537,2.053,8.523,2.061c4.321,0.008,8.646-0.105,12.967-0.057
			c2.904,0.031,5.81,0.406,8.706,0.312c1.229-0.035,2.396-1.08,3.656-1.312c4.015-0.746,8.062-1.33,12.101-1.975
			c0.694-0.111,1.474-0.021,2.077-0.314c5.1-2.48,8.887,0.529,12.99,2.811c3.093,1.723,6.504,2.869,9.76,4.309
			c1.583,0.697,3.513,0.535,4.713,2.35c0.281,0.426,2.61,0.055,3.509-0.611c1.647-1.221,2.839-0.791,3.908,0.453
			c1.555,1.814,2.868,3.836,4.427,5.643c0.543,0.633,1.506,0.906,2.272,1.342c-0.041-0.893,0.114-1.852-0.159-2.668
			c-0.795-2.375-1.758-4.699-2.774-7.34c0.184,0.049,0.367,0.09,0.551,0.139c1.673,0.629,3.162,1.162,4.586,1.758
			c1.09,0.457,2.024,0.393,2.917,0.037c27.471,6.072,55.668,7.189,57.884,5.418c3.398-2.721,55.079-6.801,70.041-8.16
			c14.961-1.357,17.679-9.947,17.679-9.947s-4.08,3.146-4.08,0c0-3.145-7.405-18.082-6.12-10.451
			c1.285,7.629-13.599,10.451-13.599,10.451v-5.311c0,0-12.24,6.418-11.559,5.145s-6.12-5.463-6.12-5.463
			c0.783,8.057-10.2,4.822-10.2,4.822v-4.822c0,0-8.841,3.336-11.559,4.639c-2.721,1.301-3.398-4.729-3.398-4.729l-11.559,4.729
			l-4.08-1.979c-3.651,4.406-15.858,0.592-24.762-3.016c5.296-0.943,10.588-1.918,15.921-2.586
			c10.562-1.326,21.195-2.105,31.791-3.184c7.278-0.738,14.533-1.893,21.828-2.301c8.829-0.498,17.377-2.457,26.014-4.023
			c5.603-1.016,10.298-3.598,14.627-7.09c4.603-3.713,4.933-12.02,0.575-15.93c-1.04-0.934-2.268-1.656-3.365-2.529
			c-1.689-1.346-3.146-3.189-5.047-4.014c-2.755-1.188-5.961-2.637-8.724-2.232c-8.14,1.184-15.259-1.391-22.525-4.287
			c-9.368-3.734-18.866-7.156-28.34-10.613c-1.579-0.574-3.37-1.004-5.019-0.881c-5.312,0.391-8.694-2.852-12.179-6.002
			c-0.444-0.4-1.008-0.828-1.167-1.354c-1.619-5.252-6.527-7.148-10.42-9.943c-1.473-1.057-4.166-1.438-5.908-0.887
			c-3.754,1.191-7.438,0.906-10.935,0c-8.388-2.17-16.789-1.443-25.165-0.596c-3.595,0.363-7.055,1.98-10.604,2.922
			c-5.61,1.494-11.188,3.223-16.888,4.248c-5.03,0.9-10.184,2.061-15.234-0.703c-2.085-1.141-4.484-0.863-5.978,1.686
			c-1.158,1.982-2.979,1.727-4.773,1c-2.529-1.027-5.002-2.094-7.821-0.816c-0.612,0.277-1.628,0.029-2.317-0.285
			c-2.521-1.15-4.814-1.6-6.341,1.701c-2.521-2.215-4.912-3.656-7.613-0.596c-0.31,0.352-1.819-0.023-2.554-0.449
			c-2.497-1.436-4.892-3.043-7.328-4.59c-0.591-0.375-1.419-0.623-1.722-1.162c-1.105-1.982-2.158-3.828-4.961-3.117
			c-0.253,0.064-0.89-0.527-1.008-0.918c-1.473-4.732-4.178-8.463-8.449-11.086c-0.637-0.391-0.857-1.514-1.2-2.326
			c-1.162-2.744-1.901-5.748-5.043-7.146c-0.526-0.232-0.954-1.066-1.105-1.697c-1.188-4.926-4.569-8.373-7.809-11.955
			c-1.249-1.383-2.064-3.166-3.362-4.488c-2.562-2.611-5.382-4.965-7.988-7.535c-1.931-1.906-3.722-3.954-5.521-5.986
			c-1.641-1.848-3.146-3.823-4.855-5.606c-0.465-0.485-1.705-0.91-2.134-0.641c-2.419,1.522-3.427-0.171-4.574-1.734
			c-1.934-2.631-3.753-5.365-5.879-7.833c-1.082-1.257-2.571-2.069-4.586-1.089c-0.694,0.338-2.252-0.445-3.064-1.13
			c-2.685-2.256-5.055-4.912-7.866-6.985c-1.289-0.951-3.337-0.836-5.014-1.306c-1.624-0.453-3.566-0.616-4.757-1.628
			c-5.088-4.325-10.657-6.805-17.495-6.471c-1.815,0.09-3.786-1.012-5.528-1.885c-3.203-1.608-6.263-3.489-9.425-5.178
			c-1.856-0.996-3.607-1.167-5.663,0.065c-0.93,0.559-2.86,0.02-4.068-0.571c-3.313-1.62-6.43-3.644-9.747-5.259
			c-1.081-0.526-2.644-0.669-3.794-0.331c-3.68,1.082-6.924,0.159-10.118-1.559c-1.591-0.853-3.158-1.958-4.868-2.33
			c-1.599-0.347-3.443-0.134-5.059,0.282c-3.138,0.812-6.1,1.648-9.205-0.314c-3.843-2.432-7.891-3.48-12.113-0.636
			c-0.567,0.383-1.408,0.359-2.375,0.583c0.184-1.555,0.314-2.689,0.485-4.141c-1.15,0.146-2.02,0.261-3.04,0.392
			c5.145-5.32,4.023-11.779,2.811-17.646c-1.42-6.867-9.192-7.899-13.709-12.036c3.309-2.313,6.394-4.508,9.535-6.618
			c0.51-0.343,1.665-0.102,1.86-0.478c0.649-1.249,1-2.652,1.506-4.125c0.306,0.379,0.759,0.947,1.416,1.763
			c0.947-1.465,1.803-2.787,2.742-4.243c0.261,0.216,0.82,0.677,1.636,1.354c0.257-0.897,0.437-1.534,0.641-2.252
			c0.522,0.461,0.918,0.812,1.538,1.363c0.355-1.073,0.632-1.901,0.91-2.734c0.278-0.179,0.555-0.359,0.833-0.539
			c0.232,0.918,0.461,1.84,0.693,2.758c0.379-0.225,0.763-0.445,1.143-0.669c0.102-0.754,0.2-1.514,0.237-1.783
			c1.35-0.559,2.427-1.122,3.57-1.46c8.352-2.485,16.071-7.055,25.316-6.655c4.051,0.175,8.172-1.432,12.277-2.134
			c2.362-0.404,4.782-0.506,7.132-0.963c1.685-0.326,3.272-1.142,4.953-1.501c0.877-0.188,1.876,0.273,2.803,0.208
			c8.764-0.62,17.516-1.416,26.288-1.901c4.606-0.253,8.886-1.211,13.305-2.676c4.068-1.346,8.792-0.792,13.231-0.894
			c2.138-0.049,4.386,1.114,5.7-0.069c2.514,0.294,4.545,0.771,6.561,0.718c7.013-0.188,14.018-0.539,21.024-0.894
			c0.645-0.033,1.248-0.588,1.901-0.796c1.795-0.559,3.61-1.526,5.409-1.509c7.598,0.078,14.864-1.567,22.139-3.484
			c11.518-3.04,23.134-5.716,34.618-8.858c3.856-1.057,7.446-3.076,11.163-4.651c2.102-0.894,4.198-1.795,6.308-2.665
			c4.354-1.787,8.507-3.594,11.841-7.344c3.06-3.439,7.634-5.541,10.652-9.009c3.974-4.558,7.136-9.833,10.498-14.896
			c0.608-0.914,0.371-2.354,0.742-3.476c0.213-0.637,1.032-1.669,1.314-1.591c2.595,0.734,2.179-1.318,2.521-2.599
			c0.918-3.443,1.729-6.916,2.705-10.343c0.285-1.008,0.971-1.901,1.615-3.109c-0.547-0.318-1.146-0.665-1.726-1.003
			c0.534-3.921,1.416-7.842,1.485-11.775c0.049-2.803-0.779-5.696-1.665-8.401c-0.285-0.873-2.008-1.273-3.076-1.893
			c-0.425,0.897-0.849,1.795-1.27,2.697c-0.669,1.432-1.272,2.893-2.015,4.284c-0.878,1.644-2.016,2.725-1.95,5.214
			c0.085,3.35-1.6,7.1-3.514,10.029c-1.538,2.35-4.916,3.423-6.805,5.639c-1.942,2.272-3.525,4.496-6.74,5.137
			c-0.751,0.151-1.146,2.101-1.791,3.403c-1.318-2.187-2.967-1.901-4.183-0.208c-1.95,2.705-4.627,3.023-7.486,2.668
			c-2.477-0.306-3.876,0.861-5.19,2.713c-0.551,0.779-1.611,1.464-2.55,1.656c-2.958,0.604-5.838,0.943-8.176,3.382
			c-1.816,1.893-4.06,3.603-7.038,1.102c-1.718-1.444-5.476,0.151-6.997,2.383c-0.972,1.42-2.139,2.705-3.448,4.337
			c-0.587-0.922-0.8-1.228-0.987-1.55c-2.37-4.068-2.354-4.035-6.642-2.272c-1.853,0.759-3.737,1.763-5.668,1.921
			c-2.015,0.167-4.165-0.342-6.148-0.934c-3.063-0.91-5.875-0.734-8.919,0.339c-2.623,0.926-5.549,0.996-8.735,1.509
			c-2.574-2.497-4.206-2.509-8.298-0.477c-2.272,1.126-4.855,1.632-7.23,2.395c-3.202-4.398-6.304-5.37-11.028-3.644
			c-2.207,0.808-4.442,1.542-6.841,2.37c0.812-4.239-1.734-6.85-5.516-5.981c-2.811,0.645-5.549,1.746-8.384,2.125
			c-1.383,0.184-3.484-0.375-4.284-1.375c-1.901-2.378-3.974-2.301-6.446-1.604c-2.95,0.833-5.92,1.587-8.752,2.338
			c-1.66-3.174-5.879-5.561-8.743-5.083c-1.089,0.18-2.285,0.747-3.072,1.51c-2.852,2.754-3.631,2.884-6.557,0.498
			c-3.566-2.913-4.872-2.896-8.956-0.539c-1.889,1.093-4.031,1.746-6.075,2.607c-0.84-3.537-4.884-5.598-7.923-4.129
			c-1.46,0.706-2.941,1.396-4.316,2.252c-1.412,0.881-2.705,1.958-4.056,2.954c-0.93-3.598-3.183-5.124-6.426-3.187
			c-4.949,2.958-9.551,2.881-14.529,0.616c-0.245-0.11-1.285,1.094-1.648,1.836c-0.265,0.543,0.061,1.343-0.053,2
			c-0.045,0.269-0.555,0.461-1.073,0.853c-0.196-1.175-0.347-2.081-0.534-3.195c-5.169,1.632-10.2,3.077-15.121,4.835
			c-2.097,0.747-3.958,2.142-6.067,3.321c0.22-0.775,0.461-1.62,0.812-2.868c-7.613-3.289-10.874,2.868-15.125,6.708
			c-4.586-2.591-10.306-1.281-13.607,2.929c-0.645,0.824-1.987,1.077-2.95,1.685c-1.236,0.784-2.57,1.501-3.574,2.53
			c-1.24,1.273-2.183,2.835-3.464,4.549c-0.979-1.126-1.722-1.979-2.46-2.831c-1.971,1.982-3.852,3.888-5.745,5.781
			c-2.676,2.668-5.471,5.234-8.005,8.033c-1.289,1.424-2.125,3.264-3.284,5.104c-1.461-2.167-3.179-1.326-4.513,0.167
			c-2.122,2.379-3.994,4.982-5.973,7.487c-0.49,0.62-0.91,1.706-1.477,1.787c-3.937,0.571-4.957,3.607-5.912,7.165
			c-2.097-2.416-3.395-1.073-4.39,0.62c-2.232,3.794-4.488,7.584-6.414,11.534c-0.697,1.428-0.469,3.305-0.665,4.981
			c0.257,0.033,0.51,0.062,0.767,0.094c-0.706,0.657-1.416,1.314-2.125,1.971c-2.644-1.722-3.362-1.518-4.431,1.591
			c-0.718,2.077-0.996,4.321-1.828,6.34c-1.069,2.579-2.766,4.913-3.708,7.528c-1.347,3.737-2.269,7.633-3.342,11.469
			c-0.82,2.938-1.738,5.859-2.338,8.841c-0.408,2.04-0.579,4.194-0.432,6.267c0.298,4.292,1.036,8.551,1.269,12.844
			c0.102,1.909-0.249,4.006-0.987,5.769c-1.856,4.435-3.395,8.784-3.187,13.77c0.126,3.04-1.126,6.108-1.505,9.196
			c-0.375,3.06-0.539,6.157-0.604,9.245c-0.098,4.631-0.024,9.266-0.024,14.346c-0.783-0.119-1.942-0.105-2.954-0.482
			c-3.627-1.342-7.238-2.243-11.179-1.451c-1.591,0.322-3.346-0.258-4.982-0.059c-5.398,0.662-9.845,3.342-13.893,6.83
			c-1.211,1.045-2.538,1.967-3.852,2.889c-1.803,1.266-2.615,2.682-0.338,5.012c-3.178-1.115-4.043,0.59-4.374,2.59
			c-0.342,2.072-0.567,4.215-0.437,6.299c0.408,6.332,1.416,12.645,1.444,18.973C1.481,346.697,6.415,354.535,8.785,363.167z"/>
	</g>
</g>
<g>
</g>
<g>
</g>
<g>
</g>
<g>
</g>
<g>
</g>
<g>
</g>
<g>
</g>
<g>
</g>
<g>
</g>
<g>
</g>
<g>
</g>
<g>
</g>
<g>
</g>
<g>
</g>
<g>
</g>
</svg>
