<?xml version="1.0" encoding="iso-8859-1"?>
<!-- Generator: Adobe Illustrator 16.0.0, SVG Export Plug-In . SVG Version: 6.00 Build 0)  -->
<!DOCTYPE svg PUBLIC "-//W3C//DTD SVG 1.1//EN" "http://www.w3.org/Graphics/SVG/1.1/DTD/svg11.dtd">
<svg version="1.1" id="Capa_1" xmlns="http://www.w3.org/2000/svg" xmlns:xlink="http://www.w3.org/1999/xlink" x="0px" y="0px"
	 width="482.417px" height="482.417px" viewBox="0 0 482.417 482.417" style="enable-background:new 0 0 482.417 482.417;"
	 xml:space="preserve">
<g>
	<path d="M423.507,49.508c-20.1-13.5-43.9-20.9-67.9-23.6c-23.1-2.7-47.699-2-70.6,2.3c43.5-6.2,91.3-0.4,127.8,25.6
		c32,22.7,52.601,60.8,54.101,100c1.6,39.2-15.9,78.8-46,104c-18.4,15.5-41.4,25.399-65.2,28.8c-25.9,3.7-46.4-2.3-69.8-12.5
		c-10.3-4.5-18.4-16.2-26.8-24.601c-9.101-9.1-17.8-17.899-23.9-26.799c4.8-5.7,16.799-9.1,27.9-9.9c6.3-0.5,17.199-5.7,30.3,2.1
		c3.899,2.3,6.6,7.1,11.699,7.1c1.801,0,5.301-2,5.101-5.8c-0.3-5-12.4-4.3-16.1-6.5c-4.2-2.6-6.801-3.4-6.7-8.7
		c0.1-5.2,7.2-6.5,15.1-7.6c6.5-1,13.2,0.5,17.2-2.4c2.399-1.7,4.1-6.9-2.7-12.1c-2.8-2.1-6.7-0.9-12.5,5.4
		c-3.8,4.2-10.1,6.5-16.3,6.6c-12.2-3.3,12.7-25.6,10.399-32.6c-1.999-5.9-7.3-6.1-8.499-6.3c-11.2-1.4-1.4,34.9-15.101,32
		c-2.5-0.5-4.5-15.7-4.5-18.3c-0.1-5-0.1-10.4-2.6-12.5c-8-3.3-9.5,3.3-9.101,6.6c0.601,5.4,8.5,13.3,8.7,19.4s-3.5,7.3-6.399,4.4
		c-2.9-2.8-5-9.6-9.101-8.7c-3,1.1-6.399,6-2.899,10.1c3.6,4.2,11.3,2.1,16.3,7.5c3.6,3.9,1.5,9.6-1.4,11.1
		c-14.7,6.1-49.299,0.2-54,15.5c-1.9,6.4,2.9,17,6.5,23.2c4.2,7,9.2,11.6,13.8,16.699c-2.6-2.8-10.3-4.5-13.8-6.199
		c-11.7-5.7-22.1-11.5-31.3-20.7c-3.1-3.1-17.3-16.7-9.7-21.2c7.5-4.4,13.2-2,19.6-4.3c8-2.9,15-12.1,21.7-18.8
		c5.9-5.9,15.3-18.4,20.3-19.6c5.1-1.2,13.5,5.2,16.5,3.5c1.399-0.8,2.899-5.2,0.1-9.3c-1.9-2.8-5.9,0.3-9.8,1.2
		c-2.7,0.9-7.9,1.9-9.1-1.2c2.8-9.7,21.8-13.1,23.9-16.7s-2.3-9.3-7.2-8c-5.1,1.4-15.899,21.9-21,18.1c-5.1-3.8,10.3-17.8,8.6-23.8
		c-1.1-3.9-6.7-5-11-3.7c-4.3,1.3,0.9,18.8-4.5,24.9c-2.2,0.8-4.1,0.6-6.1-0.8c-2.7-4.8-4.3-15.8-11.6-14c-3.2,0.8-5.4,5.9-3.6,8.7
		c1.8,2.8,11.2,3.3,11.8,9.3c0.4,4.1-2.5,6.2-5.7,6.4c-3.3,0.3-16.6-8.8-17.7,1c-1,9.9,13.5,3.3,15.3,3.5c11.3,1.6-0.2,21.2-5,24.9
		c-9,6.8-27,7.6-37.9,2.7c-5-2.2-8.3-7.2-12.3-8.7c-5.1-1.9-21.8-1.4-26.1-2.9c-15.2-5.2-16-34.9-23.9-48.5
		c-13.3-23.2-45.5-33.9-77.5-37.9c-8.4-1.1-22,0.7-23.2,12.3c-1.1,10.4,6.5,25,11.6,34.8c9.1,17.4,21.1,32.1,38.4,40.6
		c16.4,8,40,7.5,40.6,31.9c0.4,16.9-4.4,31.6-5.8,50.7c-10.7-2.7-26.1-16.2-22.8-33.399c1.2-6,5-7.3,8.3-12.3
		c0.4-5.2-4.7-7.3-7.8-3.9c-2.8,5.7-1.7,14.1-6.7,14.8c-12.8,1.8-0.8-22-4.3-25.4c-3.6-3.3-8.5-4.6-10.2,1.6
		c-1.1,4,11,20.8,0.1,22.3c-10.5,1.5-7.3-17.7-15.9-18.1c-6-0.3-4.7,5-3.7,7c1.6,3.5,6.9,7.7,10,11.2c2.6,2.9,4.1,4.9-2,9.2
		c-8.3,0.7-24.5-8.5-22.5,2.2c1.7,9.2,14.3-3.4,21.6,3c1.6,4,2.9,6.9,1.6,10.8c-2.2,6.4-17.8,3.3-12.3,13.8
		c9.1,2.9,11.2-8.699,16.8-10.199s12.5-2.4,18.7-1.4c12.5,2,20.1,24.2,34.8,23.2c7.7-3.9,4.8-31.9,16.7-33.3
		c5.8-0.7,9.4,5.1,12.9,8.699c25.9,27.101,60.6,47.9,97.5,55.2c7.9,1.601,18,3,21.1,11.7c6.2,17.5-0.9,71.101,13,75.3
		c13.5,4.101,47.301-3.399,52.2,4.301c9.2,14.5-19.6,5.6-23.6,10.8s-3,8.5,2.2,9.399c5.1,0.9,15.3-9.199,24.8-4
		c9.6,5.2-27.2,14.9-26,22c0.6,3.5,2.5,8.101,8.8,6c5.3-1.699,15.8-20.6,20.6-19c6.5,2.101,0.3,19.801,0,24.301
		c-0.2,2.899,3.9,5.899,9.8,4.899c8.301-2.2-9.8-30.1,5.101-34c4.7-1.2,8.5,10.3,10.5,16c2.1,5.8,3.2,11.5,9,11.601
		c3.5,0,7.399-7.2,6.5-11.2c-1-4.4-22.3-17-20.2-25c1.4-5.4,11.9-4.8,20.4-2.5c4.6,1.2,10.199,5.8,15.1,5.7
		c3.7-1.101,6.9-12,1.4-14.101c-5.4-2.1-18.2,3.7-27.9,0.4c-6.1-2.101-9.5-8.8-17-11.2c-16-5.2-36.6,2.1-50-8.7
		c2.7-14.8,1.7-33.1,3.601-49.3c1-8.5,8.3-10.101,15.699-10.601c53.2-3.399,114.3-15.199,152.101-56.3
		c25.399-27.6,39.1-64.6,39.5-101.7c0.3-26.1-6.101-52.3-19.601-75.3C452.907,75.008,439.606,60.309,423.507,49.508z"/>
</g>
<g>
</g>
<g>
</g>
<g>
</g>
<g>
</g>
<g>
</g>
<g>
</g>
<g>
</g>
<g>
</g>
<g>
</g>
<g>
</g>
<g>
</g>
<g>
</g>
<g>
</g>
<g>
</g>
<g>
</g>
</svg>
