<?xml version="1.0" encoding="iso-8859-1"?>
<!-- Generator: Adobe Illustrator 16.0.0, SVG Export Plug-In . SVG Version: 6.00 Build 0)  -->
<!DOCTYPE svg PUBLIC "-//W3C//DTD SVG 1.1//EN" "http://www.w3.org/Graphics/SVG/1.1/DTD/svg11.dtd">
<svg version="1.1" id="Capa_1" xmlns="http://www.w3.org/2000/svg" xmlns:xlink="http://www.w3.org/1999/xlink" x="0px" y="0px"
	 width="310.697px" height="310.697px" viewBox="0 0 310.697 310.697" style="enable-background:new 0 0 310.697 310.697;"
	 xml:space="preserve">
<g>
	<path d="M304.934,174.684l1.673,0.01c2.236,0.021,4.074-2.163,4.09-4.861s-1.784-4.901-4.025-4.913
		c-0.542-0.011-1.057-0.011-1.534-0.011c-0.12-3.706-0.499-7.065-1.091-10.099l1.974-0.648c2.132-0.698,3.176-3.349,2.324-5.918
		c-0.844-2.569-3.254-4.079-5.384-3.381c-0.651,0.215-1.233,0.404-1.775,0.58c-4.341-9.864-11.475-14.917-17.948-18.055
		c-7.442-3.618-21.081-7.752-24.704-0.313c-3.558,7.339,7.056,14.089,11.928,20.578c2.493,3.328,6.96,7.168,4.168,29.006
		c-1.569,12.357-13.135,20.829-23.89,23.738c-5.622,1.542-19.627,3.794-28.646-7.896c0,0-5.312-6.31-7.995-14.688
		c-1.922-6.027,2.105-15.088,5.453-20.464c9.816-15.775,15.587-37.902,15.587-56.291c0-47.573-31.072-86.135-78.644-86.135
		c-47.578,0-78.641,38.567-78.641,86.135c0,15.911,4.304,35.66,11.824,50.342c2.888,5.634,6.575,14.942,4.887,21.042
		c-2.412,8.73-7.359,15.592-7.359,15.592c-9.029,11.694-23.038,9.438-28.649,7.9c-10.769-2.919-22.326-11.393-23.9-23.744
		c-2.784-21.834,1.688-25.682,4.182-29.011c4.866-6.477,15.473-13.239,11.914-20.577c-3.612-7.444-17.255-3.289-24.707,0.312
		c-6.567,3.189-13.824,8.328-18.147,18.491c-0.052-0.016-0.097-0.031-0.155-0.052c-2.133-0.698-4.543,0.805-5.386,3.38
		c-0.851,2.569,0.187,5.226,2.32,5.923l0.485,0.156c-0.593,3.173-0.953,6.695-1.031,10.595c-0.04,0-0.066,0-0.103,0
		c-2.242,0.011-4.045,2.221-4.027,4.914c0.016,2.703,1.853,4.887,4.089,4.866h0.365c0.131,1.563,0.266,3.129,0.48,4.804
		c0.252,1.956,0.656,3.889,1.133,5.794c-2.133,0.668-3.236,3.282-2.451,5.864c0.791,2.594,3.171,4.157,5.311,3.506l0.404-0.12
		c1.688,3.659,3.8,7.15,6.273,10.43c-0.108,0.091-0.199,0.169-0.312,0.265c-1.704,1.447-1.667,4.298,0.086,6.36
		c1.759,2.049,4.565,2.542,6.273,1.077l0.452-0.384c3.15,3.02,6.643,5.738,10.438,8.115c-0.078,0.158-0.149,0.301-0.231,0.463
		c-1,1.994,0.158,4.599,2.575,5.806c2.42,1.202,5.2,0.546,6.187-1.459l0.113-0.226c3.05,1.339,6.225,2.493,9.52,3.386
		c5.683,1.527,11.339,2.288,16.854,2.288c3.123,0,6.207-0.241,9.223-0.714c5.058-0.808,5.877,1.9,2.79,7.422
		c-5.118,9.146-9.417,19.077-14.814,23.209c-5.774,4.42-19.439,3.04-22.378,1.584c-7.343-3.69-16.331-0.781-20.076,6.558
		c-3.774,7.369,0.785,13.324,8.155,17.082c0.596,0.309,2.263,0.828,4.562,1.386c-0.037,0.198-0.062,0.388-0.102,0.598
		c-0.365,2.205,1.496,4.353,4.168,4.792c2.658,0.437,5.115-1.002,5.488-3.218l0.063-0.382c3.394,0.462,7.181,0.792,11.145,0.907
		c0.016,0.157,0.026,0.29,0.036,0.451c0.168,2.238,2.488,3.885,5.181,3.675c2.564-0.188,4.489-2.005,4.528-4.099
		c5.874-0.2,11.751-1.155,17.476-5.549c15.884-12.211,46.223-43.25,48.769-46.74c0,0,12.552-16.018,22.066-16.018
		c9.52,0,22.008,17.48,22.008,17.48c2.553,3.492,34.819,37.455,50.71,49.645c5.479,4.21,11.103,5.26,16.729,5.512l-0.047,0.609
		c-0.174,2.236,1.875,4.21,4.573,4.409c2.698,0.211,5.018-1.438,5.191-3.664c0.036-0.473,0.067-0.914,0.099-1.334
		c3.88-0.083,7.58-0.388,10.945-0.813l0.195,1.177c0.361,2.205,2.812,3.648,5.484,3.207c2.662-0.431,4.537-2.578,4.163-4.793
		c-0.073-0.45-0.143-0.865-0.21-1.266c2.776-0.639,4.746-1.244,5.417-1.6c7.359-3.755,11.917-9.702,8.162-17.066
		c-3.747-7.35-12.738-10.264-20.077-6.562c-2.945,1.449-16.62,2.825-22.385-1.595c-5.396-4.137-9.816-14.016-14.992-23.151
		c-3.133-5.49-2.319-8.188,2.729-7.391c3.015,0.482,6.095,0.725,9.219,0.714c5.506,0,11.154-0.751,16.846-2.294
		c3.852-1.044,7.526-2.44,11.05-4.095c0.997,1.989,3.764,2.641,6.179,1.444c2.415-1.203,3.573-3.8,2.571-5.805
		c-0.073-0.148-0.141-0.285-0.216-0.432c3.718-2.456,7.125-5.261,10.185-8.352l0.699,0.598c1.706,1.454,4.514,0.966,6.271-1.086
		c1.744-2.059,1.791-4.902,0.085-6.352c-0.262-0.231-0.493-0.431-0.734-0.631c2.319-3.254,4.262-6.724,5.827-10.341l1.27,0.399
		c2.141,0.64,4.524-0.925,5.312-3.508c0.789-2.582-0.314-5.218-2.457-5.869c-0.377-0.109-0.729-0.219-1.075-0.319
		c0.33-1.485,0.608-2.997,0.803-4.514C304.613,178.448,304.792,176.542,304.934,174.684L304.934,174.684z M69.66,217.802
		c-2.56,0.41-5.194,0.61-7.827,0.61c-4.683,0-9.473-0.651-14.229-1.927c-20.712-5.622-36.274-22.295-38.725-41.498
		c-2.935-23.083,3.098-37.923,18.449-45.37c1.339-0.64,2.945-0.092,3.596,1.242c0.646,1.338,0.092,2.945-1.241,3.596
		c-8.305,4.025-18.937,12.541-15.465,39.851c2.176,17.07,16.163,31.927,34.793,36.986c6.692,1.807,13.443,2.205,19.808,1.202
		c1.426-0.215,2.845,0.771,3.076,2.238C72.127,216.195,71.122,217.571,69.66,217.802z M121.692,141.631
		c-5.273,0-9.572-4.299-9.572-9.572c0-5.284,4.299-9.575,9.572-9.575c5.283,0,9.575,4.292,9.575,9.575
		C131.272,137.332,126.975,141.631,121.692,141.631z M170.217,185.582c-1.322,1.438-2.871,2.676-4.582,3.716
		c-3.475,2.132-7.67,3.14-11.809,3.097c-4.145-0.178-8.16-1.344-11.546-3.407c-1.688-1.013-3.263-2.199-4.643-3.584
		c-2.297-2.299,0.863-3.255,6.331-1.933c3.467,0.834,6.769,1.376,10.053,1.438c3.307,0.148,6.529-0.314,9.935-1.165
		C169.315,182.38,172.437,183.172,170.217,185.582z M185.819,141.657c-5.171,0-9.37-4.197-9.37-9.367
		c0-5.166,4.199-9.371,9.37-9.371s9.349,4.205,9.349,9.371C195.167,137.46,190.99,141.657,185.819,141.657z M296.969,174.987
		c-2.451,19.203-18.01,35.876-38.72,41.498c-4.761,1.275-9.549,1.927-14.23,1.927c-2.636,0-5.27-0.2-7.827-0.61
		c-1.465-0.23-2.468-1.606-2.236-3.069c0.231-1.467,1.644-2.453,3.071-2.238c6.373,1.015,13.112,0.604,19.822-1.202
		c18.624-5.054,32.603-19.916,34.787-36.986c3.475-27.31-7.16-35.825-15.465-39.851c-1.333-0.651-1.889-2.258-1.239-3.596
		c0.646-1.333,2.263-1.892,3.597-1.242C293.872,137.064,299.904,151.904,296.969,174.987z"/>
</g>
<g>
</g>
<g>
</g>
<g>
</g>
<g>
</g>
<g>
</g>
<g>
</g>
<g>
</g>
<g>
</g>
<g>
</g>
<g>
</g>
<g>
</g>
<g>
</g>
<g>
</g>
<g>
</g>
<g>
</g>
</svg>
