<?xml version="1.0" encoding="iso-8859-1"?>
<!-- Generator: Adobe Illustrator 16.0.0, SVG Export Plug-In . SVG Version: 6.00 Build 0)  -->
<!DOCTYPE svg PUBLIC "-//W3C//DTD SVG 1.1//EN" "http://www.w3.org/Graphics/SVG/1.1/DTD/svg11.dtd">
<svg version="1.1" id="Capa_1" xmlns="http://www.w3.org/2000/svg" xmlns:xlink="http://www.w3.org/1999/xlink" x="0px" y="0px"
	 width="461.497px" height="461.497px" viewBox="0 0 461.497 461.497" style="enable-background:new 0 0 461.497 461.497;"
	 xml:space="preserve">
<g>
	<g id="Layer_2_17_">
		<g>
			<path d="M268.616,409.893c-3.622,0.977-7.318,1.848-10.986,2.602c-9.596,1.955-15.789,11.32-13.829,20.917
				c0.11,0.548,0.247,1.069,0.404,1.593c2.618,8.674,11.466,14.086,20.518,12.239c4.378-0.896,8.79-1.939,13.115-3.103
				c9.46-2.544,15.062-12.277,12.517-21.737C287.807,412.932,278.076,407.346,268.616,409.893z"/>
			<path d="M144.994,400.018c-3.425-1.524-6.842-3.174-10.157-4.908c-8.687-4.529-19.396-1.163-23.926,7.523
				c-2.236,4.272-2.55,9.039-1.258,13.317c1.334,4.412,4.369,8.307,8.772,10.605c3.957,2.061,8.024,4.032,12.104,5.851
				c8.941,3.992,19.43-0.016,23.425-8.956C157.949,414.502,153.936,404.02,144.994,400.018z"/>
			<path d="M205.979,415.609c-3.73-0.3-7.514-0.723-11.228-1.245c-9.699-1.382-18.673,5.367-20.051,15.065
				c-0.374,2.636-0.145,5.213,0.575,7.602c1.933,6.405,7.433,11.441,14.496,12.449c4.419,0.624,8.917,1.125,13.362,1.479
				c9.766,0.791,18.317-6.487,19.103-16.247C223.021,424.946,215.747,416.395,205.979,415.609z"/>
			<path d="M325.738,383.44c-3.081,2.12-6.277,4.178-9.494,6.12c-7.089,4.271-10.115,12.719-7.833,20.294
				c0.42,1.388,1.02,2.748,1.802,4.051c5.052,8.389,15.953,11.083,24.343,6.033c3.825-2.307,7.625-4.761,11.288-7.28
				c8.066-5.553,10.11-16.596,4.556-24.661C344.849,379.924,333.803,377.888,325.738,383.44z"/>
			<path d="M395.453,335.48c-7.944-5.728-19.028-3.931-24.757,4.008c-2.188,3.037-4.504,6.05-6.875,8.941
				c-3.89,4.75-4.9,10.908-3.255,16.375c0.985,3.254,2.911,6.269,5.736,8.585c7.577,6.205,18.75,5.091,24.955-2.487
				c2.831-3.45,5.595-7.043,8.202-10.664C405.189,352.294,403.396,341.213,395.453,335.48z"/>
			<path d="M420.276,270.883c-9.4-2.746-19.247,2.654-21.989,12.056c-1.054,3.601-2.228,7.217-3.485,10.745
				c-1.334,3.713-1.354,7.585-0.292,11.092c1.568,5.203,5.495,9.614,10.994,11.584c9.222,3.307,19.371-1.483,22.683-10.7
				c1.504-4.204,2.901-8.508,4.146-12.792C435.074,283.471,429.676,273.62,420.276,270.883z"/>
			<path d="M453.552,155.337l-23.307,7.242c-17.688-54.204-54.93-98.746-105.337-125.798c-5.074-2.725-10.221-5.229-15.431-7.53
				c-0.038-0.018-0.068-0.033-0.103-0.056c-0.218-0.092-0.447-0.178-0.659-0.272C262.758,8.814,211.901,5.002,163.15,18.204
				c-0.383,0.075-0.766,0.147-1.144,0.254c-1.628,0.444-3.271,0.925-4.892,1.409c-2.661,0.804-5.338,1.67-7.964,2.571
				c-0.311,0.107-0.604,0.24-0.906,0.36c-43.518,15.075-80.577,42.869-107.015,80.005c-0.094,0.128-0.2,0.238-0.289,0.365
				c-2.584,3.629-5.087,7.392-7.451,11.188c-0.148,0.243-0.271,0.496-0.412,0.747c-2.358,3.824-4.624,7.736-6.77,11.726
				C4.395,167.665-3.964,213.292,1.739,258.362c0.013,0.103,0.025,0.199,0.034,0.301c0.009,0.072,0.025,0.147,0.042,0.222
				c1.55,12.04,4.096,24.041,7.671,35.895c9.388,31.125,25.053,59.112,46.557,83.188c6.523,7.302,17.735,7.932,25.041,1.409
				c7.302-6.525,7.939-17.74,1.411-25.04c-10.735-12.013-19.719-25.208-26.91-39.424c-0.077-0.175-0.145-0.354-0.229-0.522
				c-1.691-3.354-3.298-6.792-4.786-10.233c-0.008-0.027-0.017-0.043-0.029-0.065c-2.708-6.334-5.069-12.854-7.093-19.553
				c-23.243-77.066,6.399-157.708,67.912-202.796c0.91-0.662,1.819-1.33,2.738-1.972c15.792-11.138,33.604-19.97,53.098-25.848
				c19.618-5.914,39.457-8.398,58.887-7.816c0.314,0.014,0.619,0.023,0.93,0.032c1.186,0.036,2.368,0.099,3.548,0.165
				c0.477,0.025,0.952,0.051,1.428,0.081c60.587,3.79,116.456,37.44,147.82,90.305c0.017,0.03,0.029,0.064,0.05,0.094
				c0.465,0.785,0.919,1.569,1.375,2.363c0.054,0.089,0.113,0.168,0.165,0.259c6.001,10.523,11.05,21.784,14.977,33.701
				l-23.306,7.246c-6.473,2.011-7.11,6.668-1.429,10.35l50.719,32.852c5.686,3.685,12.468,1.575,15.061-4.676l23.171-55.82
				C463.182,156.804,460.02,153.327,453.552,155.337z"/>
			<path d="M155.288,231.23c-17.092,12.662-28.75,23.646-34.964,32.95c-6.208,9.303-9.932,19.235-11.155,29.796h106.935v-29.053
				h-55.657c3.268-3.213,6.111-5.805,8.533-7.785c2.423-1.991,7.217-5.457,14.395-10.418c12.074-8.517,20.404-16.335,24.985-23.455
				c4.577-7.114,6.868-14.582,6.868-22.4c0-7.349-1.997-13.987-5.993-19.912c-3.999-5.919-9.486-10.311-16.456-13.17
				c-6.969-2.855-16.728-4.288-29.273-4.288c-12.014,0-21.419,1.505-28.219,4.514c-6.792,3.004-12.061,7.319-15.792,12.944
				c-3.735,5.636-6.299,13.467-7.702,23.497l35.704,2.887c0.991-7.229,2.933-12.278,5.818-15.135
				c2.891-2.859,6.604-4.29,11.161-4.29c4.373,0,8.006,1.388,10.892,4.16c2.886,2.766,4.332,6.109,4.332,10.02
				c0,3.619-1.458,7.438-4.377,11.466C172.406,217.582,165.726,223.476,155.288,231.23z"/>
			<path d="M323.651,293.977v-23.979h16.099V242.34h-16.099v-78.844h-31.066l-64.93,77.187v29.315h64.93v23.979H323.651
				L323.651,293.977z M258.28,242.34l34.305-40.366v40.366H258.28z"/>
		</g>
	</g>
</g>
<g>
</g>
<g>
</g>
<g>
</g>
<g>
</g>
<g>
</g>
<g>
</g>
<g>
</g>
<g>
</g>
<g>
</g>
<g>
</g>
<g>
</g>
<g>
</g>
<g>
</g>
<g>
</g>
<g>
</g>
</svg>
