<?xml version="1.0" encoding="iso-8859-1"?>
<!-- Generator: Adobe Illustrator 16.0.0, SVG Export Plug-In . SVG Version: 6.00 Build 0)  -->
<!DOCTYPE svg PUBLIC "-//W3C//DTD SVG 1.1//EN" "http://www.w3.org/Graphics/SVG/1.1/DTD/svg11.dtd">
<svg version="1.1" id="Capa_1" xmlns="http://www.w3.org/2000/svg" xmlns:xlink="http://www.w3.org/1999/xlink" x="0px" y="0px"
	 width="45.604px" height="45.604px" viewBox="0 0 45.604 45.604" style="enable-background:new 0 0 45.604 45.604;"
	 xml:space="preserve">
<g>
	<g>
		<path d="M35.584,0.975h-0.34v3.902h0.34c0.723,0,1.301,0.53,1.301,1.252v34.312c0,0.723-0.578,1.26-1.301,1.26H15.546V4.877h7.733
			V0.975H10.019c-2.865,0-5.202,2.289-5.202,5.154v34.312c0,2.867,2.337,5.162,5.202,5.162h25.565c2.866,0,5.203-2.295,5.203-5.162
			V6.129C40.787,3.264,38.45,0.975,35.584,0.975z"/>
		<path d="M25.859,15.853c0.114,0.046,0.221,0.069,0.339,0.069c0.248,0,0.485-0.099,0.665-0.284l1.719-1.769
			c0.176-0.181,0.416-0.283,0.668-0.283c0.254,0,0.494,0.102,0.67,0.283l1.722,1.769c0.18,0.185,0.423,0.284,0.671,0.284
			c0.119,0,0.227-0.023,0.341-0.069c0.353-0.143,0.573-0.486,0.573-0.868V1.652C33.228,0.716,32.49,0,31.555,0h-4.611
			c-0.936,0-1.643,0.716-1.643,1.652v13.333C25.301,15.367,25.506,15.71,25.859,15.853z"/>
	</g>
</g>
<g>
</g>
<g>
</g>
<g>
</g>
<g>
</g>
<g>
</g>
<g>
</g>
<g>
</g>
<g>
</g>
<g>
</g>
<g>
</g>
<g>
</g>
<g>
</g>
<g>
</g>
<g>
</g>
<g>
</g>
</svg>
