<?xml version="1.0" encoding="iso-8859-1"?>
<!-- Generator: Adobe Illustrator 16.0.0, SVG Export Plug-In . SVG Version: 6.00 Build 0)  -->
<!DOCTYPE svg PUBLIC "-//W3C//DTD SVG 1.1//EN" "http://www.w3.org/Graphics/SVG/1.1/DTD/svg11.dtd">
<svg version="1.1" id="Capa_1" xmlns="http://www.w3.org/2000/svg" xmlns:xlink="http://www.w3.org/1999/xlink" x="0px" y="0px"
	 width="439.814px" height="439.814px" viewBox="0 0 439.814 439.814" style="enable-background:new 0 0 439.814 439.814;"
	 xml:space="preserve">
<g>
	<g>
		<path d="M166.864,91.238H272.95c16.821,0,30.457-13.636,30.457-30.457c0-16.821-13.636-30.457-30.457-30.457h-5.395
			C265.158,13.19,250.451,0,232.657,0h-25.5c-17.795,0-32.501,13.189-34.898,30.324h-5.395c-16.821,0-30.457,13.636-30.457,30.457
			C136.407,77.602,150.043,91.238,166.864,91.238z"/>
		<path d="M313.407,20.814h-18.821c11.413,6.203,19.879,17.154,22.75,30.182c22.979,1.998,41.071,21.33,41.071,44.818v269
			c0,24.812-20.188,45-45,45h-187c-24.813,0-45-20.188-45-45v-269c0-23.488,18.092-42.82,41.071-44.818
			c2.87-13.028,11.336-23.979,22.75-30.182h-18.821c-41.355,0-75,33.645-75,75v269c0,41.354,33.645,75,75,75h187
			c41.355,0,75-33.646,75-75v-269C388.407,54.459,354.763,20.814,313.407,20.814z"/>
		<path d="M312.907,143.314h-93c-8.284,0-15,6.716-15,15c0,8.284,6.716,15,15,15h93c8.284,0,15-6.716,15-15
			C327.907,150.03,321.191,143.314,312.907,143.314z"/>
		<path d="M312.907,223.314h-93c-8.284,0-15,6.716-15,15c0,8.283,6.716,15,15,15h93c8.284,0,15-6.717,15-15
			C327.907,230.03,321.191,223.314,312.907,223.314z"/>
		<path d="M312.907,303.314h-93c-8.284,0-15,6.716-15,15c0,8.283,6.716,15,15,15h93c8.284,0,15-6.717,15-15
			C327.907,310.03,321.191,303.314,312.907,303.314z"/>
		<path d="M197.407,158.314c0-24.854-20.147-45-45.001-45c-24.853,0-45,20.146-45,45c0,17.423,9.909,32.522,24.392,40
			c-14.483,7.477-24.392,22.576-24.392,40c0,17.423,9.909,32.521,24.392,40c-14.483,7.477-24.392,22.576-24.392,40
			c0,24.853,20.147,45,45,45c24.854,0,45.001-20.147,45.001-45c0-17.424-9.909-32.523-24.393-40
			c14.484-7.479,24.393-22.577,24.393-40c0-17.424-9.909-32.523-24.393-40C187.499,190.836,197.407,175.737,197.407,158.314z
			 M180.139,298.631c3.307,3.308,3.307,8.67,0,11.979l-27.39,27.39c-1.654,1.653-3.82,2.479-5.989,2.479s-4.335-0.826-5.989-2.479
			l-16.096-16.095c-3.307-3.307-3.307-8.671,0-11.979c3.31-3.309,8.672-3.309,11.979,0l10.105,10.104l21.399-21.399
			C171.467,295.322,176.829,295.322,180.139,298.631z M180.139,218.63c3.307,3.308,3.307,8.67,0,11.979l-27.39,27.39
			c-1.654,1.653-3.82,2.479-5.989,2.479s-4.335-0.826-5.989-2.479l-16.096-16.095c-3.307-3.307-3.307-8.671,0-11.979
			c3.31-3.309,8.672-3.309,11.979,0l10.105,10.104l21.399-21.4C171.467,215.322,176.829,215.322,180.139,218.63z M180.139,150.608
			l-27.39,27.39c-1.654,1.653-3.82,2.48-5.989,2.48s-4.335-0.827-5.989-2.48l-16.096-16.095c-3.307-3.307-3.307-8.671,0-11.979
			c3.31-3.308,8.672-3.308,11.979,0l10.105,10.105l21.399-21.4c3.307-3.308,8.67-3.308,11.979,0
			C183.446,141.938,183.446,147.301,180.139,150.608z"/>
	</g>
</g>
<g>
</g>
<g>
</g>
<g>
</g>
<g>
</g>
<g>
</g>
<g>
</g>
<g>
</g>
<g>
</g>
<g>
</g>
<g>
</g>
<g>
</g>
<g>
</g>
<g>
</g>
<g>
</g>
<g>
</g>
</svg>
