<?xml version="1.0" encoding="iso-8859-1"?>
<!-- Generator: Adobe Illustrator 16.0.0, SVG Export Plug-In . SVG Version: 6.00 Build 0)  -->
<!DOCTYPE svg PUBLIC "-//W3C//DTD SVG 1.1//EN" "http://www.w3.org/Graphics/SVG/1.1/DTD/svg11.dtd">
<svg version="1.1" id="Capa_1" xmlns="http://www.w3.org/2000/svg" xmlns:xlink="http://www.w3.org/1999/xlink" x="0px" y="0px"
	 width="394.394px" height="394.394px" viewBox="0 0 394.394 394.394" style="enable-background:new 0 0 394.394 394.394;"
	 xml:space="preserve">
<g>
	<path d="M197.197,108.8c-65.62,0-119,53.38-119,119c0,65.62,53.38,119,119,119c65.621,0,119-53.38,119-119
		C316.197,162.18,262.818,108.8,197.197,108.8z M217.937,239.496l-0.068-0.136c-4.08,7.275-11.764,12.24-20.671,12.24
		c-13.124,0-23.8-10.677-23.8-23.801c0-8.296,4.216-15.571,10.608-19.787l-0.068-0.137l78.472-44.88L217.937,239.496z
		 M326.39,122.645l15.055-15.055c2.66-2.659,2.66-6.963,0-9.615l-14.422-14.423c-2.658-2.659-6.963-2.659-9.615,0l-15.055,15.055
		c-24.555-20.012-54.904-33.177-88.156-36.543V34h20.4c7.514,0,13.6-6.086,13.6-13.6v-6.8c0-7.514-6.086-13.6-13.6-13.6h-74.8
		c-7.514,0-13.6,6.086-13.6,13.6v6.8c0,7.514,6.086,13.6,13.6,13.6h20.4v28.057C146.945,65.43,116.597,78.595,92.042,98.6
		L76.987,83.545c-2.659-2.659-6.963-2.659-9.615,0L52.949,97.968c-2.659,2.659-2.659,6.963,0,9.615l15.055,15.055
		c-23.372,28.683-37.407,65.273-37.407,105.155c0,92.005,74.596,166.601,166.6,166.601c92.003,0,166.599-74.596,166.599-166.601
		C363.796,187.918,349.769,151.328,326.39,122.645z M197.197,360.4c-73.1,0-132.6-59.5-132.6-132.601c0-73.1,59.5-132.6,132.6-132.6
		c73.099,0,132.599,59.5,132.599,132.6C329.796,300.9,270.296,360.4,197.197,360.4z"/>
</g>
<g>
</g>
<g>
</g>
<g>
</g>
<g>
</g>
<g>
</g>
<g>
</g>
<g>
</g>
<g>
</g>
<g>
</g>
<g>
</g>
<g>
</g>
<g>
</g>
<g>
</g>
<g>
</g>
<g>
</g>
</svg>
