<?xml version="1.0" encoding="iso-8859-1"?>
<!-- Generator: Adobe Illustrator 18.1.1, SVG Export Plug-In . SVG Version: 6.00 Build 0)  -->
<svg version="1.1" id="Capa_1" xmlns="http://www.w3.org/2000/svg" xmlns:xlink="http://www.w3.org/1999/xlink" x="0px" y="0px"
	 viewBox="0 0 474.026 474.026" style="enable-background:new 0 0 474.026 474.026;" xml:space="preserve">
<g>
	<g>
		<path style="fill:#010002;" d="M336.848,56.437c3.902,0,7.08-3.162,7.08-7.064V7.08c0-3.902-3.178-7.08-7.08-7.08
			c-3.894,0-7.064,3.178-7.064,7.08v42.293C329.784,53.275,332.963,56.437,336.848,56.437z"/>
		<path style="fill:#010002;" d="M298.335,56.437c3.91,0,7.088-3.162,7.088-7.064V7.08c0-3.902-3.178-7.08-7.088-7.08
			c-3.885,0-7.056,3.178-7.056,7.08v42.293C291.279,53.275,294.45,56.437,298.335,56.437z"/>
		<path style="fill:#010002;" d="M259.115,56.437c3.894,0,7.047-3.162,7.047-7.064V7.08c0-3.902-3.162-7.08-7.047-7.08
			c-3.902,0-7.08,3.178-7.08,7.08v42.293C252.035,53.275,255.205,56.437,259.115,56.437z"/>
		<path style="fill:#010002;" d="M220.593,56.437c3.894,0,7.064-3.162,7.064-7.064V7.08c0-3.902-3.178-7.08-7.064-7.08
			c-3.902,0-7.072,3.178-7.072,7.08v42.293C213.521,53.275,216.692,56.437,220.593,56.437z"/>
		<path style="fill:#010002;" d="M185.063,56.437c3.877,0,7.056-3.162,7.056-7.064V7.08c0-3.902-3.178-7.08-7.056-7.08
			c-3.918,0-7.08,3.178-7.08,7.08v42.293C177.983,53.275,181.145,56.437,185.063,56.437z"/>
		<path style="fill:#010002;" d="M146.542,56.437c3.894,0,7.056-3.162,7.056-7.064V7.08c0-3.902-3.162-7.08-7.056-7.08
			c-3.902,0-7.072,3.17-7.072,7.08v42.293C139.47,53.275,142.64,56.437,146.542,56.437z"/>
		<path style="fill:#010002;" d="M49.34,129.399H7.064c-3.902,0-7.064,3.178-7.064,7.064s3.162,7.064,7.064,7.064H49.34
			c3.918,0,7.08-3.178,7.08-7.064S53.258,129.399,49.34,129.399z"/>
		<path style="fill:#010002;" d="M49.34,167.92H7.064c-3.902,0-7.064,3.162-7.064,7.056c0,3.902,3.162,7.064,7.064,7.064H49.34
			c3.918,0,7.08-3.162,7.08-7.064C56.42,171.074,53.258,167.92,49.34,167.92z"/>
		<path style="fill:#010002;" d="M49.34,207.165H7.064c-3.902,0-7.064,3.162-7.064,7.08c0,3.894,3.162,7.056,7.064,7.056H49.34
			c3.918,0,7.08-3.162,7.08-7.056C56.42,210.327,53.258,207.165,49.34,207.165z"/>
		<path style="fill:#010002;" d="M49.34,245.662H7.064c-3.902,0-7.064,3.178-7.064,7.064c0,3.885,3.162,7.064,7.064,7.064H49.34
			c3.918,0,7.08-3.178,7.08-7.064C56.42,248.84,53.258,245.662,49.34,245.662z"/>
		<path style="fill:#010002;" d="M49.34,281.184H7.064c-3.902,0-7.064,3.178-7.064,7.064c0,3.918,3.162,7.096,7.064,7.096H49.34
			c3.918,0,7.08-3.178,7.08-7.096C56.42,284.354,53.258,281.184,49.34,281.184z"/>
		<path style="fill:#010002;" d="M49.34,319.713H7.064c-3.902,0-7.064,3.154-7.064,7.064c0,3.894,3.162,7.072,7.064,7.072H49.34
			c3.918,0,7.08-3.178,7.08-7.072C56.42,322.867,53.258,319.713,49.34,319.713z"/>
		<path style="fill:#010002;" d="M336.848,417.606c-3.894,0-7.064,3.178-7.064,7.064v42.293c0,3.91,3.178,7.064,7.064,7.064
			c3.902,0,7.08-3.154,7.08-7.064v-42.293C343.928,420.776,340.758,417.606,336.848,417.606z"/>
		<path style="fill:#010002;" d="M298.335,417.606c-3.885,0-7.056,3.178-7.056,7.064v42.293c0,3.91,3.178,7.064,7.056,7.064
			c3.91,0,7.088-3.154,7.088-7.064v-42.293C305.423,420.776,302.245,417.606,298.335,417.606z"/>
		<path style="fill:#010002;" d="M259.115,417.606c-3.902,0-7.08,3.178-7.08,7.064v42.293c0,3.91,3.178,7.064,7.08,7.064
			c3.894,0,7.047-3.154,7.047-7.064v-42.293C266.162,420.776,263,417.606,259.115,417.606z"/>
		<path style="fill:#010002;" d="M220.593,417.606c-3.902,0-7.072,3.178-7.072,7.064v42.293c0,3.91,3.162,7.064,7.072,7.064
			c3.894,0,7.064-3.154,7.064-7.064v-42.293C227.657,420.776,224.479,417.606,220.593,417.606z"/>
		<path style="fill:#010002;" d="M185.063,417.606c-3.918,0-7.08,3.178-7.08,7.064v42.293c0,3.91,3.162,7.064,7.08,7.064
			c3.877,0,7.056-3.154,7.056-7.064v-42.293C192.119,420.776,188.941,417.606,185.063,417.606z"/>
		<path style="fill:#010002;" d="M146.542,417.606c-3.902,0-7.08,3.178-7.08,7.064v42.293c0,3.91,3.178,7.064,7.08,7.064
			c3.894,0,7.056-3.154,7.056-7.064v-42.293C153.598,420.776,150.436,417.606,146.542,417.606z"/>
		<path style="fill:#010002;" d="M356.495,74.945H126.879c-24.093,0-43.715,19.639-43.715,43.732v229.6
			c0,24.134,19.622,43.772,43.715,43.772h229.616c24.101,0,43.74-19.639,43.74-43.772v-229.6
			C400.235,94.584,380.596,74.945,356.495,74.945z M149.086,144.721c-7.706,0-13.949-6.243-13.949-13.932
			c0-7.69,6.243-13.949,13.949-13.949c7.673,0,13.932,6.259,13.932,13.949C163.019,138.478,156.76,144.721,149.086,144.721z
			 M315.559,302.781H169.383V155.24h146.176C315.559,155.24,315.559,302.781,315.559,302.781z"/>
		<path style="fill:#010002;" d="M424.645,143.526h42.301c3.902,0,7.08-3.178,7.08-7.064s-3.178-7.064-7.08-7.064h-42.301
			c-3.894,0-7.064,3.178-7.064,7.064S420.751,143.526,424.645,143.526z"/>
		<path style="fill:#010002;" d="M466.946,167.92h-42.301c-3.894,0-7.064,3.162-7.064,7.056c0,3.902,3.178,7.064,7.064,7.064h42.301
			c3.902,0,7.08-3.162,7.08-7.064C474.026,171.074,470.856,167.92,466.946,167.92z"/>
		<path style="fill:#010002;" d="M466.946,207.165h-42.301c-3.894,0-7.064,3.162-7.064,7.08c0,3.894,3.178,7.056,7.064,7.056h42.301
			c3.902,0,7.08-3.162,7.08-7.056C474.026,210.327,470.856,207.165,466.946,207.165z"/>
		<path style="fill:#010002;" d="M466.946,245.662h-42.301c-3.894,0-7.064,3.178-7.064,7.064c0,3.885,3.178,7.064,7.064,7.064
			h42.301c3.902,0,7.08-3.178,7.08-7.064C474.026,248.84,470.856,245.662,466.946,245.662z"/>
		<path style="fill:#010002;" d="M466.946,281.184h-42.301c-3.894,0-7.064,3.178-7.064,7.064c0,3.918,3.178,7.096,7.064,7.096
			h42.301c3.902,0,7.08-3.178,7.08-7.096C474.026,284.354,470.856,281.184,466.946,281.184z"/>
		<path style="fill:#010002;" d="M466.946,319.713h-42.301c-3.894,0-7.064,3.154-7.064,7.064c0,3.894,3.178,7.072,7.064,7.072
			h42.301c3.902,0,7.08-3.178,7.08-7.072C474.026,322.867,470.856,319.713,466.946,319.713z"/>
	</g>
</g>
<g>
</g>
<g>
</g>
<g>
</g>
<g>
</g>
<g>
</g>
<g>
</g>
<g>
</g>
<g>
</g>
<g>
</g>
<g>
</g>
<g>
</g>
<g>
</g>
<g>
</g>
<g>
</g>
<g>
</g>
</svg>
