<?xml version="1.0" encoding="iso-8859-1"?>
<!-- Generator: Adobe Illustrator 16.0.0, SVG Export Plug-In . SVG Version: 6.00 Build 0)  -->
<!DOCTYPE svg PUBLIC "-//W3C//DTD SVG 1.1//EN" "http://www.w3.org/Graphics/SVG/1.1/DTD/svg11.dtd">
<svg version="1.1" id="Capa_1" xmlns="http://www.w3.org/2000/svg" xmlns:xlink="http://www.w3.org/1999/xlink" x="0px" y="0px"
	 width="464.811px" height="464.811px" viewBox="0 0 464.811 464.811" style="enable-background:new 0 0 464.811 464.811;"
	 xml:space="preserve">
<g>
	<g id="Layer_2_15_">
		<g>
			<path d="M416.637,90.805c-37.824-49.214-92.541-80.75-154.09-88.803c-60.941-7.972-121.344,8.04-170.302,45.074L74.543,29.349
				c-5.051-5.057-9.712-3.366-10.358,3.745l-5.811,63.458c-0.65,7.111,4.639,12.411,11.756,11.769l63.46-5.734
				c7.117-0.64,8.811-5.305,3.757-10.362l-18.364-18.387c40.313-28.887,89.296-41.248,138.711-34.783
				c51.653,6.757,97.573,33.224,129.313,74.524c31.738,41.297,45.491,92.479,38.734,144.122
				c-4.802,36.677-19.539,70.469-42.471,98.352c-9.357,11.371-20.077,21.762-32.051,30.961
				c-41.296,31.74-92.479,45.496-144.128,38.738c-51.643-6.757-97.559-33.224-129.301-74.519
				c-30.921-40.229-44.832-90.144-39.176-140.55c1.151-10.257-6.23-19.508-16.49-20.655c-10.253-1.155-19.498,6.23-20.644,16.487
				c-6.75,60.067,9.832,119.552,46.677,167.491c37.824,49.213,92.546,80.752,154.088,88.804
				c61.54,8.049,122.53-8.349,171.751-46.172c14.255-10.951,27.037-23.336,38.187-36.892c27.336-33.22,44.895-73.479,50.617-117.191
				C470.851,201.01,454.458,140.016,416.637,90.805z"/>
			<path d="M223.275,81.15c-8.354,0-15.127,6.772-15.127,15.125v150.751l137.865,71.262c2.223,1.152,4.598,1.699,6.933,1.695
				c5.481,0,10.766-2.982,13.454-8.185c3.84-7.423,0.933-16.549-6.489-20.391l-121.5-62.812V96.276
				C238.41,87.923,231.636,81.15,223.275,81.15z"/>
		</g>
	</g>
</g>
<g>
</g>
<g>
</g>
<g>
</g>
<g>
</g>
<g>
</g>
<g>
</g>
<g>
</g>
<g>
</g>
<g>
</g>
<g>
</g>
<g>
</g>
<g>
</g>
<g>
</g>
<g>
</g>
<g>
</g>
</svg>
