<?xml version="1.0" encoding="iso-8859-1"?>
<!-- Generator: Adobe Illustrator 18.0.0, SVG Export Plug-In . SVG Version: 6.00 Build 0)  -->
<!DOCTYPE svg PUBLIC "-//W3C//DTD SVG 1.1//EN" "http://www.w3.org/Graphics/SVG/1.1/DTD/svg11.dtd">
<svg version="1.1" id="Capa_1" xmlns="http://www.w3.org/2000/svg" xmlns:xlink="http://www.w3.org/1999/xlink" x="0px" y="0px"
	 viewBox="0 0 349 349" style="enable-background:new 0 0 349 349;" xml:space="preserve">
<g>
	<path d="M299.361,39h-11.719v-7c0-17.645-14.355-32-32-32s-32,14.355-32,32v7h-98.285v-7c0-17.645-14.355-32-32-32
		c-17.645,0-32,14.355-32,32v7H49.641C24.318,39,3.713,59.604,3.713,84.929v218.143C3.713,328.397,24.318,349,49.641,349h249.721
		c25.322,0,45.926-20.603,45.926-45.929V84.929C345.287,59.604,324.684,39,299.361,39z M243.643,32c0-6.617,5.383-12,12-12
		c6.617,0,12,5.383,12,12v25c0,6.617-5.383,12-12,12c-6.617,0-12-5.383-12-12V32z M81.357,32c0-6.617,5.383-12,12-12
		c6.617,0,12,5.383,12,12v25c0,6.617-5.383,12-12,12c-6.617,0-12-5.383-12-12V32z M311.885,303.071
		c0,6.908-5.619,12.527-12.523,12.527H49.641c-6.906,0-12.525-5.62-12.525-12.527V155.03h274.77V303.071z"/>
	<path d="M114.836,200.253h8.889v79.979c0,6.213,5.054,11.268,11.266,11.268h0.217c6.214,0,11.269-5.055,11.269-11.268v-91.465
		c0-6.213-5.056-11.268-11.269-11.268h-20.371c-6.213,0-11.268,5.055-11.268,11.268v0.216
		C103.568,195.197,108.623,200.253,114.836,200.253z"/>
	<path d="M234.164,240.796h-3.781v-8.629c0-6.213-5.057-11.268-11.271-11.268h-0.215c-6.214,0-11.27,5.055-11.27,11.268v8.629
		h-15.353l26.701-46.409c1.999-3.472,1.994-7.787-0.012-11.261c-2.006-3.47-5.744-5.626-9.757-5.626h-0.236
		c-4.021,0-7.764,2.165-9.769,5.651l-35.494,61.716c-0.98,1.704-1.499,3.646-1.499,5.619v1.794c0,6.212,5.054,11.267,11.266,11.267
		h34.152v16.685c0,6.213,5.056,11.268,11.27,11.268h0.215c6.215,0,11.271-5.055,11.271-11.268v-16.685h3.781
		c6.213,0,11.268-5.054,11.268-11.267v-0.217C245.432,245.851,240.377,240.796,234.164,240.796z"/>
</g>
<g>
</g>
<g>
</g>
<g>
</g>
<g>
</g>
<g>
</g>
<g>
</g>
<g>
</g>
<g>
</g>
<g>
</g>
<g>
</g>
<g>
</g>
<g>
</g>
<g>
</g>
<g>
</g>
<g>
</g>
</svg>
