<?xml version="1.0" encoding="iso-8859-1"?>
<!-- Generator: Adobe Illustrator 16.0.0, SVG Export Plug-In . SVG Version: 6.00 Build 0)  -->
<!DOCTYPE svg PUBLIC "-//W3C//DTD SVG 1.1//EN" "http://www.w3.org/Graphics/SVG/1.1/DTD/svg11.dtd">
<svg version="1.1" id="Capa_1" xmlns="http://www.w3.org/2000/svg" xmlns:xlink="http://www.w3.org/1999/xlink" x="0px" y="0px"
	 width="516.375px" height="516.375px" viewBox="0 0 516.375 516.375" style="enable-background:new 0 0 516.375 516.375;"
	 xml:space="preserve">
<g>
	<g>
		<rect x="114.75" y="344.25" width="19.125" height="153"/>
		<rect x="153" y="344.25" width="19.125" height="172.125"/>
		<rect x="191.25" y="344.25" width="19.125" height="133.875"/>
		<rect x="76.5" y="344.25" width="19.125" height="172.125"/>
		<path d="M95.625,38.25c0-9.562,7.65-19.125,19.125-19.125H306v95.625c0,21.038,17.213,38.25,38.25,38.25h76.5v133.875h19.125v-153
			L325.125,0H114.75C93.712,0,76.5,17.212,76.5,38.25v248.625h19.125V38.25z M325.125,28.688l89.888,105.188H344.25
			c-9.562,0-19.125-9.562-19.125-19.125V28.688z"/>
		<rect x="306" y="344.25" width="19.125" height="172.125"/>
		<rect x="229.5" y="344.25" width="19.125" height="172.125"/>
		<rect x="420.75" y="344.25" width="19.125" height="172.125"/>
		<polygon points="459,267.75 459,306 57.375,306 57.375,267.75 38.25,267.75 38.25,363.375 57.375,363.375 57.375,325.125 
			459,325.125 459,363.375 478.125,363.375 478.125,267.75 		"/>
		<rect x="382.5" y="344.25" width="19.125" height="153"/>
		<rect x="267.75" y="344.25" width="19.125" height="153"/>
		<rect x="344.25" y="344.25" width="19.125" height="133.875"/>
	</g>
</g>
<g>
</g>
<g>
</g>
<g>
</g>
<g>
</g>
<g>
</g>
<g>
</g>
<g>
</g>
<g>
</g>
<g>
</g>
<g>
</g>
<g>
</g>
<g>
</g>
<g>
</g>
<g>
</g>
<g>
</g>
</svg>
