<?xml version="1.0" encoding="iso-8859-1"?>
<!-- Generator: Adobe Illustrator 16.0.0, SVG Export Plug-In . SVG Version: 6.00 Build 0)  -->
<!DOCTYPE svg PUBLIC "-//W3C//DTD SVG 1.1//EN" "http://www.w3.org/Graphics/SVG/1.1/DTD/svg11.dtd">
<svg version="1.1" id="Capa_1" xmlns="http://www.w3.org/2000/svg" xmlns:xlink="http://www.w3.org/1999/xlink" x="0px" y="0px"
	 width="400px" height="400px" viewBox="0 0 400 400" style="enable-background:new 0 0 400 400;" xml:space="preserve">
<g>
	<g>
		<path d="M318.484,40.74L180.104,0H81.517c-11.25,0-20.37,9.119-20.37,20.369v359.263c0,11.25,9.12,20.368,20.37,20.368h98.588
			l138.38-40.74c15.25-4.26,20.369-9.119,20.369-20.369V61.109C338.854,49.859,332.428,44.233,318.484,40.74z M104.534,74.726
			c0-11.251,9.12-20.372,20.371-20.372h6.925c11.251,0,20.371,9.121,20.371,20.372V226.48c0,11.25-9.12,20.369-20.371,20.369h-6.925
			c-11.251,0-20.371-9.119-20.371-20.369V74.726z M128.366,322.898c-14.063,0-25.461-11.398-25.461-25.463
			c0-14.063,11.399-25.461,25.461-25.461c14.062,0,25.463,11.397,25.463,25.461C153.829,311.5,142.427,322.898,128.366,322.898z"/>
	</g>
</g>
<g>
</g>
<g>
</g>
<g>
</g>
<g>
</g>
<g>
</g>
<g>
</g>
<g>
</g>
<g>
</g>
<g>
</g>
<g>
</g>
<g>
</g>
<g>
</g>
<g>
</g>
<g>
</g>
<g>
</g>
</svg>
