<?xml version="1.0" encoding="iso-8859-1"?>
<!-- Generator: Adobe Illustrator 16.0.0, SVG Export Plug-In . SVG Version: 6.00 Build 0)  -->
<!DOCTYPE svg PUBLIC "-//W3C//DTD SVG 1.1//EN" "http://www.w3.org/Graphics/SVG/1.1/DTD/svg11.dtd">
<svg version="1.1" id="Capa_1" xmlns="http://www.w3.org/2000/svg" xmlns:xlink="http://www.w3.org/1999/xlink" x="0px" y="0px"
	 width="150.233px" height="150.233px" viewBox="0 0 150.233 150.233" style="enable-background:new 0 0 150.233 150.233;"
	 xml:space="preserve">
<g>
	<g>
		<path d="M67.706,72.825V22.919c0-4.915-3.985-8.9-8.902-8.9H8.897c-4.915,0-8.897,3.985-8.897,8.9V72.82
			c0,4.913,3.983,8.9,8.897,8.9h49.902C63.721,81.726,67.706,77.74,67.706,72.825z M19.966,72.439c-3.681,0-6.676-2.989-6.676-6.676
			c0-3.678,2.995-6.675,6.676-6.675c3.686,0,6.675,2.995,6.675,6.675C26.642,69.45,23.655,72.439,19.966,72.439z M19.966,54.637
			c-3.681,0-6.676-2.995-6.676-6.675c0-3.688,2.995-6.677,6.676-6.677c3.686,0,6.675,2.991,6.675,6.677
			C26.642,51.646,23.655,54.637,19.966,54.637z M19.966,36.833c-3.681,0-6.676-2.99-6.676-6.675c0-3.682,2.995-6.677,6.676-6.677
			c3.686,0,6.675,2.995,6.675,6.677C26.642,33.843,23.655,36.833,19.966,36.833z M46.672,72.439c-3.682,0-6.676-2.989-6.676-6.676
			c0-3.678,2.994-6.675,6.676-6.675c3.688,0,6.675,2.995,6.675,6.675C53.347,69.45,50.36,72.439,46.672,72.439z M46.672,54.637
			c-3.682,0-6.676-2.995-6.676-6.675c0-3.688,2.994-6.677,6.676-6.677c3.688,0,6.675,2.991,6.675,6.677
			C53.347,51.646,50.36,54.637,46.672,54.637z M46.672,36.833c-3.682,0-6.676-2.99-6.676-6.675c0-3.682,2.994-6.677,6.676-6.677
			c3.688,0,6.675,2.995,6.675,6.677C53.347,33.843,50.36,36.833,46.672,36.833z"/>
		<path d="M147.604,85.585l-35.411-35.162c-3.483-3.462-9.12-3.441-12.583,0.044l-35.165,35.41
			c-3.464,3.483-3.444,9.12,0.042,12.587l35.411,35.163c3.485,3.465,9.122,3.446,12.582-0.039l35.172-35.411
			C151.111,94.689,151.094,89.05,147.604,85.585z M103.937,64.968c2.594-2.612,6.83-2.628,9.444-0.033
			c2.613,2.598,2.625,6.829,0.034,9.441c-2.601,2.616-6.827,2.63-9.444,0.033C101.361,71.814,101.344,67.584,103.937,64.968z
			 M88.323,99.642c-2.596,2.613-6.825,2.632-9.439,0.034c-2.613-2.594-2.634-6.827-0.034-9.444c2.592-2.609,6.827-2.628,9.439-0.031
			C90.905,92.798,90.917,97.029,88.323,99.642z M91.391,77.6c2.599-2.612,6.832-2.626,9.441-0.032
			c2.614,2.594,2.631,6.827,0.032,9.441c-2.591,2.614-6.82,2.632-9.439,0.036C88.812,84.449,88.798,80.213,91.391,77.6z
			 M107.27,118.46c-2.596,2.614-6.822,2.63-9.441,0.032c-2.611-2.594-2.628-6.825-0.034-9.443c2.592-2.61,6.832-2.624,9.443-0.032
			C109.852,111.614,109.865,115.849,107.27,118.46z M119.815,105.827c-2.596,2.612-6.825,2.633-9.443,0.032
			c-2.609-2.591-2.626-6.825-0.032-9.439c2.596-2.616,6.827-2.627,9.439-0.036C122.397,98.982,122.413,103.213,119.815,105.827z
			 M132.361,93.195c-2.596,2.613-6.825,2.632-9.441,0.034c-2.614-2.597-2.633-6.827-0.034-9.441c2.596-2.612,6.829-2.63,9.439-0.037
			C134.943,86.35,134.957,90.581,132.361,93.195z"/>
	</g>
</g>
<g>
</g>
<g>
</g>
<g>
</g>
<g>
</g>
<g>
</g>
<g>
</g>
<g>
</g>
<g>
</g>
<g>
</g>
<g>
</g>
<g>
</g>
<g>
</g>
<g>
</g>
<g>
</g>
<g>
</g>
</svg>
