<?xml version="1.0" encoding="iso-8859-1"?>
<!-- Generator: Adobe Illustrator 16.0.0, SVG Export Plug-In . SVG Version: 6.00 Build 0)  -->
<!DOCTYPE svg PUBLIC "-//W3C//DTD SVG 1.1//EN" "http://www.w3.org/Graphics/SVG/1.1/DTD/svg11.dtd">
<svg version="1.1" id="Capa_1" xmlns="http://www.w3.org/2000/svg" xmlns:xlink="http://www.w3.org/1999/xlink" x="0px" y="0px"
	 width="493.507px" height="493.508px" viewBox="0 0 493.507 493.508" style="enable-background:new 0 0 493.507 493.508;"
	 xml:space="preserve">
<g>
	<path d="M413.422,10.285v35.987c0,5.677-4.604,10.282-10.284,10.282h-26.994v15.424H165.342c-5.678,0-10.282,4.604-10.282,10.282
		v15.421h16.71v16.284h-16.71v22.277h16.71v16.284h-16.71v19.707h16.71v16.281h-16.71v22.281h16.71v16.281h-16.71v24.846
		c0,5.681,4.604,10.278,10.282,10.278H284.81v-56.902h-23.613V191.68h81.492v13.619h-20.782v56.914h54.231v28.277h26.994
		c5.674,0,10.284,4.599,10.284,10.285v35.984c0,5.681-4.61,10.285-10.284,10.285H198.342c-5.677,0-10.285-4.604-10.285-10.285
		v-16.709h-84.409c-5.677,0-10.285-4.6-10.285-10.285v-82.683H80.085v-16.281h13.278v-22.281H80.085V172.24h13.278v-19.707H80.085
		v-16.284h13.278v-22.277H80.085V97.69h13.278V26.995c0-5.677,4.607-10.285,10.285-10.285h84.403v-6.425
		C188.051,4.604,192.659,0,198.336,0h204.796C408.818,0,413.422,4.604,413.422,10.285z M321.913,369.683h-37.273v89.542h-18.643
		v20.996h18.637h37.273h25.073v-20.996h-25.073v-89.542H321.913z M364.972,444.661h-3.422c-5.681,0-10.279,4.604-10.279,10.284
		v28.277c0,5.681,4.599,10.285,10.279,10.285h3.422c5.675,0,10.285-4.604,10.285-10.285v-28.277
		C375.257,449.266,370.647,444.661,364.972,444.661z M250.569,444.661h-3.419c-5.677,0-10.285,4.604-10.285,10.284v28.277
		c0,5.681,4.607,10.285,10.285,10.285h3.419c5.68,0,10.285-4.604,10.285-10.285v-28.277
		C260.86,449.266,256.25,444.661,250.569,444.661z M401.318,91.812H217.014c-6.682,0-12.105,5.423-12.105,12.105v62.542
		c0,6.682,5.423,12.105,12.105,12.105h184.304c6.685,0,12.104-5.423,12.104-12.105v-62.542
		C413.422,97.235,408.002,91.812,401.318,91.812z"/>
</g>
<g>
</g>
<g>
</g>
<g>
</g>
<g>
</g>
<g>
</g>
<g>
</g>
<g>
</g>
<g>
</g>
<g>
</g>
<g>
</g>
<g>
</g>
<g>
</g>
<g>
</g>
<g>
</g>
<g>
</g>
</svg>
