<?xml version="1.0" encoding="iso-8859-1"?>
<!-- Generator: Adobe Illustrator 16.0.0, SVG Export Plug-In . SVG Version: 6.00 Build 0)  -->
<!DOCTYPE svg PUBLIC "-//W3C//DTD SVG 1.1//EN" "http://www.w3.org/Graphics/SVG/1.1/DTD/svg11.dtd">
<svg version="1.1" id="Capa_1" xmlns="http://www.w3.org/2000/svg" xmlns:xlink="http://www.w3.org/1999/xlink" x="0px" y="0px"
	 width="504.257px" height="504.257px" viewBox="0 0 504.257 504.257" style="enable-background:new 0 0 504.257 504.257;"
	 xml:space="preserve">
<g>
	<g>
		<path d="M279.617,11.388c-15.184-15.184-39.798-15.184-54.982,0L31.359,204.664c-15.184,15.184-10.086,27.491,11.389,27.491h14.56
			v259.862c0,6.763,5.478,12.24,12.24,12.24H196.03V369.616c0-6.763,5.483-12.239,12.24-12.239h87.718
			c6.756,0,12.239,5.477,12.239,12.239v134.641H434.71c6.763,0,12.24-5.478,12.24-12.24V232.155h14.56
			c21.469,0,26.573-12.308,11.389-27.491L279.617,11.388z"/>
	</g>
</g>
<g>
</g>
<g>
</g>
<g>
</g>
<g>
</g>
<g>
</g>
<g>
</g>
<g>
</g>
<g>
</g>
<g>
</g>
<g>
</g>
<g>
</g>
<g>
</g>
<g>
</g>
<g>
</g>
<g>
</g>
</svg>
