<?xml version="1.0" encoding="iso-8859-1"?>
<!-- Generator: Adobe Illustrator 16.0.0, SVG Export Plug-In . SVG Version: 6.00 Build 0)  -->
<!DOCTYPE svg PUBLIC "-//W3C//DTD SVG 1.1//EN" "http://www.w3.org/Graphics/SVG/1.1/DTD/svg11.dtd">
<svg version="1.1" id="Capa_1" xmlns="http://www.w3.org/2000/svg" xmlns:xlink="http://www.w3.org/1999/xlink" x="0px" y="0px"
	 width="585.225px" height="585.225px" viewBox="0 0 585.225 585.225" style="enable-background:new 0 0 585.225 585.225;"
	 xml:space="preserve">
<g>
	<g id="Layer_1_118_">
		<g>
			<path d="M499.8,75.862H85.425C38.25,75.862,0,114.112,0,161.287v262.65c0,47.175,38.25,85.425,85.425,85.425H499.8
				c47.175,0,85.425-38.25,85.425-85.425v-262.65C585.225,114.112,546.975,75.862,499.8,75.862z M534.225,422.662
				c0,19.125-15.3,34.425-34.425,34.425H85.425C66.3,457.087,51,441.787,51,422.662V161.287c0-19.125,15.3-34.425,34.425-34.425
				H499.8c19.125,0,34.425,15.3,34.425,34.425V422.662z"/>
			<path d="M209.1,263.287c11.475-8.925,19.125-22.95,19.125-39.525c0-26.775-21.675-49.725-49.725-49.725
				c-26.775,0-49.725,21.675-49.725,49.725c0,15.3,7.65,29.325,19.125,38.25c-24.225,11.475-40.8,35.7-40.8,63.75v63.75
				c0,10.199,8.925,19.125,19.125,19.125H229.5c10.2,0,16.575-8.926,16.575-19.125v-63.75
				C248.625,298.987,233.325,274.763,209.1,263.287z"/>
			<path d="M290.7,233.962h105.824c14.025,0,26.775-11.475,26.775-26.775c0-15.3-11.475-26.775-26.775-26.775H290.7
				c-14.025,0-26.775,11.475-26.775,26.775C263.925,222.487,275.4,233.962,290.7,233.962z"/>
			<path d="M448.8,265.837H290.7c-14.025,0-26.775,11.475-26.775,26.775s11.475,26.775,26.775,26.775h159.375
				c14.024,0,26.774-11.476,26.774-26.775S464.1,265.837,448.8,265.837z"/>
			<path d="M448.8,349.987H290.7c-15.3,0-26.775,12.75-26.775,26.775c0,14.024,11.475,26.774,26.775,26.774h159.375
				c14.024,0,26.774-11.475,26.774-26.774C476.85,361.462,464.1,349.987,448.8,349.987z"/>
		</g>
	</g>
</g>
<g>
</g>
<g>
</g>
<g>
</g>
<g>
</g>
<g>
</g>
<g>
</g>
<g>
</g>
<g>
</g>
<g>
</g>
<g>
</g>
<g>
</g>
<g>
</g>
<g>
</g>
<g>
</g>
<g>
</g>
</svg>
