<?xml version="1.0" encoding="iso-8859-1"?>
<!-- Generator: Adobe Illustrator 18.1.1, SVG Export Plug-In . SVG Version: 6.00 Build 0)  -->
<svg version="1.1" id="Capa_1" xmlns="http://www.w3.org/2000/svg" xmlns:xlink="http://www.w3.org/1999/xlink" x="0px" y="0px"
	 viewBox="0 0 51.468 51.468" style="enable-background:new 0 0 51.468 51.468;" xml:space="preserve">
<g>
	<path style="fill:#030104;" d="M51.466,45.864c0-13.854,0-27.707,0-41.562c0-2.193-0.025-4.3-5.296-4.3
		c-13.508,0-27.016,0-40.524,0C2.06,0.002,0,0.082,0,4.821c0,13.508,0,27.016,0,40.524c0,5.807,0.177,6.122,5.126,6.122
		c13.855,0,27.708,0,41.564,0C51.717,51.468,51.466,51.059,51.466,45.864z M11.785,6.872l2.484-1.905
		c0.444-0.341,1.005-0.491,1.56-0.417c0.554,0.073,1.057,0.364,1.397,0.808l0.699,0.912l-5.83,4.47l-0.699-0.912
		C10.687,8.904,10.861,7.581,11.785,6.872z M37.43,46.79c0,0.646-0.523,1.169-1.17,1.169c-8.488,0-16.076,0-24.563,0
		c-0.645,0-1.169-0.523-1.169-1.169c0-1.271,0-2.237,0-3.508c0-0.646,0.524-1.17,1.169-1.17c0.374,0,0.748,0,1.128,0
		c0.646,0,0.826-0.399,0.484-0.946c-3.618-5.801-0.607-16.056,5.803-18.502c0.604-0.23,0.867-0.798,0.539-1.354
		c-1.695-2.885-3.81-5.784-5.741-8.531l5.646-4.331c4.625,6.332,12.337,15.914,13.083,17.048l-1.921,1.364l1.489,1.942
		c0.21,0.273,0.303,0.619,0.258,0.962c-0.045,0.342-0.225,0.652-0.498,0.862l-0.547,0.419c-0.57,0.437-1.387,0.329-1.824-0.241
		l-1.563-2.038l-2.005,1.424c-0.677-0.805-1.906-2.373-2.999-3.849c-0.385-0.519-1.193-0.794-1.785-0.537
		c-3.829,1.662-6.22,5.322-6.181,8.944c0.092,8.59,10.992,7.448,21.2,7.287c0.644-0.011,1.167,0.511,1.167,1.157
		C37.43,44.249,37.43,45.462,37.43,46.79z M35.259,35.794c-3.271,2.278-6.439,3.385-7.077,2.471c-0.636-0.915,1.5-3.503,4.772-5.781
		c3.271-2.279,6.439-3.385,7.076-2.471C40.669,30.926,38.531,33.516,35.259,35.794z"/>
</g>
<g>
</g>
<g>
</g>
<g>
</g>
<g>
</g>
<g>
</g>
<g>
</g>
<g>
</g>
<g>
</g>
<g>
</g>
<g>
</g>
<g>
</g>
<g>
</g>
<g>
</g>
<g>
</g>
<g>
</g>
</svg>
