<?xml version="1.0" encoding="iso-8859-1"?>
<!-- Generator: Adobe Illustrator 18.1.1, SVG Export Plug-In . SVG Version: 6.00 Build 0)  -->
<svg version="1.1" id="Capa_1" xmlns="http://www.w3.org/2000/svg" xmlns:xlink="http://www.w3.org/1999/xlink" x="0px" y="0px"
	 viewBox="0 0 241.66 241.66" style="enable-background:new 0 0 241.66 241.66;" xml:space="preserve">
<g id="Like_2">
	<path style="fill-rule:evenodd;clip-rule:evenodd;" d="M208.632,133.579c10.345,0.472,19.121-7.677,19.574-18.203
		c0.453-10.526-6.821-19.989-17.174-20.444l-68.73-8.63c0,0,14.323-23.958,14.323-59.455C156.625,3.184,139.72,0,129.778,0
		c-7.821-0.003-9.927,15.151-9.927,15.151h-0.016c-1.771,9.717-4.077,18.203-12.09,33.827C98.775,66.49,86.559,64.847,72.297,80.445
		c-2.517,2.747-5.899,7.281-9.195,12.86c-0.269,0.295-0.52,0.708-0.763,1.289c-0.294,0.692-0.646,1.172-0.956,1.812
		c-0.546,1.003-1.083,2.006-1.611,3.059c-8.827,8.827-22.579,7.925-28.435,7.925c-11.746,0-17.898,6.825-17.898,17.898
		l-0.004,81.828c0,12.423,5.083,16.613,17.903,16.613h17.898c9.011,0,16.067,5.166,26.848,8.949
		c14.767,5.116,36.821,8.956,74.811,8.956c6.644,0,27.251,0.025,27.251,0.025c6.309,0,11.377-2.882,15.034-6.362
		c1.392-1.323,2.844-3.245,3.465-6.995c0.101-0.581,0.209-3.017,0.193-3.346c0.477-10.728-6.008-14.612-9.682-15.835
		c0.1-0.034,0.034-0.126,0.234-0.118l11.663,0.522c10.353,0.472,20.572-6.986,20.572-19.669c0-10.517-8.525-17.934-18.844-18.439
		l6.184,0.287c10.352,0.455,19.103-7.694,19.582-18.22C226.998,142.959,218.977,134.052,208.632,133.579z"/>
</g>
<g>
</g>
<g>
</g>
<g>
</g>
<g>
</g>
<g>
</g>
<g>
</g>
<g>
</g>
<g>
</g>
<g>
</g>
<g>
</g>
<g>
</g>
<g>
</g>
<g>
</g>
<g>
</g>
<g>
</g>
</svg>
