<?xml version="1.0" encoding="iso-8859-1"?>
<!-- Generator: Adobe Illustrator 18.1.1, SVG Export Plug-In . SVG Version: 6.00 Build 0)  -->
<svg version="1.1" id="Capa_1" xmlns="http://www.w3.org/2000/svg" xmlns:xlink="http://www.w3.org/1999/xlink" x="0px" y="0px"
	 viewBox="0 0 18 18" style="enable-background:new 0 0 18 18;" xml:space="preserve">
<g>
	<g>
		<path style="fill:#010002;" d="M9,0C4.027,0,0,4.027,0,9c0,4.971,4.027,8.998,9,9c4.971-0.002,8.998-4.029,9-9
			C17.998,4.027,13.971,0,9,0z M9,15.883C5.199,15.874,2.124,12.799,2.116,9C2.124,5.199,5.199,2.124,9,2.116
			C12.799,2.124,15.874,5.199,15.883,9C15.874,12.799,12.799,15.874,9,15.883z"/>
		<path style="fill:#010002;" d="M12.158,7.591C12.152,6.913,12.07,6.1,11.601,5.332c-0.457-0.779-1.438-1.359-2.602-1.333
			C7.834,3.973,6.851,4.553,6.394,5.332C5.924,6.1,5.842,6.913,5.838,7.591c0,0.144,0.007,0.278,0.015,0.409H5v5h8V8h-0.855
			C12.152,7.869,12.158,7.732,12.158,7.591z M10.139,8H7.856c-0.01-0.131-0.019-0.268-0.019-0.409
			C7.833,7.113,7.93,6.633,8.091,6.393C8.264,6.166,8.362,6.028,9,5.999c0.637,0.026,0.73,0.165,0.904,0.394
			c0.162,0.24,0.259,0.724,0.253,1.198C10.157,7.736,10.148,7.871,10.139,8z"/>
	</g>
</g>
<g>
</g>
<g>
</g>
<g>
</g>
<g>
</g>
<g>
</g>
<g>
</g>
<g>
</g>
<g>
</g>
<g>
</g>
<g>
</g>
<g>
</g>
<g>
</g>
<g>
</g>
<g>
</g>
<g>
</g>
</svg>
