<?xml version="1.0" encoding="iso-8859-1"?>
<!-- Generator: Adobe Illustrator 18.1.1, SVG Export Plug-In . SVG Version: 6.00 Build 0)  -->
<svg version="1.1" id="Capa_1" xmlns="http://www.w3.org/2000/svg" xmlns:xlink="http://www.w3.org/1999/xlink" x="0px" y="0px"
	 viewBox="0 0 612 612" style="enable-background:new 0 0 612 612;" xml:space="preserve">
<g>
	<g>
		<path style="fill:#010002;" d="M336.294,187.272c7.956,8.16,12.138,17.952,12.546,29.376v36.72h-83.844v-36.72
			c0-11.424,4.08-21.216,12.24-29.376s17.952-12.24,29.375-12.24C318.444,175.032,328.338,179.112,336.294,187.272z M612,306
			c0,28.152-3.672,55.284-11.016,81.396c-7.347,26.109-17.646,50.487-30.906,73.134c-13.26,22.644-29.172,43.248-47.736,61.812
			c-18.562,18.564-39.168,34.479-61.812,47.736c-22.646,13.26-47.022,23.562-73.136,30.906C361.284,608.328,334.152,612,306,612
			s-55.284-3.672-81.396-11.016c-26.112-7.347-50.49-17.646-73.134-30.906s-43.248-29.172-61.812-47.736
			c-18.564-18.562-34.476-39.168-47.736-61.812c-13.26-22.646-23.562-47.022-30.906-73.135C3.672,361.284,0,334.152,0,306
			s3.672-55.284,11.016-81.396s17.646-50.49,30.906-73.134s29.172-43.248,47.736-61.812s39.168-34.476,61.812-47.736
			s47.022-23.562,73.134-30.906S277.848,0,306,0c42.024,0,81.702,8.058,119.034,24.174s69.768,37.944,97.308,65.484
			s49.368,59.976,65.484,97.308S612,263.976,612,306z M457.777,264.384L457.777,264.384c-0.001-3.264-1.123-5.916-3.367-7.956
			c-2.244-2.04-4.998-3.06-8.262-3.06h-15.912h-22.032V217.26v-0.612c0-13.872-2.652-26.928-7.956-39.168
			s-12.546-22.95-21.726-32.13c-9.183-9.18-19.992-16.422-32.438-21.726c-12.444-5.304-25.602-7.956-39.475-7.956
			c-13.873,0-26.927,2.652-39.167,7.956s-22.95,12.546-32.13,21.726s-16.422,19.89-21.726,32.13
			c-5.304,12.24-7.956,25.296-7.956,39.168v36.72h-18.36h-15.91c-3.264,0-5.916,1.02-7.956,3.06s-3.06,4.692-3.06,7.956v165.24
			c0,3.264,1.02,6.018,3.06,8.262s4.692,3.366,7.956,3.366h274.79c3.264,0,6.018-1.122,8.262-3.366s3.366-4.998,3.366-8.262
			L457.777,264.384L457.777,264.384z"/>
	</g>
</g>
<g>
</g>
<g>
</g>
<g>
</g>
<g>
</g>
<g>
</g>
<g>
</g>
<g>
</g>
<g>
</g>
<g>
</g>
<g>
</g>
<g>
</g>
<g>
</g>
<g>
</g>
<g>
</g>
<g>
</g>
</svg>
