<?xml version="1.0" encoding="iso-8859-1"?>
<!-- Generator: Adobe Illustrator 18.1.1, SVG Export Plug-In . SVG Version: 6.00 Build 0)  -->
<svg version="1.1" id="Capa_1" xmlns="http://www.w3.org/2000/svg" xmlns:xlink="http://www.w3.org/1999/xlink" x="0px" y="0px"
	 viewBox="0 0 71.577 71.577" style="enable-background:new 0 0 71.577 71.577;" xml:space="preserve">
<g>
	<g>
		<polygon style="fill:#010002;" points="25.052,57.523 17.894,64.681 53.683,64.681 46.525,57.523 		"/>
		<path style="fill:#010002;" d="M0,6.896v46.525h71.577V6.896H0z M46.811,40.291c0,1.013-0.823,1.84-1.84,1.84H26.594
			c-1.006,0-1.836-0.823-1.836-1.84V27.432c0-1.009,0.827-1.836,1.836-1.836h1.693v-2.981c0-4.137,3.357-7.501,7.501-7.501
			s7.501,3.364,7.501,7.501v2.981h1.693c1.006,0,1.836,0.827,1.836,1.836L46.811,40.291L46.811,40.291z"/>
		<path style="fill:#010002;" d="M35.789,18.327c-2.362,0-4.284,1.922-4.284,4.287v2.981h8.575v-2.981
			C40.072,20.249,38.151,18.327,35.789,18.327z"/>
	</g>
</g>
<g>
</g>
<g>
</g>
<g>
</g>
<g>
</g>
<g>
</g>
<g>
</g>
<g>
</g>
<g>
</g>
<g>
</g>
<g>
</g>
<g>
</g>
<g>
</g>
<g>
</g>
<g>
</g>
<g>
</g>
</svg>
