<?xml version="1.0" encoding="iso-8859-1"?>
<!-- Generator: Adobe Illustrator 16.0.0, SVG Export Plug-In . SVG Version: 6.00 Build 0)  -->
<!DOCTYPE svg PUBLIC "-//W3C//DTD SVG 1.1//EN" "http://www.w3.org/Graphics/SVG/1.1/DTD/svg11.dtd">
<svg version="1.1" id="Capa_1" xmlns="http://www.w3.org/2000/svg" xmlns:xlink="http://www.w3.org/1999/xlink" x="0px" y="0px"
	 width="369.999px" height="369.999px" viewBox="0 0 369.999 369.999" style="enable-background:new 0 0 369.999 369.999;"
	 xml:space="preserve">
<g>
	<g>
		<g>
			<path d="M363.843,322.374l-34.152-34.152c-3.771-3.771-8.616-5.804-13.548-6.112l-11.603-11.601
				c17.237-27.401,13.938-64.115-9.897-87.952c-27.669-27.667-72.688-27.667-100.354,0c-27.666,27.668-27.666,72.688,0.002,100.354
				c23.834,23.836,60.547,27.134,87.949,9.898l11.603,11.602c0.311,4.933,2.343,9.776,6.112,13.545l34.152,34.156
				c8.213,8.211,21.524,8.209,29.734-0.002C372.051,343.899,372.053,330.584,363.843,322.374z M279.775,268.042
				c-19.471,19.471-51.147,19.471-70.619,0c-19.474-19.472-19.472-51.148,0-70.62c19.47-19.468,51.146-19.468,70.619,0.002
				C299.243,216.893,299.243,248.573,279.775,268.042z"/>
			<path d="M280.168,310.924l-0.225-0.226h-3.425c-10.349,4.359-21.521,6.631-32.911,6.631c-11.518,0-22.673-2.289-32.959-6.631
				H25.778V88.555h305.918v184.729c2.459,1.461,4.755,3.213,6.807,5.267l18.975,18.975V33.214c0-11.845-9.638-21.483-21.482-21.483
				H21.48C9.637,11.731,0,21.369,0,33.214v281.785c0,11.845,9.637,21.482,21.48,21.482h276.811l-8.859-8.857
				C284.814,323.004,281.625,317.213,280.168,310.924z M308.108,47.805c0-4.381,3.553-7.932,7.933-7.932h7.932
				c4.382,0,7.934,3.551,7.934,7.932v8.99c0,4.381-3.552,7.932-7.934,7.932h-7.932c-4.38,0-7.933-3.551-7.933-7.932V47.805z
				 M271.224,47.805c0-4.381,3.553-7.932,7.934-7.932h7.935c4.379,0,7.932,3.551,7.932,7.932v8.99c0,4.381-3.553,7.932-7.932,7.932
				h-7.935c-4.381,0-7.934-3.551-7.934-7.932V47.805z M234.34,47.805c0-4.381,3.551-7.932,7.933-7.932h7.934
				c4.38,0,7.933,3.551,7.933,7.932v8.99c0,4.381-3.553,7.932-7.933,7.932h-7.934c-4.382,0-7.933-3.551-7.933-7.932V47.805z"/>
			<path d="M184.078,132.163c0-6.292-5.1-11.393-11.392-11.393H54.44c-6.291,0-11.393,5.102-11.393,11.393
				c0,6.292,5.102,11.395,11.393,11.395h118.246C178.979,143.557,184.078,138.455,184.078,132.163z"/>
			<path d="M54.44,198.247h63.555c6.292,0,11.395-5.102,11.395-11.395c0-6.291-5.103-11.393-11.395-11.393H54.44
				c-6.291,0-11.393,5.102-11.393,11.393C43.048,193.145,48.149,198.247,54.44,198.247z"/>
			<path d="M54.44,252.936h90.901c6.29,0,11.393-5.103,11.393-11.396c0-6.291-5.103-11.394-11.393-11.394H54.44
				c-6.291,0-11.393,5.103-11.393,11.394C43.048,247.834,48.149,252.936,54.44,252.936z"/>
		</g>
	</g>
</g>
<g>
</g>
<g>
</g>
<g>
</g>
<g>
</g>
<g>
</g>
<g>
</g>
<g>
</g>
<g>
</g>
<g>
</g>
<g>
</g>
<g>
</g>
<g>
</g>
<g>
</g>
<g>
</g>
<g>
</g>
</svg>
