<?xml version="1.0" encoding="iso-8859-1"?>
<!-- Generator: Adobe Illustrator 18.1.1, SVG Export Plug-In . SVG Version: 6.00 Build 0)  -->
<svg version="1.1" id="Capa_1" xmlns="http://www.w3.org/2000/svg" xmlns:xlink="http://www.w3.org/1999/xlink" x="0px" y="0px"
	 viewBox="0 0 612 612" style="enable-background:new 0 0 612 612;" xml:space="preserve">
<g>
	<g>
		<path d="M528.932,0H83.062c-33.597,0-60.92,27.329-60.92,60.926v438.177c0,33.591,27.323,60.926,60.92,60.926h445.87
			c33.591,0,60.926-27.335,60.926-60.926V60.926C589.858,27.329,562.529,0,528.932,0z M560.254,499.103
			c0,17.274-14.049,31.322-31.322,31.322H83.062c-17.267,0-31.316-14.049-31.316-31.322V60.926
			c0-17.274,14.049-31.322,31.316-31.322h445.87c17.267,0,31.322,14.049,31.322,31.322V499.103z"/>
		<path d="M392.18,602.132c0,5.45,4.418,9.868,9.868,9.868h84.199c5.45,0,9.868-4.418,9.868-9.868v-22.361H392.18V602.132z"/>
		<path d="M115.878,602.132c0,5.45,4.418,9.868,9.868,9.868h84.199c5.45,0,9.868-4.418,9.868-9.868v-22.361H115.878V602.132z"/>
		<path d="M533.275,123.352h-22.367h-12.486c-5.456,0-9.868,4.418-9.874,9.868l0.006,59.533c-0.006,5.45,4.412,9.868,9.868,9.862
			h12.486h22.367c5.45,0,9.868-4.412,9.868-9.862V133.22C543.149,127.771,538.731,123.352,533.275,123.352z"/>
		<path d="M477.473,447.738c-5.587-5.6-8.662-13.03-8.656-20.942v-59.508c0.012-16.324,13.286-29.598,29.591-29.61h17.442V222.357
			h-17.436c-7.912,0-15.342-3.081-20.942-8.681c-5.587-5.6-8.662-13.036-8.656-20.942v-59.508
			c0.012-16.324,13.286-29.598,29.591-29.61h17.442c0-18.542,0-29.604,0-29.604H96.155v412.01h419.697c0,0,0-11.068,0-29.598
			h-17.436C490.504,456.419,483.067,453.332,477.473,447.738z M210.377,351.559c-34.06,0-61.676-27.61-61.676-61.676
			c0-34.053,27.617-61.67,61.676-61.67s61.676,27.616,61.676,61.67C272.053,323.949,244.436,351.559,210.377,351.559z"/>
		<circle cx="210.377" cy="289.883" r="20.967"/>
		<path d="M533.275,357.415h-22.367l-12.486-0.006c-5.456,0.006-9.868,4.425-9.874,9.868l0.006,59.533
			c-0.006,5.45,4.412,9.868,9.868,9.868h12.486h22.367c5.45,0,9.868-4.418,9.868-9.868v-59.533
			C543.149,361.827,538.731,357.415,533.275,357.415z"/>
	</g>
</g>
<g>
</g>
<g>
</g>
<g>
</g>
<g>
</g>
<g>
</g>
<g>
</g>
<g>
</g>
<g>
</g>
<g>
</g>
<g>
</g>
<g>
</g>
<g>
</g>
<g>
</g>
<g>
</g>
<g>
</g>
</svg>
