<?xml version="1.0" encoding="iso-8859-1"?>
<!-- Generator: Adobe Illustrator 16.0.0, SVG Export Plug-In . SVG Version: 6.00 Build 0)  -->
<!DOCTYPE svg PUBLIC "-//W3C//DTD SVG 1.1//EN" "http://www.w3.org/Graphics/SVG/1.1/DTD/svg11.dtd">
<svg version="1.1" id="Capa_1" xmlns="http://www.w3.org/2000/svg" xmlns:xlink="http://www.w3.org/1999/xlink" x="0px" y="0px"
	 width="370px" height="370px" viewBox="0 0 370 370" style="enable-background:new 0 0 370 370;" xml:space="preserve">
<g>
	<g>
		<g>
			<path d="M355,11.757H15c-8.284,0-15,6.716-15,15v246.979c0,8.285,6.716,15,15,15h119.664l-12.799,43.521h-15.508
				c-3.938,0-7.131,3.192-7.131,7.13v11.726c0,3.938,3.193,7.131,7.131,7.131h157.287c3.938,0,7.131-3.192,7.131-7.131v-11.726
				c0-3.938-3.191-7.13-7.131-7.13h-15.51l-12.799-43.521H355c8.284,0,15-6.715,15-15V26.757C370,18.473,363.284,11.757,355,11.757z
				 M340,233.735H30V41.757h310V233.735z"/>
			<path d="M167.092,166.133c0.836,2.202,2.994,3.616,5.346,3.503c2.354-0.113,4.365-1.728,4.984-4l3.129-11.473l26.765,26.763
				c2.123,2.124,5.565,2.124,7.688,0l6.729-6.728c2.123-2.124,2.123-5.566,0-7.69l-26.763-26.763l11.472-3.129
				c2.271-0.619,3.89-2.631,4-4.984c0.114-2.354-1.302-4.511-3.502-5.347l-52.897-20.063c-2-0.759-4.26-0.273-5.773,1.239
				c-1.513,1.512-1.998,3.772-1.24,5.773L167.092,166.133z"/>
		</g>
	</g>
</g>
<g>
</g>
<g>
</g>
<g>
</g>
<g>
</g>
<g>
</g>
<g>
</g>
<g>
</g>
<g>
</g>
<g>
</g>
<g>
</g>
<g>
</g>
<g>
</g>
<g>
</g>
<g>
</g>
<g>
</g>
</svg>
