<?xml version="1.0" encoding="iso-8859-1"?>
<!-- Generator: Adobe Illustrator 16.0.0, SVG Export Plug-In . SVG Version: 6.00 Build 0)  -->
<!DOCTYPE svg PUBLIC "-//W3C//DTD SVG 1.1//EN" "http://www.w3.org/Graphics/SVG/1.1/DTD/svg11.dtd">
<svg version="1.1" id="Capa_1" xmlns="http://www.w3.org/2000/svg" xmlns:xlink="http://www.w3.org/1999/xlink" x="0px" y="0px"
	 width="27.083px" height="27.083px" viewBox="0 0 27.083 27.083" style="enable-background:new 0 0 27.083 27.083;"
	 xml:space="preserve">
<g>
	<g>
		<path style="fill:#333333;" d="M20.286,11.519l-2,2.967v0.034h2.95v-2.952c0-0.617,0.032-1.234,0.066-1.885h-0.066
			C20.903,10.368,20.619,10.919,20.286,11.519z"/>
		<path style="fill:#333333;" d="M11.537,13.102c-0.767,0-1.451,0.466-1.768,1.117c-0.083,0.167-0.133,0.366-0.133,0.651
			c0.034,1.433,0.701,2.601,2.035,2.601h0.017c1.051,0,1.734-0.916,1.734-2.218C13.42,13.986,12.737,13.102,11.537,13.102z"/>
		<path style="fill:#333333;" d="M23.958,0H3.125C1.4,0,0,1.4,0,3.125v20.833c0,1.726,1.4,3.125,3.125,3.125h20.833
			c1.725,0,3.125-1.399,3.125-3.125V3.125C27.083,1.4,25.683,0,23.958,0z M5.681,18.821l-0.553-0.918
			c-0.151-0.244-0.282-0.489-0.413-0.74H4.696c-0.131,0.263-0.272,0.496-0.412,0.749L3.75,18.821H2.483l1.584-2.335l-1.529-2.232
			h1.284l0.543,0.861c0.151,0.235,0.283,0.469,0.413,0.705h0.019c0.141-0.254,0.262-0.489,0.404-0.723l0.505-0.844h1.257
			l-1.527,2.186l1.556,2.382H5.681z M11.687,19.005c-2.635,0-4.085-2.001-4.085-4.685c0-2.085,0.75-3.769,1.885-4.836
			C10.469,8.533,11.787,8,13.337,7.883c0.45-0.05,0.784-0.05,1.033-0.05v1.618c-0.3-0.017-0.634,0-1.033,0.05
			c-2.285,0.267-3.368,1.651-3.634,3.151h0.05c0.533-0.617,1.351-1.05,2.435-1.05c1.868,0,3.319,1.333,3.319,3.534
			C15.504,17.204,13.987,19.005,11.687,19.005z M24.571,16.07h-1.401v2.751h-1.934V16.07h-4.919v-1.332l4.435-6.753h2.418v6.535
			h1.401V16.07z"/>
	</g>
</g>
<g>
</g>
<g>
</g>
<g>
</g>
<g>
</g>
<g>
</g>
<g>
</g>
<g>
</g>
<g>
</g>
<g>
</g>
<g>
</g>
<g>
</g>
<g>
</g>
<g>
</g>
<g>
</g>
<g>
</g>
</svg>
