<?xml version="1.0" encoding="iso-8859-1"?>
<!-- Generator: Adobe Illustrator 16.0.0, SVG Export Plug-In . SVG Version: 6.00 Build 0)  -->
<!DOCTYPE svg PUBLIC "-//W3C//DTD SVG 1.1//EN" "http://www.w3.org/Graphics/SVG/1.1/DTD/svg11.dtd">
<svg version="1.1" id="Capa_1" xmlns="http://www.w3.org/2000/svg" xmlns:xlink="http://www.w3.org/1999/xlink" x="0px" y="0px"
	 width="31.933px" height="31.933px" viewBox="0 0 31.933 31.933" style="enable-background:new 0 0 31.933 31.933;"
	 xml:space="preserve">
<g>
	<g>
		<path d="M14.866,10.887c-0.191,1.561,0.923,2.984,2.486,3.173c1.559,0.189,2.979-0.926,3.17-2.487
			c0.188-1.562-0.925-2.983-2.484-3.171C16.474,8.213,15.055,9.325,14.866,10.887z"/>
		<path d="M14.409,21.309c0.01-2.104-1.595-3.079-2.675-3.225l-0.209-0.015c-0.596,0.002-1.3,0.004-2.012,0.006
			c0.62-0.791,1.847-2.271,1.949-2.433c0.237,0.358,0.528,0.706,0.886,1.024c0.863,0.771,1.942,1.234,3.227,1.391
			c0.699,0.085,2.974-0.129,3.524-0.234c0.621-0.133,0.955-0.385,1.177-0.715c0.293-0.564,0.265-1.202,0.265-1.202
			c-0.046-1.132-1.099-1.515-1.978-1.311c-1.312,0.296-3.074,0.476-4.023-0.36c-0.401-0.351-0.619-0.852-0.735-1.328
			c0.36-0.819,0.312-1.801-0.22-2.605c-0.831-1.255-2.435-1.452-3.779-0.77c-1.333,0.678-4.707,4.594-5.564,7.479
			c-0.002-0.001-0.005-0.001-0.007-0.001c-0.006,0.031-0.013,0.062-0.019,0.094c-0.09,0.32-0.148,0.629-0.167,0.916
			c-0.087,0.572-0.134,1.11-0.134,1.588l0.029,0.006c0.002,0.812,0.638,1.49,1.46,1.535c0.472,0.026,4.605,0.016,5.906,0.014
			c0.004,0.022,0.012,0.064,0.012,0.136c-0.006,1.188,0.001,5.512,0.004,7.517c0,0.57,0.463,1.023,1.034,1.023h1.023
			c0.272,0,0.536-0.102,0.73-0.295c0.193-0.194,0.303-0.453,0.302-0.729C14.411,26.809,14.403,22.493,14.409,21.309z"/>
		<path d="M3.093,8.228c0-0.854-0.693-1.545-1.547-1.545S0,7.374,0,8.228v15.447c0,0.796,0.609,1.453,1.385,1.535
			c0.001,0.003,0.007,0.011,0.008,0.011h0.556v3.603c0,0.568,0.448,1.029,1.017,1.029c0.57,0,1.017-0.461,1.017-1.029v-3.603h3.262
			v3.603c0,0.568,0.448,1.029,1.017,1.029c0.568,0,1.016-0.461,1.016-1.029v-3.603h1.017v-3.092h-7.2V8.228H3.093z"/>
		<path d="M30.915,18.503c-0.235-1.215-1.013-2.238-2.07-2.801v-0.985h1.481V7.933l-5.635-2.011V4.933H22.66v10.335h2.031v-0.551
			h1.062v0.713c-1.397,0.443-2.45,1.616-2.733,3.056h-6.535c-0.569,0-1.03,0.491-1.03,1.061c0,0.568,0.461,1.061,1.03,1.061h2.067
			v9.274h11.353v-9.274h0.998c0.567,0,1.03-0.482,1.03-1.052C31.933,18.987,31.48,18.51,30.915,18.503z"/>
		<polygon points="9.614,6.034 7.285,6.034 7.285,5.998 9.572,2.675 9.572,2.052 6.015,2.052 6.015,2.942 8.132,2.942 8.132,2.983 
			5.803,6.348 5.803,6.966 9.614,6.966 		"/>
		<polygon points="13.257,6.075 11.775,6.075 11.775,6.076 13.257,3.957 13.257,3.535 10.97,3.535 10.97,4.127 12.325,4.127 
			12.325,4.154 10.843,6.301 10.843,6.669 13.257,6.669 		"/>
		<polygon points="15.926,6.881 14.909,6.881 14.909,6.863 15.926,5.398 15.926,5.102 14.359,5.102 14.359,5.526 15.29,5.526 
			15.29,5.533 14.232,7.017 14.232,7.261 15.926,7.261 		"/>
	</g>
</g>
<g>
</g>
<g>
</g>
<g>
</g>
<g>
</g>
<g>
</g>
<g>
</g>
<g>
</g>
<g>
</g>
<g>
</g>
<g>
</g>
<g>
</g>
<g>
</g>
<g>
</g>
<g>
</g>
<g>
</g>
</svg>
