<?xml version="1.0" encoding="iso-8859-1"?>
<!-- Generator: Adobe Illustrator 16.0.0, SVG Export Plug-In . SVG Version: 6.00 Build 0)  -->
<!DOCTYPE svg PUBLIC "-//W3C//DTD SVG 1.1//EN" "http://www.w3.org/Graphics/SVG/1.1/DTD/svg11.dtd">
<svg version="1.1" id="Capa_1" xmlns="http://www.w3.org/2000/svg" xmlns:xlink="http://www.w3.org/1999/xlink" x="0px" y="0px"
	 width="792px" height="792px" viewBox="0 0 792 792" style="enable-background:new 0 0 792 792;" xml:space="preserve">
<g>
	<g id="_x34_8">
		<g>
			<path d="M396,270.363c-14.767,0-28.023,1.509-41.525,2.774v-100.55c0-0.693-0.286-1.305-0.286-1.999v-22.965h0.612
				c-0.163-1.428-0.489-2.814-0.489-4.283c0-30.022,25.372-54.415,55.395-54.415c28.512,0,51.273,22.231,53.518,50.214
				c-0.939,3.63-2.244,7.138-2.244,11.095c0,25.087,20.314,45.401,45.318,45.401c25.047,0,45.32-20.314,45.32-45.401
				c0-0.938-0.449-1.672-0.531-2.61h1.305c0.041-1.469,0.449-2.855,0.449-4.365C552.842,64.124,488.76,0,409.625,0
				C334.324,0,273.26,58.331,267.508,132.204c-1.428,2.692-2.366,6.282-2.366,11.625l-0.938,150.927
				C178.91,331.224,135.264,409.42,135.264,531.223C135.264,705.074,222.189,792,396,792c173.81,0,260.736-86.926,260.736-260.777
				S569.811,270.363,396,270.363z M450.701,641.399H349.825l13.992-101.733c-19.294-11.748-32.266-32.755-32.266-57.025
				c0-36.876,29.941-66.897,66.897-66.897c36.957,0,66.898,30.021,66.898,66.897c0,24.312-13.014,45.359-32.348,57.066
				L450.701,641.399z"/>
		</g>
	</g>
</g>
<g>
</g>
<g>
</g>
<g>
</g>
<g>
</g>
<g>
</g>
<g>
</g>
<g>
</g>
<g>
</g>
<g>
</g>
<g>
</g>
<g>
</g>
<g>
</g>
<g>
</g>
<g>
</g>
<g>
</g>
</svg>
