<?xml version="1.0" encoding="iso-8859-1"?>
<!-- Generator: Adobe Illustrator 16.0.0, SVG Export Plug-In . SVG Version: 6.00 Build 0)  -->
<!DOCTYPE svg PUBLIC "-//W3C//DTD SVG 1.1//EN" "http://www.w3.org/Graphics/SVG/1.1/DTD/svg11.dtd">
<svg version="1.1" id="Capa_1" xmlns="http://www.w3.org/2000/svg" xmlns:xlink="http://www.w3.org/1999/xlink" x="0px" y="0px"
	 width="792px" height="792px" viewBox="0 0 792 792" style="enable-background:new 0 0 792 792;" xml:space="preserve">
<g>
	<g id="_x34_9">
		<g>
			<path d="M566.539,270.65l-1.982-114.206h-0.176c0.132-0.837,0.265-1.629,0.265-2.466C564.645,68.885,495.715,0,410.667,0
				c-83.728,0-151.511,66.903-153.582,150.234c-0.705,2.774-1.233,5.946-1.233,9.954l-0.969,97.117
				c-92.008,39.111-139.091,123.235-139.091,254.354C115.792,698.494,209.209,792,396,792c186.834,0,280.208-93.462,280.208-280.341
				C676.252,394.767,639.652,314.431,566.539,270.65z M454.798,630.138H346.406l15.019-109.405
				c-20.701-12.597-34.663-35.146-34.663-61.221c0-39.684,32.196-71.924,71.88-71.924c39.684,0,71.879,32.197,71.879,71.924
				c0,26.074-14.006,48.668-34.75,61.265L454.798,630.138z M471.58,238.014c-23.388-4.008-48.141-6.651-75.58-6.651
				c-15.856,0-30.082,1.63-44.617,2.995V185.47c0-0.793-0.308-1.41-0.353-2.203v-24.621h0.925c-0.132-1.542-0.44-3.039-0.44-4.625
				c0-33.782,26.074-60.561,59.856-60.561c33.781,0,60.561,26.823,60.561,60.561c0,1.585-0.353,3.083-0.44,4.625h0.748
				L471.58,238.014z"/>
		</g>
	</g>
</g>
<g>
</g>
<g>
</g>
<g>
</g>
<g>
</g>
<g>
</g>
<g>
</g>
<g>
</g>
<g>
</g>
<g>
</g>
<g>
</g>
<g>
</g>
<g>
</g>
<g>
</g>
<g>
</g>
<g>
</g>
</svg>
