<?xml version="1.0" encoding="iso-8859-1"?>
<!-- Generator: Adobe Illustrator 16.0.0, SVG Export Plug-In . SVG Version: 6.00 Build 0)  -->
<!DOCTYPE svg PUBLIC "-//W3C//DTD SVG 1.1//EN" "http://www.w3.org/Graphics/SVG/1.1/DTD/svg11.dtd">
<svg version="1.1" id="Capa_1" xmlns="http://www.w3.org/2000/svg" xmlns:xlink="http://www.w3.org/1999/xlink" x="0px" y="0px"
	 width="516.375px" height="516.375px" viewBox="0 0 516.375 516.375" style="enable-background:new 0 0 516.375 516.375;"
	 xml:space="preserve">
<g>
	<g>
		<rect x="191.25" y="344.25" width="19.125" height="133.875"/>
		<rect x="114.75" y="344.25" width="19.125" height="153"/>
		<rect x="153" y="344.25" width="19.125" height="172.125"/>
		<path d="M344.25,133.875h95.625L325.125,0v114.75C325.125,126.225,334.688,133.875,344.25,133.875z"/>
		<rect x="76.5" y="344.25" width="19.125" height="172.125"/>
		<path d="M439.875,153H344.25c-21.037,0-38.25-17.212-38.25-38.25V0H114.75C93.712,0,76.5,17.212,76.5,38.25v248.625h363.375V153z"
			/>
		<rect x="229.5" y="344.25" width="19.125" height="172.125"/>
		<rect x="420.75" y="344.25" width="19.125" height="172.125"/>
		<polygon points="459,267.75 459,306 57.375,306 57.375,267.75 38.25,267.75 38.25,363.375 57.375,363.375 57.375,325.125 
			459,325.125 459,363.375 478.125,363.375 478.125,267.75 		"/>
		<rect x="267.75" y="344.25" width="19.125" height="153"/>
		<rect x="382.5" y="344.25" width="19.125" height="153"/>
		<rect x="306" y="344.25" width="19.125" height="172.125"/>
		<rect x="344.25" y="344.25" width="19.125" height="133.875"/>
	</g>
</g>
<g>
</g>
<g>
</g>
<g>
</g>
<g>
</g>
<g>
</g>
<g>
</g>
<g>
</g>
<g>
</g>
<g>
</g>
<g>
</g>
<g>
</g>
<g>
</g>
<g>
</g>
<g>
</g>
<g>
</g>
</svg>
