<?xml version="1.0" encoding="iso-8859-1"?>
<!-- Generator: Adobe Illustrator 16.0.0, SVG Export Plug-In . SVG Version: 6.00 Build 0)  -->
<!DOCTYPE svg PUBLIC "-//W3C//DTD SVG 1.1//EN" "http://www.w3.org/Graphics/SVG/1.1/DTD/svg11.dtd">
<svg version="1.1" id="Capa_1" xmlns="http://www.w3.org/2000/svg" xmlns:xlink="http://www.w3.org/1999/xlink" x="0px" y="0px"
	 width="30.68px" height="30.68px" viewBox="0 0 30.68 30.68" style="enable-background:new 0 0 30.68 30.68;" xml:space="preserve"
	>
<g>
	<g>
		<polygon points="24.562,2.313 28.538,6.364 27.229,7.649 25.341,5.727 24.562,6.489 26.45,8.415 25.607,9.24 24.383,7.99 
			23.604,8.755 24.829,10.005 23.672,11.139 21.784,9.216 21.006,9.98 22.895,11.904 22.051,12.73 20.827,11.48 20.047,12.245 
			22.363,14.546 30.68,6.384 24.584,0.172 16.171,8.427 17.241,9.498 		"/>
		<polygon points="12.756,19.002 14.182,20.454 13.113,21.501 11.025,19.374 10.247,20.138 12.334,22.265 11.492,23.091 
			10.068,21.64 9.289,22.405 10.713,23.856 9.557,24.991 7.47,22.864 6.69,23.627 8.778,25.755 7.935,26.583 6.51,25.13 
			5.733,25.895 7.157,27.345 6.116,28.368 2.141,24.315 11.006,15.615 9.935,14.546 0,24.294 6.097,30.507 16.036,20.793 
			13.535,18.237 		"/>
		<path d="M12.365,6.064l0.009-0.008L8.285,1.968L3.479,6.774l4.089,4.089l0.006-0.007l12.669,12.669l7.789,3.422l-2.919-8.1
			L12.365,6.064z M6.784,8.289L5.271,6.775l3.016-3.016L9.8,5.271L6.784,8.289z M25.016,24.944l-4.367-1.906l-0.576-0.578
			l2.578,0.154l-0.435-1.793l1.89,0.336l0.021-2.444l0.416,0.417l1.664,4.625L25.016,24.944z"/>
	</g>
</g>
<g>
</g>
<g>
</g>
<g>
</g>
<g>
</g>
<g>
</g>
<g>
</g>
<g>
</g>
<g>
</g>
<g>
</g>
<g>
</g>
<g>
</g>
<g>
</g>
<g>
</g>
<g>
</g>
<g>
</g>
</svg>
