<?xml version="1.0" encoding="iso-8859-1"?>
<!-- Generator: Adobe Illustrator 16.0.0, SVG Export Plug-In . SVG Version: 6.00 Build 0)  -->
<!DOCTYPE svg PUBLIC "-//W3C//DTD SVG 1.1//EN" "http://www.w3.org/Graphics/SVG/1.1/DTD/svg11.dtd">
<svg version="1.1" id="Capa_1" xmlns="http://www.w3.org/2000/svg" xmlns:xlink="http://www.w3.org/1999/xlink" x="0px" y="0px"
	 width="612px" height="612px" viewBox="0 0 612 612" style="enable-background:new 0 0 612 612;" xml:space="preserve">
<g>
	<g>
		<g id="Plus">
			<g>
				<path d="M306,0C136.992,0,0,136.992,0,306s136.992,306,306,306c168.988,0,306-136.992,306-306S474.988,0,306,0z M306,535.5
					C179.45,535.5,76.5,432.55,76.5,306S179.45,76.5,306,76.5S535.5,179.45,535.5,306S432.55,535.5,306,535.5z M421.133,267.75
					H344.25v-76.882c0-20.923-16.964-37.868-37.867-37.868h-0.765c-20.923,0-37.868,16.945-37.868,37.868v76.882h-76.882
					c-20.923,0-37.868,16.964-37.868,37.868v0.765c0,20.923,16.945,37.868,37.868,37.868h76.882v76.883
					c0,20.923,16.945,37.867,37.868,37.867h0.765c20.923,0,37.867-16.944,37.867-37.867V344.25h76.883
					c20.923,0,37.867-16.944,37.867-37.868v-0.765C459,284.714,442.036,267.75,421.133,267.75z"/>
			</g>
		</g>
	</g>
</g>
<g>
</g>
<g>
</g>
<g>
</g>
<g>
</g>
<g>
</g>
<g>
</g>
<g>
</g>
<g>
</g>
<g>
</g>
<g>
</g>
<g>
</g>
<g>
</g>
<g>
</g>
<g>
</g>
<g>
</g>
</svg>
