<?xml version="1.0" encoding="iso-8859-1"?>
<!-- Generator: Adobe Illustrator 16.0.0, SVG Export Plug-In . SVG Version: 6.00 Build 0)  -->
<!DOCTYPE svg PUBLIC "-//W3C//DTD SVG 1.1//EN" "http://www.w3.org/Graphics/SVG/1.1/DTD/svg11.dtd">
<svg version="1.1" id="Capa_1" xmlns="http://www.w3.org/2000/svg" xmlns:xlink="http://www.w3.org/1999/xlink" x="0px" y="0px"
	 width="44.309px" height="44.309px" viewBox="0 0 44.309 44.309" style="enable-background:new 0 0 44.309 44.309;"
	 xml:space="preserve">
<g>
	<g>
		<path d="M17.356,3.456C17.356,1.547,15.809,0,13.899,0H3.526C1.617,0,0.07,1.547,0.07,3.456V13.83
			c0,1.909,1.547,3.456,3.456,3.456H13.9c1.909,0,3.457-1.547,3.457-3.456L17.356,3.456L17.356,3.456z M14.252,13.771
			c0,0.227-0.184,0.41-0.411,0.41H3.515c-0.227,0-0.411-0.184-0.411-0.41V3.444c0-0.227,0.184-0.41,0.411-0.41h10.327
			c0.227,0,0.411,0.184,0.411,0.41L14.252,13.771L14.252,13.771z"/>
		<rect x="5.362" y="5.291" width="6.632" height="6.632"/>
		<path d="M17.356,30.479c0-1.908-1.547-3.455-3.457-3.455H3.526c-1.909,0-3.456,1.547-3.456,3.455v10.375
			c0,1.908,1.547,3.455,3.456,3.455H13.9c1.909,0,3.457-1.547,3.457-3.455L17.356,30.479L17.356,30.479z M14.252,40.848
			c0,0.227-0.168,0.428-0.395,0.428H3.511c-0.227,0-0.407-0.201-0.407-0.428V30.5c0-0.227,0.18-0.443,0.407-0.443h10.347
			c0.226,0,0.395,0.217,0.395,0.443L14.252,40.848L14.252,40.848z"/>
		<rect x="5.362" y="32.314" width="6.632" height="6.703"/>
		<path d="M44.238,3.456C44.238,1.547,42.691,0,40.782,0H30.408c-1.909,0-3.457,1.547-3.457,3.456V13.83
			c0,1.909,1.547,3.456,3.457,3.456h10.374c1.909,0,3.456-1.547,3.456-3.456V3.456z M41.135,13.771c0,0.227-0.185,0.41-0.412,0.41
			H30.396c-0.227,0-0.41-0.184-0.41-0.41V3.444c0-0.227,0.184-0.41,0.41-0.41h10.326c0.228,0,0.412,0.184,0.412,0.41V13.771z"/>
		<rect x="32.243" y="5.291" width="6.703" height="6.632"/>
		<path d="M4.007,19.261c-0.499,0-0.903,0.404-0.903,0.903v2.287c0,0.499,0.404,0.902,0.903,0.902h2.131v0.084
			c0,0.5,0.404,0.904,0.903,0.904h5.165v0.084c0,0.5,0.404,0.903,0.903,0.903h2.287c0.499,0,0.903-0.403,0.903-0.903V22.21
			c0-0.499-0.404-0.903-0.903-0.903h-1.143v-1.144c0-0.499-0.404-0.903-0.903-0.903h-1.23c-0.499,0-0.903,0.404-0.903,0.903v1.144
			h-4.02v-1.144c0-0.499-0.404-0.903-0.903-0.903L4.007,19.261L4.007,19.261z"/>
		<path d="M20.813,14.831c0,0.499,0.404,0.903,0.903,0.903h3.274c0.499,0,0.902-0.404,0.902-0.903v-2.287
			c0-0.499-0.403-0.903-0.902-0.903h-1.143V4.585h0.154c0.5,0,0.903-0.404,0.903-0.903V2.455c0-0.499-0.403-0.903-0.903-0.903H19.67
			c-0.499,0-0.903,0.404-0.903,0.903v1.228c0,0.499,0.404,0.903,0.903,0.903h1.143v3.246H19.67c-0.499,0-0.903,0.404-0.903,0.903
			v0.17c0,0.499,0.404,0.903,0.903,0.903h1.143V14.831z"/>
		<path d="M23.424,18.118c0-0.499-0.404-0.903-0.903-0.903h-2.287c-0.499,0-0.903,0.404-0.903,0.903v2.287
			c0,0.499,0.404,0.903,0.903,0.903h2.287c0.499,0,0.903-0.404,0.903-0.903V18.118z"/>
		<path d="M39.652,28.434H38.51c-0.5,0-0.903,0.404-0.903,0.903V33.6c0,0.498,0.403,0.902,0.903,0.902h4.332
			c0.5,0,0.903-0.404,0.903-0.902V20.164c0-0.499-0.403-0.903-0.903-0.903h-2.287c-0.498,0-0.902,0.404-0.902,0.903V28.434z"/>
		<path d="M29.422,25.118h0.155c0.499,0,0.903-0.403,0.903-0.903v-2.216c0-0.499-0.404-0.903-0.903-0.903H27.29
			c-0.499,0-0.903,0.404-0.903,0.903v1.144H22.21c-0.499,0-0.903,0.404-0.903,0.903v5.25c0,0.499,0.404,0.903,0.903,0.903h6.309
			c0.498,0,0.902-0.404,0.902-0.903V25.118z"/>
		<path d="M37.606,20.32v-1.144c0-0.499-0.404-0.903-0.903-0.903h-0.24c-0.498,0-0.902,0.404-0.902,0.903v1.144H33.43
			c-0.5,0-0.903,0.404-0.903,0.903v3.205c0,0.498,0.403,0.902,0.903,0.902h3.273c0.499,0,0.903-0.404,0.903-0.902V20.32z"/>
		<path d="M31.538,31.467h-2.131c-0.499,0-0.903,0.404-0.903,0.903V33.6c0,0.498,0.404,0.902,0.903,0.902h2.131v7.907
			c0,0.499,0.404,0.903,0.903,0.903h2.216c0.499,0,0.903-0.404,0.903-0.903v-14.13c0-0.499-0.404-0.903-0.903-0.903h-2.216
			c-0.499,0-0.903,0.404-0.903,0.903V31.467z"/>
		<path d="M21.378,42.408c0,0.499,0.404,0.902,0.903,0.902h3.273c0.5,0,0.903-0.403,0.903-0.902v-9.051
			c0-0.498-0.403-0.902-0.903-0.902h-3.273c-0.499,0-0.903,0.404-0.903,0.902V42.408z"/>
		<path d="M36.9,42.408c0,0.499,0.404,0.902,0.902,0.902h2.994c0.498,0,0.902-0.403,0.902-0.902v-2.217
			c0-0.498-0.404-0.902-0.902-0.902h-2.994c-0.498,0-0.902,0.404-0.902,0.902V42.408z"/>
	</g>
</g>
<g>
</g>
<g>
</g>
<g>
</g>
<g>
</g>
<g>
</g>
<g>
</g>
<g>
</g>
<g>
</g>
<g>
</g>
<g>
</g>
<g>
</g>
<g>
</g>
<g>
</g>
<g>
</g>
<g>
</g>
</svg>
