<?xml version="1.0" encoding="iso-8859-1"?>
<!-- Generator: Adobe Illustrator 16.0.0, SVG Export Plug-In . SVG Version: 6.00 Build 0)  -->
<!DOCTYPE svg PUBLIC "-//W3C//DTD SVG 1.1//EN" "http://www.w3.org/Graphics/SVG/1.1/DTD/svg11.dtd">
<svg version="1.1" id="Capa_1" xmlns="http://www.w3.org/2000/svg" xmlns:xlink="http://www.w3.org/1999/xlink" x="0px" y="0px"
	 width="18.633px" height="18.633px" viewBox="0 0 18.633 18.633" style="enable-background:new 0 0 18.633 18.633;"
	 xml:space="preserve">
<g>
	<path d="M7.375,6.504C6.234,5.85,5.094,5.195,3.954,4.541C4.563,3.352,5.306,2.16,6.52,0.969c0.15-0.16,0.347-0.265,0.59-0.314
		h0.258L7.55,0.663c0.599,0.1,1.179,0.891,1.48,1.338C9.267,2.406,9.494,2.816,9.711,3.23L7.375,6.504z M9.322,1.818
		c0.548,0.941,1.065,1.916,1.512,2.957L9.021,5.818l5.258,0.504l2.213-4.805l-1.83,1.053c-0.498-1.012-1.133-1.854-2.096-2.285
		C10.84,0.293,9.113,0.301,7.385,0.31C8.069,0.284,8.706,0.903,9.322,1.818z M13.34,8.673l0.021-0.029v0.072l1.351,2.875
		c0.546,0.02,1.093,0.022,1.64,0.016c0.566-0.047,1.619-0.176,1.946-0.717c0.013-0.019,0.021-0.037,0.032-0.056l0.133-0.239
		c0-0.107-0.015-0.216-0.047-0.318c-0.443-1.641-1.117-2.871-1.855-3.986c-1.129,0.674-2.259,1.346-3.388,2.021L13.34,8.673z
		 M16.366,11.95c-1.089,0.019-2.19-0.013-3.317-0.131l-0.021-2.093l-3.014,4.336l3.104,4.285l-0.021-2.11
		c1.125,0.063,2.17-0.08,3.02-0.705c0.839-1.511,1.678-3.021,2.518-4.529C18.318,11.611,17.465,11.861,16.366,11.95z M5.364,12.251
		c-0.236,0.455-0.459,0.916-0.674,1.386c-0.204,0.532-0.541,1.537-0.194,2.065c0.012,0.019,0.024,0.035,0.037,0.053l0.164,0.229
		c0.138,0.098,0.287,0.154,0.444,0.176c1.673,0.311,3.073,0.23,4.397,0.045c-0.121-1.309-0.242-2.619-0.364-3.928L5.364,12.251z
		 M4.373,13.501c0.454-0.987,0.954-1.971,1.546-2.938l1.898,0.884l-2.614-4.59L0,7.811L1.914,8.7
		c-0.542,0.992-0.863,1.994-0.664,3.028c1,1.41,2,2.818,3.002,4.226C3.838,15.409,3.979,14.532,4.373,13.501z"/>
</g>
<g>
</g>
<g>
</g>
<g>
</g>
<g>
</g>
<g>
</g>
<g>
</g>
<g>
</g>
<g>
</g>
<g>
</g>
<g>
</g>
<g>
</g>
<g>
</g>
<g>
</g>
<g>
</g>
<g>
</g>
</svg>
