<?xml version="1.0" encoding="iso-8859-1"?>
<!-- Generator: Adobe Illustrator 16.0.0, SVG Export Plug-In . SVG Version: 6.00 Build 0)  -->
<!DOCTYPE svg PUBLIC "-//W3C//DTD SVG 1.1//EN" "http://www.w3.org/Graphics/SVG/1.1/DTD/svg11.dtd">
<svg version="1.1" id="Capa_1" xmlns="http://www.w3.org/2000/svg" xmlns:xlink="http://www.w3.org/1999/xlink" x="0px" y="0px"
	 width="88.09px" height="88.09px" viewBox="0 0 88.09 88.09" style="enable-background:new 0 0 88.09 88.09;" xml:space="preserve"
	>
<g>
	<path d="M62.402,38.065h0.285c0.285-0.001,0.518-0.233,0.518-0.52v-2.848c0-0.284-0.23-0.516-0.516-0.519
		c-0.132-0.001-13.234-0.188-19.708-6.205c-0.12-0.111-0.284-0.158-0.445-0.131c-0.16,0.029-0.298,0.132-0.372,0.277L41,30.426
		c-0.084,0.167-0.072,0.366,0.03,0.521C41.222,31.239,45.936,38.065,62.402,38.065z"/>
	<path d="M56.91,55.18c-0.293-0.06-29.123-6.236-27.278-15.886c0.092-0.481,0.27-0.779,0.576-0.966
		c0.759-0.464,2.393-0.318,4.996,0.444c0.276,0.081,0.563-0.077,0.644-0.352c0.081-0.275-0.077-0.564-0.352-0.644
		c-2.981-0.873-4.78-0.977-5.83-0.334c-0.562,0.344-0.906,0.886-1.054,1.658c-1.91,10,23.476,16.075,27.571,16.987l-1.271,5.719
		c-0.063,0.281,0.113,0.558,0.394,0.619c0.038,0.01,0.076,0.014,0.113,0.014c0.237,0,0.452-0.164,0.506-0.406l1.385-6.229
		c0.029-0.136,0.005-0.277-0.071-0.395C57.164,55.291,57.046,55.211,56.91,55.18z"/>
	<path d="M44.348,48.918c2.473,0,4.633-1.845,4.723-1.924c0.164-0.143,0.224-0.371,0.146-0.574c-0.076-0.201-0.27-0.337-0.486-0.337
		h-6.104c-0.285,0-0.519,0.232-0.519,0.519c0,1.647,1.429,2.234,2.185,2.313C44.311,48.916,44.33,48.918,44.348,48.918z"/>
	<path d="M69.199,40.181c0.033-0.284-0.17-0.542-0.453-0.578c-0.284-0.032-0.545,0.168-0.578,0.453
		c-0.12,0.983-0.602,1.727-1.469,2.273c-5.563,3.492-23.72-2.639-23.903-2.702c-0.271-0.092-0.566,0.053-0.658,0.324
		c-0.093,0.271,0.052,0.566,0.323,0.659c0.586,0.199,11.301,3.817,18.975,3.817c2.35,0,4.413-0.34,5.812-1.22
		C68.384,42.495,69.039,41.477,69.199,40.181z"/>
	<path d="M52.421,48.918c2.472,0,4.632-1.845,4.722-1.924c0.165-0.143,0.223-0.371,0.146-0.574
		c-0.075-0.201-0.271-0.337-0.485-0.337h-6.104c-0.285,0-0.52,0.232-0.52,0.519c0,1.647,1.43,2.234,2.186,2.313
		C52.384,48.916,52.402,48.918,52.421,48.918z"/>
	<path d="M2,88.09h84.09c1.104,0,2-0.896,2-2V2c0-1.104-0.896-2-2-2H2C0.896,0,0,0.896,0,2v84.09C0,87.194,0.895,88.09,2,88.09z
		 M5.65,6.542c0-0.552,0.447-1,1-1h75.176c0.553,0,1,0.448,1,1v75.177c0,0.552-0.447,1-1,1H6.65c-0.553,0-1-0.448-1-1V6.542z"/>
	<path d="M29.6,53.178c-0.264-0.99-1.356-5.086-2.011-7.137c-1.345-4.21-1.394-7.212-0.143-8.923
		c0.788-1.08,2.044-1.626,3.732-1.626c1.124,0,2.246,0.246,3.104,0.498c-1.846-2.973-2.34-5.329-1.47-7.015
		c1.794-3.473,8.67-2.76,10.185-2.562l2.219-2.661c2.181-2.59,4.101-3.902,5.706-3.902c1.579,0,2.292,1.224,2.447,1.538
		c1.121,1.427,2.324,2.15,3.578,2.15c0.967,0,1.625-0.45,1.631-0.455c0.052-0.035,0.111-0.062,0.17-0.079
		c2.41-0.623,4.188-0.287,5.242,0.969c1.406,1.673,0.955,4.354,0.937,4.468c-0.013,0.061-0.033,0.12-0.063,0.173
		c-0.869,1.477-0.965,3.955-0.971,4.827c4.057,1.915,5.53,3.529,5.746,3.781c1.746,1.659,2.416,3.231,1.994,4.673
		c-0.631,2.149-3.583,3.346-5.415,3.895l3.255,1.464c0.184,0.084,0.303,0.266,0.305,0.467c0.004,0.201-0.111,0.387-0.293,0.474
		c-5.439,2.616-5.264,9.077-5.244,9.512l3.797,23.011h12.789V7.542H7.65v73.177h9.095C17.301,72.778,28.23,55.338,29.6,53.178z"/>
</g>
<g>
</g>
<g>
</g>
<g>
</g>
<g>
</g>
<g>
</g>
<g>
</g>
<g>
</g>
<g>
</g>
<g>
</g>
<g>
</g>
<g>
</g>
<g>
</g>
<g>
</g>
<g>
</g>
<g>
</g>
</svg>
