<?xml version="1.0" encoding="iso-8859-1"?>
<!-- Generator: Adobe Illustrator 16.0.0, SVG Export Plug-In . SVG Version: 6.00 Build 0)  -->
<!DOCTYPE svg PUBLIC "-//W3C//DTD SVG 1.1//EN" "http://www.w3.org/Graphics/SVG/1.1/DTD/svg11.dtd">
<svg version="1.1" id="Capa_1" xmlns="http://www.w3.org/2000/svg" xmlns:xlink="http://www.w3.org/1999/xlink" x="0px" y="0px"
	 width="88.09px" height="88.09px" viewBox="0 0 88.09 88.09" style="enable-background:new 0 0 88.09 88.09;" xml:space="preserve"
	>
<g>
	<path d="M43.452,29.318c-0.327-0.111-0.684,0.064-0.795,0.391c-0.112,0.328,0.063,0.684,0.391,0.795
		c0.707,0.241,13.638,4.605,22.897,4.605c2.832,0,5.324-0.409,7.016-1.47c1.37-0.86,2.161-2.089,2.352-3.653
		c0.041-0.343-0.203-0.655-0.547-0.697c-0.343-0.039-0.654,0.202-0.697,0.546c-0.146,1.187-0.725,2.084-1.773,2.743
		C65.584,36.792,43.672,29.394,43.452,29.318z"/>
	<path d="M60.354,37.108H52.99c-0.346,0-0.626,0.28-0.626,0.626c0,1.987,1.725,2.695,2.636,2.792
		c0.021,0.002,0.044,0.003,0.066,0.003c2.981,0,5.588-2.227,5.699-2.322c0.196-0.171,0.268-0.447,0.176-0.692
		C60.852,37.27,60.617,37.108,60.354,37.108z"/>
	<path d="M67.111,27.433l0.345-0.001c0.344-0.001,0.623-0.282,0.623-0.626v-3.437c0-0.344-0.276-0.623-0.621-0.626
		c-0.159-0.001-15.97-0.226-23.783-7.487c-0.144-0.133-0.343-0.191-0.537-0.158c-0.194,0.035-0.36,0.159-0.449,0.334l-1.406,2.784
		c-0.101,0.201-0.087,0.441,0.037,0.629C41.553,19.195,47.242,27.432,67.111,27.433z"/>
	<path d="M59.607,49.179l-1.534,6.901c-0.075,0.338,0.138,0.672,0.476,0.746c0.047,0.012,0.092,0.017,0.137,0.017
		c0.287,0,0.545-0.199,0.61-0.491l1.67-7.516c0.036-0.163,0.007-0.334-0.085-0.475c-0.091-0.141-0.232-0.24-0.398-0.273
		c-0.352-0.074-35.142-7.527-32.917-19.173c0.111-0.58,0.326-0.94,0.696-1.166c0.915-0.559,2.887-0.383,6.029,0.536
		c0.333,0.097,0.68-0.093,0.777-0.425c0.097-0.333-0.093-0.68-0.425-0.777c-3.598-1.053-5.769-1.178-7.035-0.403
		c-0.678,0.415-1.094,1.069-1.272,2C24.03,40.748,54.665,48.078,59.607,49.179z"/>
	<path d="M50.614,37.108H43.25c-0.347,0-0.626,0.28-0.626,0.626c0,1.987,1.724,2.695,2.636,2.792
		c0.022,0.002,0.045,0.003,0.066,0.003c2.982,0,5.59-2.227,5.699-2.322c0.197-0.171,0.268-0.447,0.177-0.692
		S50.876,37.108,50.614,37.108z"/>
	<path d="M86.09,88.09c1.104,0,2-0.896,2-2V2c0-1.104-0.896-2-2-2H2C0.896,0,0,0.896,0,2v84.09c0,1.104,0.896,2,2,2H86.09
		L86.09,88.09z M25.102,37.059c-1.623-5.081-1.68-8.704-0.172-10.769c0.951-1.302,2.466-1.962,4.504-1.962
		c1.356,0,2.711,0.296,3.745,0.601c-2.227-3.587-2.824-6.429-1.772-8.464c2.166-4.19,10.461-3.331,12.29-3.092l2.677-3.211
		c2.632-3.125,4.948-4.709,6.886-4.709c1.906,0,2.766,1.477,2.955,1.856c1.352,1.722,2.805,2.595,4.317,2.594
		c1.167,0,1.961-0.542,1.968-0.548c0.061-0.042,0.132-0.076,0.205-0.095c2.908-0.752,5.052-0.346,6.324,1.169
		c1.697,2.02,1.154,5.255,1.13,5.391c-0.013,0.074-0.039,0.145-0.077,0.21c-1.049,1.782-1.163,4.772-1.169,5.823
		c4.894,2.313,6.673,4.26,6.933,4.564c2.107,2.001,2.916,3.899,2.406,5.64c-0.76,2.593-4.322,4.039-6.533,4.7l3.926,1.767
		c0.223,0.1,0.367,0.319,0.371,0.563c0.002,0.244-0.137,0.466-0.355,0.572c-6.564,3.156-6.352,10.953-6.328,11.478l4.727,28.637
		c0.029,0.182-0.022,0.367-0.142,0.508c-0.119,0.14-0.293,0.221-0.478,0.221H12.615c-0.339,0-0.616-0.27-0.626-0.608
		c-0.27-9.032,13.826-31.526,15.539-34.224C27.21,44.475,25.892,39.533,25.102,37.059z"/>
</g>
<g>
</g>
<g>
</g>
<g>
</g>
<g>
</g>
<g>
</g>
<g>
</g>
<g>
</g>
<g>
</g>
<g>
</g>
<g>
</g>
<g>
</g>
<g>
</g>
<g>
</g>
<g>
</g>
<g>
</g>
</svg>
