<?xml version="1.0" encoding="iso-8859-1"?>
<!-- Generator: Adobe Illustrator 16.0.0, SVG Export Plug-In . SVG Version: 6.00 Build 0)  -->
<!DOCTYPE svg PUBLIC "-//W3C//DTD SVG 1.1//EN" "http://www.w3.org/Graphics/SVG/1.1/DTD/svg11.dtd">
<svg version="1.1" id="Capa_1" xmlns="http://www.w3.org/2000/svg" xmlns:xlink="http://www.w3.org/1999/xlink" x="0px" y="0px"
	 width="140.172px" height="140.172px" viewBox="0 0 140.172 140.172" style="enable-background:new 0 0 140.172 140.172;"
	 xml:space="preserve">
<g>
	<g id="_x34_35._Progress">
		<g>
			<path d="M70.086,0C31.376,0,0,31.376,0,70.086c0,38.708,31.376,70.086,70.085,70.086c38.705,0,70.086-31.378,70.086-70.086
				C140.172,31.376,108.791,0,70.086,0z M125.744,63.574c-0.835-7.243-3.025-14.079-6.358-20.215
				C122.719,49.495,124.909,56.327,125.744,63.574z M126.038,67.769c-0.048-1.143-0.062-2.292-0.174-3.417
				C125.977,65.477,125.99,66.626,126.038,67.769z M118.044,41.146c-0.489-0.803-0.94-1.632-1.464-2.411
				C117.104,39.518,117.555,40.344,118.044,41.146z M113.935,35.2c-0.202-0.253-0.373-0.525-0.586-0.778
				C113.555,34.675,113.732,34.947,113.935,35.2z M109.735,109.735L70.086,70.086L109.735,109.735
				c-10.146,10.146-24.164,16.426-39.646,16.426c-30.967,0-56.069-25.104-56.069-56.068c0-30.967,25.102-56.072,56.069-56.072
				v56.069h56.068v0.003C126.155,85.571,119.879,99.585,109.735,109.735z"/>
		</g>
	</g>
</g>
<g>
</g>
<g>
</g>
<g>
</g>
<g>
</g>
<g>
</g>
<g>
</g>
<g>
</g>
<g>
</g>
<g>
</g>
<g>
</g>
<g>
</g>
<g>
</g>
<g>
</g>
<g>
</g>
<g>
</g>
</svg>
