<?xml version="1.0" encoding="iso-8859-1"?>
<!-- Generator: Adobe Illustrator 16.0.0, SVG Export Plug-In . SVG Version: 6.00 Build 0)  -->
<!DOCTYPE svg PUBLIC "-//W3C//DTD SVG 1.1//EN" "http://www.w3.org/Graphics/SVG/1.1/DTD/svg11.dtd">
<svg version="1.1" id="Capa_1" xmlns="http://www.w3.org/2000/svg" xmlns:xlink="http://www.w3.org/1999/xlink" x="0px" y="0px"
	 width="473.068px" height="473.068px" viewBox="0 0 473.068 473.068" style="enable-background:new 0 0 473.068 473.068;"
	 xml:space="preserve">
<g>
	<g id="Layer_2_32_">
		<g>
			<path d="M355.498,181.955c8.8-6.139,29.396-20.519,29.396-55.351v-71.77h9.819c4.492,0,8.171-3.679,8.171-8.169v-38.5
				c0-4.49-3.679-8.165-8.171-8.165H78.348c-4.494,0-8.164,3.675-8.164,8.165v38.5c0,4.491,3.67,8.169,8.164,8.169h9.822v73.071
				c0,34.499,10.506,42.576,29.068,53.89l80.75,49.203v20.984c-20.336,12.23-73.464,44.242-80.429,49.107
				c-8.792,6.135-29.388,20.51-29.388,55.352v61.793h-9.822c-4.494,0-8.164,3.676-8.164,8.166v38.498c0,4.49,3.67,8.17,8.164,8.17
				h316.365c4.492,0,8.171-3.68,8.171-8.17V426.4c0-4.49-3.679-8.166-8.171-8.166h-9.819v-63.104
				c0-34.493-10.506-42.572-29.073-53.885l-80.741-49.202v-20.987C295.41,218.831,348.541,186.822,355.498,181.955z
				 M252.725,272.859l87.797,53.5c6.749,4.109,10.342,6.373,12.001,9.002c1.996,3.164,2.962,9.627,2.962,19.768v63.104H117.571
				v-61.793c0-19.507,9.719-26.289,16.816-31.242c5.545-3.865,54.391-33.389,85.873-52.289c4.422-2.658,7.13-7.441,7.13-12.611
				v-37.563c0-5.123-2.667-9.883-7.053-12.55l-87.806-53.504c-6.736-4.105-10.328-6.369-11.991-9.009
				c-2-3.156-2.971-9.626-2.971-19.767V54.835h237.915v71.77c0,19.5-9.719,26.288-16.812,31.235
				c-5.545,3.872-54.387,33.395-85.873,52.295c-4.426,2.658-7.135,7.442-7.135,12.601v37.563
				C245.666,265.431,248.345,270.188,252.725,272.859z"/>
			<path d="M131.553,359.607c-2,1.494-3.099,2.502-3.099,6.07c0,3.574,0,38.018,0,38.018s-0.394,3.707,3.781,3.707
				c2.026,0,52.428,0.055,103.912,0.111c51.482-0.057,101.888-0.111,103.907-0.111c4.171,0,3.777-3.707,3.777-3.707
				s0-34.442,0-38.018c0-3.568-1.102-4.576-3.094-6.07c-14.13-10.562-76.944-60.125-104.591-60.125
				C208.491,299.48,145.674,349.046,131.553,359.607z"/>
		</g>
	</g>
</g>
<g>
</g>
<g>
</g>
<g>
</g>
<g>
</g>
<g>
</g>
<g>
</g>
<g>
</g>
<g>
</g>
<g>
</g>
<g>
</g>
<g>
</g>
<g>
</g>
<g>
</g>
<g>
</g>
<g>
</g>
</svg>
