<?xml version="1.0" encoding="iso-8859-1"?>
<!-- Generator: Adobe Illustrator 16.0.0, SVG Export Plug-In . SVG Version: 6.00 Build 0)  -->
<!DOCTYPE svg PUBLIC "-//W3C//DTD SVG 1.1//EN" "http://www.w3.org/Graphics/SVG/1.1/DTD/svg11.dtd">
<svg version="1.1" id="Capa_1" xmlns="http://www.w3.org/2000/svg" xmlns:xlink="http://www.w3.org/1999/xlink" x="0px" y="0px"
	 width="612px" height="612px" viewBox="0 0 612 612" style="enable-background:new 0 0 612 612;" xml:space="preserve">
<g>
	<path d="M578.766,51.487v-0.895h-2.996H35.93h-2.996v0.895C15.272,52.701,2.095,66.753,0,83.808v3.002v355.724
		c0,6.898,1.795,12.712,4.791,17.949c6.893,12.137,17.068,18.269,31.14,18.269h197.012v49.695h-37.425
		c-9.281,0-16.467,7.218-16.467,16.48c0,9.262,7.186,16.479,16.467,16.479h220.666c9.281,0,16.768-7.218,16.768-16.479
		c0-9.263-7.486-16.48-16.768-16.48h-37.425v-49.695H575.77c14.078,0,24.343-6.132,31.14-18.269
		c3.085-5.493,5.091-11.37,5.091-17.949V86.811v-3.002C609.905,66.753,595.833,52.701,578.766,51.487z M578.766,86.811v355.724
		c0,2.108-0.895,3.002-2.996,3.002H35.93c-2.095,0-2.996-0.894-2.996-3.002V86.811v-3.002h545.831V86.811z"/>
</g>
<g>
</g>
<g>
</g>
<g>
</g>
<g>
</g>
<g>
</g>
<g>
</g>
<g>
</g>
<g>
</g>
<g>
</g>
<g>
</g>
<g>
</g>
<g>
</g>
<g>
</g>
<g>
</g>
<g>
</g>
</svg>
