<?xml version="1.0" encoding="iso-8859-1"?>
<!-- Generator: Adobe Illustrator 16.0.0, SVG Export Plug-In . SVG Version: 6.00 Build 0)  -->
<!DOCTYPE svg PUBLIC "-//W3C//DTD SVG 1.1//EN" "http://www.w3.org/Graphics/SVG/1.1/DTD/svg11.dtd">
<svg version="1.1" id="Capa_1" xmlns="http://www.w3.org/2000/svg" xmlns:xlink="http://www.w3.org/1999/xlink" x="0px" y="0px"
	 width="532px" height="532px" viewBox="0 0 532 532" style="enable-background:new 0 0 532 532;" xml:space="preserve">
<g>
	<path d="M505.1,0H26.9C12,0,0,12,0,26.9v478.3C0,520,12,532,26.9,532h478.3c14.8,0,26.8-12,26.8-26.8V26.9C532,12,520,0,505.1,0z
		 M478.3,478.3H53.7V53.7h424.6V478.3z M108.2,128.6c0-9.9,8-17.9,17.9-17.9s17.9,8,17.9,17.9s-8,17.9-17.9,17.9
		C116.2,146.4,108.2,138.4,108.2,128.6z M108.2,220.2c0-9.9,8-17.9,17.9-17.9s17.9,8,17.9,17.9c0,9.9-8,17.9-17.9,17.9
		S108.2,230,108.2,220.2z M108.2,311.8c0-9.899,8-17.899,17.9-17.899s17.9,8,17.9,17.899c0,9.9-8,17.9-17.9,17.9
		S108.2,321.7,108.2,311.8z M108.2,403.5c0-9.9,8-17.9,17.9-17.9s17.9,8,17.9,17.9s-8,17.9-17.9,17.9
		C116.2,421.3,108.2,413.3,108.2,403.5z M201.5,128.6c0-9.9,8-17.9,17.9-17.9s17.9,8,17.9,17.9s-8,17.9-17.9,17.9
		C209.5,146.4,201.5,138.4,201.5,128.6z M201.5,220.2c0-9.9,8-17.9,17.9-17.9s17.9,8,17.9,17.9c0,9.9-8,17.9-17.9,17.9
		S201.5,230,201.5,220.2z M201.5,311.8c0-9.899,8-17.899,17.9-17.899s17.9,8,17.9,17.899c0,9.9-8,17.9-17.9,17.9
		S201.5,321.7,201.5,311.8z M201.5,403.5c0-9.9,8-17.9,17.9-17.9s17.9,8,17.9,17.9s-8,17.9-17.9,17.9
		C209.5,421.3,201.5,413.3,201.5,403.5z M294.8,128.6c0-9.9,8-17.9,17.9-17.9c9.899,0,17.899,8,17.899,17.9s-8,17.9-17.899,17.9
		C302.8,146.4,294.8,138.4,294.8,128.6z M294.8,220.2c0-9.9,8-17.9,17.9-17.9c9.899,0,17.899,8,17.899,17.9
		c0,9.9-8,17.9-17.899,17.9C302.8,238.1,294.8,230,294.8,220.2z M294.8,311.8c0-9.899,8-17.899,17.9-17.899
		c9.899,0,17.899,8,17.899,17.899c0,9.9-8,17.9-17.899,17.9C302.8,329.7,294.8,321.7,294.8,311.8z M294.8,403.5
		c0-9.9,8-17.9,17.9-17.9c9.899,0,17.899,8,17.899,17.9s-8,17.9-17.899,17.9C302.8,421.3,294.8,413.3,294.8,403.5z M388.1,128.6
		c0-9.9,8-17.9,17.9-17.9s17.9,8,17.9,17.9s-8,17.9-17.9,17.9S388.1,138.4,388.1,128.6z M388.1,220.2c0-9.9,8-17.9,17.9-17.9
		s17.9,8,17.9,17.9c0,9.9-8,17.9-17.9,17.9S388.1,230,388.1,220.2z M388.1,311.8c0-9.899,8-17.899,17.9-17.899s17.9,8,17.9,17.899
		c0,9.9-8,17.9-17.9,17.9S388.1,321.7,388.1,311.8z M388.1,403.5c0-9.9,8-17.9,17.9-17.9s17.9,8,17.9,17.9s-8,17.9-17.9,17.9
		S388.1,413.3,388.1,403.5z"/>
</g>
<g>
</g>
<g>
</g>
<g>
</g>
<g>
</g>
<g>
</g>
<g>
</g>
<g>
</g>
<g>
</g>
<g>
</g>
<g>
</g>
<g>
</g>
<g>
</g>
<g>
</g>
<g>
</g>
<g>
</g>
</svg>
