<?xml version="1.0" encoding="iso-8859-1"?>
<!-- Generator: Adobe Illustrator 16.0.0, SVG Export Plug-In . SVG Version: 6.00 Build 0)  -->
<!DOCTYPE svg PUBLIC "-//W3C//DTD SVG 1.1//EN" "http://www.w3.org/Graphics/SVG/1.1/DTD/svg11.dtd">
<svg version="1.1" id="Capa_1" xmlns="http://www.w3.org/2000/svg" xmlns:xlink="http://www.w3.org/1999/xlink" x="0px" y="0px"
	 width="512px" height="512px" viewBox="0 0 512 512" style="enable-background:new 0 0 512 512;" xml:space="preserve">
<g>
	<path d="M256,96C141.125,96,48,189.125,48,304s93.125,208,208,208s208-93.125,208-208S370.875,96,256,96z M256,480
		c-97.063,0-176-78.969-176-176c0-97.063,78.938-176,176-176c97.031,0,176,78.938,176,176C432,401.031,353.031,480,256,480z
		 M100.281,98.313c-4.406-7.688-1.781-17.438,5.844-21.875l27.75-16c7.625-4.438,17.438-1.813,21.844,5.875l17.219,29.813
		c-20.063,8.063-38.625,18.938-55.375,32.125L100.281,98.313z M394.438,128.25c-16.719-13.188-35.312-24.063-55.375-32.125
		l17.22-29.813c4.405-7.688,14.188-10.313,21.875-5.875l27.688,16c7.656,4.438,10.281,14.188,5.875,21.875L394.438,128.25z M208,48
		V16c0-8.844,7.156-16,16-16h64c8.844,0,16,7.156,16,16v32c0,8.844-7.156,16-16,16v18.563C277.5,81.063,266.875,80,256,80
		s-21.5,1.063-32,2.563V64C215.156,64,208,56.844,208,48z M256,160l32,144c0,17.688-14.312,32-32,32c-17.687,0-32-14.312-32-32
		L256,160z"/>
</g>
<g>
</g>
<g>
</g>
<g>
</g>
<g>
</g>
<g>
</g>
<g>
</g>
<g>
</g>
<g>
</g>
<g>
</g>
<g>
</g>
<g>
</g>
<g>
</g>
<g>
</g>
<g>
</g>
<g>
</g>
</svg>
