<?xml version="1.0" encoding="iso-8859-1"?>
<!-- Generator: Adobe Illustrator 16.0.0, SVG Export Plug-In . SVG Version: 6.00 Build 0)  -->
<!DOCTYPE svg PUBLIC "-//W3C//DTD SVG 1.1//EN" "http://www.w3.org/Graphics/SVG/1.1/DTD/svg11.dtd">
<svg version="1.1" id="Capa_1" xmlns="http://www.w3.org/2000/svg" xmlns:xlink="http://www.w3.org/1999/xlink" x="0px" y="0px"
	 width="570.808px" height="570.809px" viewBox="0 0 570.808 570.809" style="enable-background:new 0 0 570.808 570.809;"
	 xml:space="preserve">
<g>
	<g>
		<polygon points="320.294,358.408 278.088,358.408 301.671,310.477 244.052,310.477 237.693,310.477 211.995,310.477 
			158.118,419.984 206.181,419.984 146.328,570.809 		"/>
		<path d="M45.574,243.013c0,28.81,23.354,52.165,52.164,52.165h121.785h18.17h6.362h65.144H439.99
			c47.078,0,85.245-38.165,85.245-85.246c0-47.078-38.164-85.246-85.245-85.246c-20.863,0-39.967,7.506-54.783,19.951
			C383.627,64.493,318.214,0,237.693,0C156.184,0,90.106,66.078,90.106,147.587c0,15.077,2.274,29.618,6.472,43.317
			C68.31,191.529,45.574,214.595,45.574,243.013z"/>
	</g>
</g>
<g>
</g>
<g>
</g>
<g>
</g>
<g>
</g>
<g>
</g>
<g>
</g>
<g>
</g>
<g>
</g>
<g>
</g>
<g>
</g>
<g>
</g>
<g>
</g>
<g>
</g>
<g>
</g>
<g>
</g>
</svg>
