<?xml version="1.0" encoding="iso-8859-1"?>
<!-- Generator: Adobe Illustrator 18.0.0, SVG Export Plug-In . SVG Version: 6.00 Build 0)  -->
<!DOCTYPE svg PUBLIC "-//W3C//DTD SVG 1.1//EN" "http://www.w3.org/Graphics/SVG/1.1/DTD/svg11.dtd">
<svg version="1.1" id="Capa_1" xmlns="http://www.w3.org/2000/svg" xmlns:xlink="http://www.w3.org/1999/xlink" x="0px" y="0px"
	 viewBox="0 0 401.769 401.769" style="enable-background:new 0 0 401.769 401.769;" xml:space="preserve">
<g>
	<path d="M200.884,156.658c66.744,0,120.85-22.378,120.85-49.982V49.981C321.734,22.377,267.628,0,200.884,0
		S80.034,22.377,80.034,49.981v56.695C80.034,134.28,134.141,156.658,200.884,156.658z"/>
	<path d="M200.884,244.961c66.744,0,120.85-22.378,120.85-49.981v-56.695c0-1.254-0.115-2.498-0.335-3.729
		c-4.614,25.861-56.805,46.251-120.516,46.251S84.982,160.417,80.369,134.556c-0.219,1.231-0.335,2.475-0.335,3.729v56.695
		C80.034,222.583,134.141,244.961,200.884,244.961z"/>
	<path d="M315.938,371.596h-75.265v-0.331c0-5.484-4.462-9.947-9.947-9.947h-19.894v-27.285
		c62.09-2.093,110.903-23.593,110.903-49.812v-56.695c0-1.255-0.115-2.498-0.335-3.73c-4.614,25.862-56.805,46.251-120.516,46.251
		s-115.902-20.39-120.516-46.251c-0.219,1.232-0.335,2.475-0.335,3.73v56.695c0,26.218,48.813,47.719,110.903,49.812v27.285h-19.894
		c-5.485,0-9.947,4.462-9.947,9.947v0.331H85.831c-5.485,0-9.947,4.462-9.947,9.947c0,5.485,4.462,9.948,9.947,9.948h75.265v0.331
		c0,5.485,4.462,9.947,9.947,9.947h59.682c5.485,0,9.947-4.462,9.947-9.947v-0.331h75.265c5.485,0,9.947-4.462,9.947-9.948
		C325.884,376.059,321.422,371.596,315.938,371.596z"/>
</g>
<g>
</g>
<g>
</g>
<g>
</g>
<g>
</g>
<g>
</g>
<g>
</g>
<g>
</g>
<g>
</g>
<g>
</g>
<g>
</g>
<g>
</g>
<g>
</g>
<g>
</g>
<g>
</g>
<g>
</g>
</svg>
