<?xml version="1.0" encoding="iso-8859-1"?>
<!-- Generator: Adobe Illustrator 16.0.0, SVG Export Plug-In . SVG Version: 6.00 Build 0)  -->
<!DOCTYPE svg PUBLIC "-//W3C//DTD SVG 1.1//EN" "http://www.w3.org/Graphics/SVG/1.1/DTD/svg11.dtd">
<svg version="1.1" id="Capa_1" xmlns="http://www.w3.org/2000/svg" xmlns:xlink="http://www.w3.org/1999/xlink" x="0px" y="0px"
	 width="88.09px" height="88.09px" viewBox="0 0 88.09 88.09" style="enable-background:new 0 0 88.09 88.09;" xml:space="preserve"
	>
<g>
	<path d="M38.645,47.208h-6.104c0,0,2.076,1.798,4.383,1.798C36.923,49.006,38.645,48.823,38.645,47.208z"/>
	<path d="M46.716,47.208h-6.103c0,0,2.076,1.798,4.383,1.798C44.996,49.006,46.716,48.823,46.716,47.208z"/>
	<path d="M24.746,57.376c0.028-0.597,0.177-6.638-5.042-9.147c-0.308-0.147-0.502-0.461-0.498-0.803
		c0.005-0.342,0.206-0.65,0.519-0.791l2.396-1.076c-1.855-0.662-4.172-1.863-4.754-3.853c-0.464-1.579,0.236-3.27,2.079-5.025
		c0.28-0.321,1.781-1.902,5.643-3.757c-0.021-0.987-0.156-3.125-0.917-4.418c-0.054-0.09-0.091-0.19-0.108-0.294
		c-0.021-0.12-0.498-2.961,1.014-4.761c1.147-1.367,3.046-1.748,5.608-1.085c0.104,0.027,0.203,0.073,0.29,0.135
		c0,0,0.578,0.386,1.42,0.386c1.128,0,2.228-0.666,3.269-1.979c0.34-0.686,1.244-1.709,2.758-1.709c1.741,0,3.697,1.317,5.98,4.029
		l2.094,2.513c0.595-0.071,1.659-0.173,2.892-0.173c3.885,0,6.465,1.021,7.463,2.952c0.868,1.681,0.533,3.855-1.027,6.609
		c0.717-0.164,1.529-0.288,2.343-0.288c1.784,0,3.175,0.614,4.022,1.775c1.34,1.835,1.312,4.859-0.09,9.243
		c-0.623,1.953-1.646,5.769-1.966,6.969c1.731,2.738,12.845,20.615,12.845,28.206h7.955V7.855H7.756v73.177h13.086L24.746,57.376z"
		/>
	<path d="M2,88.09h84.09c1.104,0,2-0.896,2-2V2c0-1.104-0.896-2-2-2H2C0.896,0,0,0.896,0,2v84.09C0,87.194,0.895,88.09,2,88.09z
		 M5.756,6.855c0-0.552,0.447-1,1-1h75.176c0.553,0,1,0.448,1,1v75.177c0,0.552-0.447,1-1,1H6.756c-0.553,0-1-0.448-1-1V6.855z"/>
	<path d="M58.336,52.75c0.053-0.205,1.333-5.061,2.088-7.426c1.496-4.686,1.014-6.759,0.346-7.673
		c-0.512-0.699-1.387-1.054-2.604-1.054c-1.955,0-4.022,0.907-4.044,0.916c-0.361,0.16-0.786,0.06-1.036-0.247
		c-0.251-0.306-0.267-0.741-0.038-1.064c2.193-3.093,2.969-5.471,2.242-6.877c-0.9-1.741-4.084-2-5.901-2
		c-1.72,0-3.104,0.217-3.116,0.219c-0.308,0.05-0.615-0.068-0.812-0.305l-2.403-2.884c-2.49-2.957-3.972-3.399-4.633-3.399
		c-0.822,0-1.165,0.692-1.201,0.771c-0.028,0.06-0.068,0.129-0.109,0.182c-1.754,2.26-3.532,2.734-4.716,2.734
		c-1.121,0-1.944-0.409-2.282-0.61c-1.77-0.433-3.012-0.258-3.687,0.543c-0.762,0.902-0.741,2.494-0.652,3.193
		c1.176,2.168,1.076,5.592,1.071,5.74c-0.012,0.333-0.208,0.629-0.51,0.77c-4.192,1.934-5.556,3.546-5.57,3.562
		c-0.022,0.028-0.051,0.06-0.077,0.084c-1.35,1.276-1.9,2.382-1.636,3.286c0.55,1.883,4.479,3.033,5.811,3.287
		c0.377,0.072,0.663,0.38,0.708,0.762c0.01,0.08,0.002,0.156-0.01,0.231c18.627,2.825,28.433-7.51,28.433-7.51
		c4.498-1.317,5.91-0.749,6.229,0.923c1.961,10.265-27.682,16.492-27.682,16.492l1.385,6.229c3.335,7.458,0.981,16.014,0.076,18.729
		h37.195c-0.672-7.957-12.627-26.709-12.752-26.905C58.312,53.241,58.271,52.987,58.336,52.75z M47,40.659
		c-0.588,0.2-11.322,3.823-19.098,3.823c-2.417,0-4.547-0.35-5.999-1.261c-1.231-0.772-1.941-1.879-2.113-3.288
		c-0.06-0.481,0.284-0.919,0.766-0.979c0.474-0.049,0.92,0.284,0.979,0.767c0.106,0.868,0.532,1.527,1.304,2.011
		c4.499,2.825,18.558-1.02,23.595-2.737c0.461-0.156,0.959,0.088,1.116,0.548C47.705,40.002,47.459,40.502,47,40.659z
		 M26.659,37.254v-2.848c0,0,13.355-0.116,20.058-6.344l1.165,2.307C47.881,30.369,43.267,37.333,26.659,37.254z"/>
</g>
<g>
</g>
<g>
</g>
<g>
</g>
<g>
</g>
<g>
</g>
<g>
</g>
<g>
</g>
<g>
</g>
<g>
</g>
<g>
</g>
<g>
</g>
<g>
</g>
<g>
</g>
<g>
</g>
<g>
</g>
</svg>
