<?xml version="1.0" encoding="iso-8859-1"?>
<!-- Generator: Adobe Illustrator 16.0.0, SVG Export Plug-In . SVG Version: 6.00 Build 0)  -->
<!DOCTYPE svg PUBLIC "-//W3C//DTD SVG 1.1//EN" "http://www.w3.org/Graphics/SVG/1.1/DTD/svg11.dtd">
<svg version="1.1" id="Capa_1" xmlns="http://www.w3.org/2000/svg" xmlns:xlink="http://www.w3.org/1999/xlink" x="0px" y="0px"
	 width="612px" height="612px" viewBox="0 0 612 612" style="enable-background:new 0 0 612 612;" xml:space="preserve">
<g>
	<g>
		<g id="North">
			<g>
				<path d="M331.742,164.112c-7.172-7.115-16.906-11.112-27.1-11.112c-10.174,0-19.909,3.997-27.1,11.112l-113.469,114.75
					c-14.975,14.822-14.975,38.842,0,53.666c14.975,14.841,39.226,14.841,54.181,0l49.496-50.356v138.962
					c0,20.923,16.964,37.867,37.868,37.867h0.765c20.923,0,37.867-16.944,37.867-37.867V287.965l4.973,0.803l43.013,42.61
					c13.56,13.426,35.267,16.696,50.796,5.604c19.718-14.096,21.344-41.482,4.877-57.796L331.742,164.112z M306,0
					C137.012,0,0,136.992,0,306s137.012,306,306,306c169.008,0,306-136.992,306-306S475.008,0,306,0z M306,535.5
					C179.45,535.5,76.5,432.55,76.5,306S179.45,76.5,306,76.5S535.5,179.45,535.5,306S432.55,535.5,306,535.5z"/>
			</g>
		</g>
	</g>
</g>
<g>
</g>
<g>
</g>
<g>
</g>
<g>
</g>
<g>
</g>
<g>
</g>
<g>
</g>
<g>
</g>
<g>
</g>
<g>
</g>
<g>
</g>
<g>
</g>
<g>
</g>
<g>
</g>
<g>
</g>
</svg>
