<?xml version="1.0" encoding="iso-8859-1"?>
<!-- Generator: Adobe Illustrator 16.0.0, SVG Export Plug-In . SVG Version: 6.00 Build 0)  -->
<!DOCTYPE svg PUBLIC "-//W3C//DTD SVG 1.1//EN" "http://www.w3.org/Graphics/SVG/1.1/DTD/svg11.dtd">
<svg version="1.1" id="Capa_1" xmlns="http://www.w3.org/2000/svg" xmlns:xlink="http://www.w3.org/1999/xlink" x="0px" y="0px"
	 width="400.001px" height="400px" viewBox="0 0 400.001 400" style="enable-background:new 0 0 400.001 400;" xml:space="preserve"
	>
<g>
	<g>
		<path d="M373.509,51.66H352.76V33.114c0-7.312-5.932-13.246-13.246-13.246H60.485c-7.314,0-13.246,5.935-13.246,13.246v68.875
			c0,7.316,5.932,13.245,13.246,13.245h279.029c7.314,0,13.246-5.929,13.246-13.245V78.146h20.749v243.711H352.76v-23.842
			c0-7.316-5.932-13.246-13.246-13.246H60.485c-7.314,0-13.246,5.93-13.246,13.246v23.842H26.491v-108.61H47.24v21.19
			c0,7.313,5.932,13.244,13.246,13.244h279.029c7.314,0,13.246-5.931,13.246-13.244v-68.872c0-7.315-5.932-13.245-13.246-13.245
			H60.485c-7.314,0-13.246,5.93-13.246,13.245v21.19H26.491C11.885,186.756,0,198.64,0,213.246v108.609
			c0,14.606,11.884,26.486,26.491,26.486H47.24v18.546c0,7.313,5.932,13.246,13.246,13.246h279.029
			c7.314,0,13.246-5.935,13.246-13.246v-18.546h20.749c14.606,0,26.491-11.88,26.491-26.486V78.148
			C400,63.54,388.115,51.66,373.509,51.66z M109.052,88.304c-11.462,0-20.751-9.293-20.751-20.75
			c0-11.462,9.29-20.751,20.751-20.751c11.459,0,20.749,9.289,20.749,20.751C129.801,79.011,120.511,88.304,109.052,88.304z
			 M219.867,80.798c0,5.483-4.448,9.931-9.937,9.931c-5.485,0-9.933-4.447-9.933-9.931V54.31c0-5.488,4.446-9.936,9.933-9.936
			c5.487,0,9.937,4.447,9.937,9.936V80.798z M264.016,80.798c0,5.483-4.445,9.931-9.933,9.931c-5.485,0-9.933-4.447-9.933-9.931
			V54.31c0-5.488,4.446-9.936,9.933-9.936s9.933,4.447,9.933,9.936V80.798z M308.167,80.798c0,5.483-4.446,9.931-9.935,9.931
			c-5.486,0-9.934-4.447-9.934-9.931V54.31c0-5.488,4.446-9.936,9.934-9.936c5.486,0,9.935,4.447,9.935,9.936V80.798z
			 M288.3,186.759c0-5.486,4.446-9.936,9.934-9.936c5.486,0,9.935,4.449,9.935,9.936v26.488c0,5.486-4.446,9.937-9.935,9.937
			c-5.486,0-9.934-4.449-9.934-9.937V186.759z M244.15,186.759c0-5.486,4.446-9.936,9.933-9.936s9.933,4.449,9.933,9.936v26.488
			c0,5.486-4.445,9.937-9.933,9.937c-5.485,0-9.933-4.449-9.933-9.937V186.759z M200,186.759c0-5.486,4.447-9.936,9.934-9.936
			c5.485,0,9.936,4.449,9.936,9.936v26.488c0,5.486-4.448,9.937-9.936,9.937c-5.486,0-9.934-4.45-9.934-9.937V186.759z
			 M109.052,179.25c11.459,0,20.749,9.29,20.749,20.752s-9.29,20.752-20.749,20.752c-11.462,0-20.751-9.29-20.751-20.752
			S97.59,179.25,109.052,179.25z M109.052,353.203c-11.462,0-20.751-9.289-20.751-20.751c0-11.457,9.29-20.75,20.751-20.75
			c11.459,0,20.749,9.293,20.749,20.75C129.801,343.914,120.511,353.203,109.052,353.203z M219.867,345.696
			c0,5.487-4.448,9.936-9.937,9.936c-5.485,0-9.933-4.446-9.933-9.936v-26.488c0-5.481,4.446-9.93,9.933-9.93
			c5.487,0,9.937,4.445,9.937,9.93V345.696z M264.016,345.696c0,5.487-4.445,9.936-9.933,9.936c-5.485,0-9.933-4.446-9.933-9.936
			v-26.488c0-5.481,4.446-9.93,9.933-9.93s9.933,4.445,9.933,9.93V345.696z M308.167,345.696c0,5.487-4.446,9.936-9.935,9.936
			c-5.486,0-9.934-4.446-9.934-9.936v-26.488c0-5.481,4.446-9.93,9.934-9.93c5.486,0,9.935,4.445,9.935,9.93V345.696z"/>
	</g>
</g>
<g>
</g>
<g>
</g>
<g>
</g>
<g>
</g>
<g>
</g>
<g>
</g>
<g>
</g>
<g>
</g>
<g>
</g>
<g>
</g>
<g>
</g>
<g>
</g>
<g>
</g>
<g>
</g>
<g>
</g>
</svg>
