<?xml version="1.0" encoding="iso-8859-1"?>
<!-- Generator: Adobe Illustrator 18.1.1, SVG Export Plug-In . SVG Version: 6.00 Build 0)  -->
<svg version="1.1" id="Capa_1" xmlns="http://www.w3.org/2000/svg" xmlns:xlink="http://www.w3.org/1999/xlink" x="0px" y="0px"
	 viewBox="0 0 285.137 285.137" style="enable-background:new 0 0 285.137 285.137;" xml:space="preserve">
<g>
	<path style="fill:#010002;" d="M73.634,240.67l-2.116,22.208c-1.142,11.961,7.675,21.658,19.689,21.658h102.717
		c12.015,0,21.06-9.714,20.206-21.702l-1.583-22.17H73.634V240.67z"/>
	<path style="fill:#010002;" d="M285.137,242.112V119.553c0-12.015-9.741-21.756-21.756-21.756h-37.774v57.97H59.531v-57.97H21.756
		C9.741,97.797,0,107.538,0,119.553v122.558c0,12.015,9.741,21.756,21.756,21.756h37.774v-37.6h166.071v37.6h37.774
		C275.396,263.868,285.137,254.127,285.137,242.112z M255.636,138.53c-5.624,0-10.187-4.558-10.187-10.182
		c0-5.624,4.563-10.182,10.187-10.182c5.619,0,10.182,4.558,10.182,10.182C265.818,133.972,261.255,138.53,255.636,138.53z"/>
	<path style="fill:#010002;" d="M210.639,42.52v-4.955l-38.34-36.964h-5.483c-0.011,0-0.011,0-0.011,0c-0.011,0-0.011,0-0.011,0
		H95.613c-11.389,0-20.652,9.252-20.652,20.619v120.454h135.677V42.917C210.639,42.786,210.644,42.656,210.639,42.52z
		 M190.345,119.907c0,0.185-0.141,0.315-0.343,0.315h-94.39c-0.207,0-0.354-0.131-0.354-0.315V21.215
		c0-0.185,0.152-0.321,0.354-0.321h59.748v12.407c0,15.523,13.315,21.158,22.278,21.158h12.706
		C190.345,54.459,190.345,119.907,190.345,119.907z"/>
</g>
<g>
</g>
<g>
</g>
<g>
</g>
<g>
</g>
<g>
</g>
<g>
</g>
<g>
</g>
<g>
</g>
<g>
</g>
<g>
</g>
<g>
</g>
<g>
</g>
<g>
</g>
<g>
</g>
<g>
</g>
</svg>
