<?xml version="1.0" encoding="iso-8859-1"?>
<!-- Generator: Adobe Illustrator 18.0.0, SVG Export Plug-In . SVG Version: 6.00 Build 0)  -->
<!DOCTYPE svg PUBLIC "-//W3C//DTD SVG 1.1//EN" "http://www.w3.org/Graphics/SVG/1.1/DTD/svg11.dtd">
<svg version="1.1" id="Capa_1" xmlns="http://www.w3.org/2000/svg" xmlns:xlink="http://www.w3.org/1999/xlink" x="0px" y="0px"
	 viewBox="0 0 370.32 370.32" style="enable-background:new 0 0 370.32 370.32;" xml:space="preserve">
<g>
	<path d="M154.66,134.16H86.993c-8.284,0-15,6.716-15,15c0,8.284,6.716,15,15,15h67.667c8.284,0,15-6.716,15-15
		C169.66,140.876,162.944,134.16,154.66,134.16z"/>
	<path d="M154.66,224.16H86.993c-8.284,0-15,6.716-15,15c0,8.284,6.716,15,15,15h67.667c8.284,0,15-6.716,15-15
		C169.66,230.876,162.944,224.16,154.66,224.16z"/>
	<path d="M271.993,152.878c-13.035,0-23.636,10.602-23.636,23.637v15.635h47.272v-15.635
		C295.629,163.48,285.028,152.878,271.993,152.878z"/>
	<path d="M343.358,177.646v-1.131c0-31.924-21.069-59.017-50.031-68.109V73.703c0-3.934-1.56-7.706-4.344-10.484l-58.876-58.88
		C227.323,1.561,223.557,0,219.623,0H42.439C26.386,0,13.327,13.06,13.327,29.112v312.095c0,16.054,13.059,29.113,29.111,29.113
		h221.777c16.052,0,29.111-13.06,29.111-29.113v-11.508h22.758c22.557,0,40.908-18.352,40.908-40.91v-80.727
		C356.993,196.148,351.755,185.208,343.358,177.646z M261.714,337.906H44.94V32.414h154.088v43.577
		c0,10.554,8.554,19.106,19.105,19.106h43.58v10.8c-34.496,5-61.086,34.757-61.086,70.619v1.131
		c-8.395,7.563-13.635,18.502-13.635,30.416v80.727c0,22.558,18.352,40.91,40.908,40.91h33.813V337.906z M331.993,219.73h-27.044
		c-6.404,0-11.592,5.191-11.592,11.59c0,6.4,5.188,11.59,11.592,11.59h27.044v16.561h-27.044c-6.404,0-11.592,5.189-11.592,11.594
		c0,6.402,5.188,11.592,11.592,11.592h27.044v6.133c0,8.789-7.121,15.91-15.908,15.91h-88.184c-8.787,0-15.908-7.121-15.908-15.91
		v-80.727c0-8.016,5.925-14.643,13.635-15.748v-15.799c0-25.57,20.801-46.369,46.365-46.369c25.564,0,46.365,20.799,46.365,46.369
		v15.799c7.71,1.105,13.635,7.732,13.635,15.748V219.73z"/>
</g>
<g>
</g>
<g>
</g>
<g>
</g>
<g>
</g>
<g>
</g>
<g>
</g>
<g>
</g>
<g>
</g>
<g>
</g>
<g>
</g>
<g>
</g>
<g>
</g>
<g>
</g>
<g>
</g>
<g>
</g>
</svg>
