<?xml version="1.0" encoding="iso-8859-1"?>
<!-- Generator: Adobe Illustrator 16.0.0, SVG Export Plug-In . SVG Version: 6.00 Build 0)  -->
<!DOCTYPE svg PUBLIC "-//W3C//DTD SVG 1.1//EN" "http://www.w3.org/Graphics/SVG/1.1/DTD/svg11.dtd">
<svg version="1.1" id="Capa_1" xmlns="http://www.w3.org/2000/svg" xmlns:xlink="http://www.w3.org/1999/xlink" x="0px" y="0px"
	 width="533.333px" height="533.333px" viewBox="0 0 533.333 533.333" style="enable-background:new 0 0 533.333 533.333;"
	 xml:space="preserve">
<g>
	<path d="M266.667,0C119.391,0,0,119.391,0,266.667c0,147.275,119.391,266.666,266.667,266.666
		c147.275,0,266.667-119.391,266.667-266.666C533.333,119.391,413.942,0,266.667,0z M266.667,483.333
		C147.005,483.333,50,386.328,50,266.667C50,147.005,147.005,50,266.667,50c119.661,0,216.667,97.005,216.667,216.667
		C483.333,386.328,386.328,483.333,266.667,483.333z M423.571,243.097L290.236,109.764c-13.017-13.018-34.121-13.018-47.139,0
		c-13.018,13.018-13.018,34.123,0,47.141l76.429,76.429H133.333c-18.409,0-33.333,14.924-33.333,33.333
		C100,285.076,114.924,300,133.333,300h186.193l-76.43,76.43c-13.018,13.018-13.018,34.123,0,47.141
		c6.509,6.509,15.041,9.763,23.571,9.763s17.062-3.254,23.569-9.763l133.335-133.333
		C436.587,277.22,436.587,256.114,423.571,243.097z"/>
</g>
<g>
</g>
<g>
</g>
<g>
</g>
<g>
</g>
<g>
</g>
<g>
</g>
<g>
</g>
<g>
</g>
<g>
</g>
<g>
</g>
<g>
</g>
<g>
</g>
<g>
</g>
<g>
</g>
<g>
</g>
</svg>
