<?xml version="1.0" encoding="iso-8859-1"?>
<!-- Generator: Adobe Illustrator 18.1.1, SVG Export Plug-In . SVG Version: 6.00 Build 0)  -->
<svg version="1.1" id="Capa_1" xmlns="http://www.w3.org/2000/svg" xmlns:xlink="http://www.w3.org/1999/xlink" x="0px" y="0px"
	 viewBox="0 0 29.869 29.869" style="enable-background:new 0 0 29.869 29.869;" xml:space="preserve">
<g>
	<path style="fill:#010002;" d="M24.032,11.541c0.286,0,0.518,0.232,0.518,0.518s-0.232,0.518-0.518,0.518s-0.518-0.232-0.518-0.518
		S23.746,11.541,24.032,11.541z M21.686,11.542c-0.583,0-1.055,0.472-1.055,1.055s0.472,1.055,1.055,1.055s1.055-0.472,1.055-1.055
		C22.741,12.014,22.269,11.542,21.686,11.542z M22.742,10.134c0,0.388,0.315,0.703,0.703,0.703c0.388,0,0.703-0.315,0.703-0.703
		c0-0.388-0.315-0.703-0.703-0.703C23.057,9.431,22.742,9.746,22.742,10.134z M29.672,12.495c-0.26,0.259-0.684,0.259-0.946,0
		L28.4,12.167l-8.666,8.668l-4.45-7.487l7.148-7.15l-0.328-0.326c-0.261-0.261-0.259-0.684,0-0.945
		c0.261-0.26,0.685-0.263,0.946-0.001l6.622,6.623C29.934,11.809,29.934,12.233,29.672,12.495z M27.404,11.174l-3.977-3.979
		l-5.53,5.559l-1.112,1.112h7.944L27.404,11.174z M10.485,18.244c0,0.61,0.494,1.104,1.104,1.104s1.104-0.494,1.104-1.104
		c0-0.61-0.494-1.104-1.104-1.104S10.485,17.634,10.485,18.244z M8.429,16.569c-0.595-0.001-1.076,0.483-1.076,1.075
		c0,0.594,0.482,1.079,1.076,1.079s1.077-0.485,1.077-1.079C9.506,17.052,9.022,16.567,8.429,16.569z M11.462,15.748
		c0-0.436-0.353-0.789-0.789-0.789s-0.789,0.353-0.789,0.789s0.353,0.789,0.789,0.789S11.462,16.184,11.462,15.748z M19.853,22.986
		c0.671,1.987-0.067,3.83-2.206,3.83H2.446c-2.139,0-2.876-1.826-2.208-3.814c0,0,2.636-4.912,6.932-11.962V6.957H6.904
		C6.52,6.958,6.207,6.645,6.207,6.263c0.001-0.382,0.314-0.695,0.696-0.696h1.106L7.353,3.053h5.34l-0.659,2.515h1.157
		c0.383-0.001,0.695,0.313,0.695,0.695c-0.002,0.382-0.312,0.694-0.696,0.694h-0.265v4.083
		C17.219,18.091,19.853,22.987,19.853,22.986z M16.638,20.318c-0.296-0.575-3.857-6.755-4.947-8.541l-0.169-0.278H8.57l-0.168,0.278
		c-1.11,1.823-4.484,7.719-4.86,8.354c-0.028,0.055-0.06,0.119-0.093,0.186v0.001H16.638z"/>
</g>
<g>
</g>
<g>
</g>
<g>
</g>
<g>
</g>
<g>
</g>
<g>
</g>
<g>
</g>
<g>
</g>
<g>
</g>
<g>
</g>
<g>
</g>
<g>
</g>
<g>
</g>
<g>
</g>
<g>
</g>
</svg>
