<?xml version="1.0" encoding="utf-8"?>
<!-- Generator: Adobe Illustrator 16.0.0, SVG Export Plug-In . SVG Version: 6.00 Build 0)  -->
<!DOCTYPE svg PUBLIC "-//W3C//DTD SVG 1.1//EN" "http://www.w3.org/Graphics/SVG/1.1/DTD/svg11.dtd">
<svg version="1.1" id="Layer_1" xmlns="http://www.w3.org/2000/svg" xmlns:xlink="http://www.w3.org/1999/xlink" x="0px" y="0px"
	 width="512px" height="512px" viewBox="0 0 512 512" enable-background="new 0 0 512 512" xml:space="preserve">
<g>
	<path d="M256,10.668c-135.287,0-245.334,110.057-245.334,245.33S120.713,501.332,256,501.332
		c135.291,0,245.334-110.061,245.334-245.334S391.291,10.668,256,10.668z M256,451.967c-108.064,0-195.968-87.918-195.968-195.969
		S147.936,60.029,256,60.029c108.069,0,195.968,87.918,195.968,195.969S364.069,451.967,256,451.967z"/>
	<path d="M346.229,273.756l-51.195-25.775c-1.897-9.289-7.15-17.258-14.305-22.98V120.326c0-13.629-11.052-24.686-24.681-24.686
		c-13.642,0-24.685,11.057-24.685,24.686v104.643c-9.159,7.297-15.105,18.416-15.105,31.029c0,21.951,17.709,39.805,39.741,39.805
		c5.996,0,11.62-1.414,16.712-3.777l51.325,25.826c3.553,1.799,7.347,2.635,11.074,2.635c9.029,0,17.74-4.967,22.081-13.592
		C363.313,294.729,358.414,279.877,346.229,273.756z"/>
	<path d="M255.759,390.037c-11.795,0-21.325,9.529-21.325,21.307c0,11.781,9.53,21.307,21.325,21.307
		c11.763,0,21.311-9.525,21.311-21.307C277.069,399.566,267.521,390.037,255.759,390.037z"/>
	<path d="M100.529,234.82c-11.781,0-21.312,9.531-21.312,21.307c0,11.781,9.53,21.309,21.312,21.309
		c11.776,0,21.307-9.527,21.307-21.309C121.836,244.352,112.306,234.82,100.529,234.82z"/>
	<path d="M410.942,234.852c-11.776,0-21.307,9.531-21.307,21.307c0,11.781,9.53,21.313,21.307,21.313
		c11.781,0,21.308-9.531,21.308-21.313C432.25,244.383,422.724,234.852,410.942,234.852z"/>
</g>
</svg>
