<?xml version="1.0" encoding="iso-8859-1"?>
<!-- Generator: Adobe Illustrator 18.0.0, SVG Export Plug-In . SVG Version: 6.00 Build 0)  -->
<!DOCTYPE svg PUBLIC "-//W3C//DTD SVG 1.1//EN" "http://www.w3.org/Graphics/SVG/1.1/DTD/svg11.dtd">
<svg version="1.1" id="Capa_1" xmlns="http://www.w3.org/2000/svg" xmlns:xlink="http://www.w3.org/1999/xlink" x="0px" y="0px"
	 viewBox="0 0 380 380" style="enable-background:new 0 0 380 380;" xml:space="preserve">
<g>
	<path d="M310.512,314.572c-0.959-1.137-2.439-1.672-3.897-1.413c-1.464,0.26-2.671,1.28-3.177,2.67l-2.811,7.774
		c-0.243,0.677-0.838,1.186-1.543,1.326c-0.698,0.138-1.444-0.103-1.93-0.63l-4.631-5.026
		c-13.102-14.239-21.467-32.661-23.572-51.868c-0.234-2.102-2.011-3.696-4.124-3.696H243.98c-1.158,0-2.269,0.492-3.054,1.35
		c-0.786,0.858-1.176,2.006-1.076,3.165c2.919,32.988,19.621,63.642,45.832,84.1l2.373,1.849c0.703,0.556,0.975,1.494,0.669,2.339
		l-2.603,7.205c-0.505,1.394-0.228,2.949,0.729,4.082c0.793,0.945,1.959,1.474,3.17,1.474c0.24,0,0.485-0.019,0.727-0.063
		l50.131-8.948c1.457-0.259,2.664-1.279,3.171-2.669c0.501-1.396,0.222-2.951-0.729-4.083L310.512,314.572z"/>
	<path d="M136.014,263.71h-20.842c-2.118,0-3.893,1.595-4.125,3.696c-2.1,19.207-10.474,37.629-23.577,51.867l-4.627,5.026
		c-0.485,0.529-1.203,0.78-1.935,0.63c-0.707-0.14-1.296-0.649-1.54-1.327l-2.81-7.771c-0.504-1.391-1.714-2.411-3.172-2.67
		c-1.463-0.26-2.945,0.28-3.899,1.414l-32.806,38.94c-0.955,1.133-1.232,2.691-0.729,4.083c0.505,1.396,1.714,2.412,3.172,2.674
		l50.127,8.942c0.244,0.043,0.487,0.063,0.729,0.063c0.01,0,0.019,0,0.028,0c2.291-0.001,4.146-1.856,4.146-4.146
		c0-0.662-0.154-1.288-0.432-1.843l-2.448-6.774c-0.307-0.846-0.037-1.784,0.673-2.338l2.371-1.851
		c26.204-20.455,42.91-51.11,45.825-84.099c0.103-1.159-0.287-2.307-1.071-3.165C138.288,264.202,137.176,263.71,136.014,263.71z"/>
	<path d="M211.328,332.086h-4.744c-1.145,0-2.066-0.931-2.066-2.076v-62.152c0-2.29-1.86-4.149-4.15-4.149h-20.734
		c-2.29,0-4.147,1.859-4.147,4.149v62.152c0,1.145-0.93,2.076-2.075,2.076h-4.737c-1.484,0-2.854,0.794-3.594,2.075
		c-0.739,1.283-0.739,2.864,0,4.146l21.324,36.933c0.745,1.282,2.109,2.076,3.594,2.076c1.479,0,2.854-0.794,3.589-2.075
		l21.331-36.934c0.735-1.282,0.735-2.864,0-4.146C214.175,332.88,212.81,332.086,211.328,332.086z"/>
	<path d="M307.577,69.915c-16.254-22.753-42.883-37.586-72.976-37.586c-9.497,0-18.645,1.482-27.233,4.217
		c-16.42-20.633-41.747-33.863-70.164-33.863c-44.675,0-81.711,32.687-88.508,75.448C19.78,93.003,0,123.133,0,157.886
		c0,49.5,40.127,89.627,89.627,89.627h200.745c49.499,0,89.628-40.127,89.628-89.627C380,114.271,348.845,77.939,307.577,69.915z"/>
</g>
<g>
</g>
<g>
</g>
<g>
</g>
<g>
</g>
<g>
</g>
<g>
</g>
<g>
</g>
<g>
</g>
<g>
</g>
<g>
</g>
<g>
</g>
<g>
</g>
<g>
</g>
<g>
</g>
<g>
</g>
</svg>
