<?xml version="1.0" encoding="iso-8859-1"?>
<!-- Generator: Adobe Illustrator 16.0.0, SVG Export Plug-In . SVG Version: 6.00 Build 0)  -->
<!DOCTYPE svg PUBLIC "-//W3C//DTD SVG 1.1//EN" "http://www.w3.org/Graphics/SVG/1.1/DTD/svg11.dtd">
<svg version="1.1" id="Capa_1" xmlns="http://www.w3.org/2000/svg" xmlns:xlink="http://www.w3.org/1999/xlink" x="0px" y="0px"
	 width="429.998px" height="429.998px" viewBox="0 0 429.998 429.998" style="enable-background:new 0 0 429.998 429.998;"
	 xml:space="preserve">
<g>
	<g>
		<path d="M352.209,302.669c42.961,0,77.789-34.828,77.789-77.791c0-37.407-26.403-68.644-61.59-76.097
			c0.01-0.563,0.021-1.127,0.021-1.693c0-58.03-47.042-105.074-105.071-105.074c-38.623,0-72.372,20.842-90.63,51.888
			c-2.631-0.27-5.301-0.408-8.005-0.408c-34.894,0-64.422,22.976-74.282,54.624c-4.117-0.673-8.342-1.029-12.651-1.029
			C34.827,147.089,0,181.916,0,224.88c0,42.961,34.827,77.789,77.789,77.789h125.907v30.856h-29.287
			c-5.676,0-10.276,4.603-10.276,10.275v5.651H77.726v22.605h86.407v5.652c0,5.676,4.601,10.274,10.276,10.274h81.18
			c5.677,0,10.276-4.602,10.276-10.274v-5.652h86.407v-22.605h-86.407v-5.651c0-5.676-4.603-10.275-10.276-10.275h-29.286v-30.856
			H352.209L352.209,302.669z"/>
	</g>
</g>
<g>
</g>
<g>
</g>
<g>
</g>
<g>
</g>
<g>
</g>
<g>
</g>
<g>
</g>
<g>
</g>
<g>
</g>
<g>
</g>
<g>
</g>
<g>
</g>
<g>
</g>
<g>
</g>
<g>
</g>
</svg>
