<?xml version="1.0" encoding="iso-8859-1"?>
<!-- Generator: Adobe Illustrator 16.0.0, SVG Export Plug-In . SVG Version: 6.00 Build 0)  -->
<!DOCTYPE svg PUBLIC "-//W3C//DTD SVG 1.1//EN" "http://www.w3.org/Graphics/SVG/1.1/DTD/svg11.dtd">
<svg version="1.1" id="Capa_1" xmlns="http://www.w3.org/2000/svg" xmlns:xlink="http://www.w3.org/1999/xlink" x="0px" y="0px"
	 width="571.16px" height="571.159px" viewBox="0 0 571.16 571.159" style="enable-background:new 0 0 571.16 571.159;"
	 xml:space="preserve">
<g>
	<g>
		<g>
			<path d="M49.201,403.408c0,92.647,75.104,167.751,167.751,167.751c92.657,0,167.762-75.104,167.762-167.751V297.312H49.201
				V403.408z"/>
			<path d="M49.201,232.611v26.559H197.89V138.977v-21.503h-33.554C100.745,117.474,49.201,169.019,49.201,232.611z"/>
			<path d="M236.032,259.17h148.68v-26.559c0-63.593-51.543-115.138-115.138-115.138h-33.542v21.503V259.17L236.032,259.17z"/>
			<path d="M443.604,0H276.243c-43.199,0-78.354,35.143-78.354,78.354v39.119h38.144V78.354c0-22.173,18.038-40.21,40.21-40.21
				h167.362c22.173,0,40.21,18.038,40.21,40.21v372.472c0,10.534,8.54,19.07,19.071,19.07c10.532,0,19.072-8.538,19.072-19.07
				V78.354C521.958,35.144,486.803,0,443.604,0z"/>
		</g>
	</g>
</g>
<g>
</g>
<g>
</g>
<g>
</g>
<g>
</g>
<g>
</g>
<g>
</g>
<g>
</g>
<g>
</g>
<g>
</g>
<g>
</g>
<g>
</g>
<g>
</g>
<g>
</g>
<g>
</g>
<g>
</g>
</svg>
