<?xml version="1.0" encoding="iso-8859-1"?>
<!-- Generator: Adobe Illustrator 16.0.0, SVG Export Plug-In . SVG Version: 6.00 Build 0)  -->
<!DOCTYPE svg PUBLIC "-//W3C//DTD SVG 1.1//EN" "http://www.w3.org/Graphics/SVG/1.1/DTD/svg11.dtd">
<svg version="1.1" id="Capa_1" xmlns="http://www.w3.org/2000/svg" xmlns:xlink="http://www.w3.org/1999/xlink" x="0px" y="0px"
	 width="176.708px" height="176.707px" viewBox="0 0 176.708 176.707" style="enable-background:new 0 0 176.708 176.707;"
	 xml:space="preserve">
<g>
	<g>
		<path d="M161.423,11.661H15.281C6.877,11.661,0,18.544,0,26.941v97.326c0,8.409,6.884,15.283,15.281,15.283h66.837v13.025H35.354
			l-6.235,6.235v6.235h118.47v-6.235l-6.234-6.235H94.588v-13.019h66.835c8.415,0,15.284-6.881,15.284-15.284V26.941
			C176.708,18.544,169.838,11.661,161.423,11.661z M170.472,105.567c0,4.993-4.056,9.049-9.049,9.049H15.281
			c-4.987,0-9.045-4.056-9.045-9.049V26.941c0-4.987,4.058-9.045,9.045-9.045h146.143c4.993,0,9.049,4.058,9.049,9.045V105.567z"/>
		<polygon points="74.385,29.137 58.675,55.911 69.724,55.911 69.724,74.057 79.113,74.057 79.113,55.911 90.098,55.911 		"/>
		<polygon points="106.987,60.234 97.597,60.234 97.597,78.376 86.609,78.376 102.322,105.153 118.032,78.376 106.987,78.376 		"/>
	</g>
</g>
<g>
</g>
<g>
</g>
<g>
</g>
<g>
</g>
<g>
</g>
<g>
</g>
<g>
</g>
<g>
</g>
<g>
</g>
<g>
</g>
<g>
</g>
<g>
</g>
<g>
</g>
<g>
</g>
<g>
</g>
</svg>
