<?xml version="1.0" encoding="iso-8859-1"?>
<!-- Generator: Adobe Illustrator 16.0.0, SVG Export Plug-In . SVG Version: 6.00 Build 0)  -->
<!DOCTYPE svg PUBLIC "-//W3C//DTD SVG 1.1//EN" "http://www.w3.org/Graphics/SVG/1.1/DTD/svg11.dtd">
<svg version="1.1" id="Capa_1" xmlns="http://www.w3.org/2000/svg" xmlns:xlink="http://www.w3.org/1999/xlink" x="0px" y="0px"
	 width="570.485px" height="570.485px" viewBox="0 0 570.485 570.485" style="enable-background:new 0 0 570.485 570.485;"
	 xml:space="preserve">
<g>
	<g>
		<path d="M544.297,199.965H304.301v-65.208c0-15.002,12.209-27.211,27.211-27.211h185.869c10.523,0,19.06-8.536,19.06-19.06
			s-8.535-19.06-19.06-19.06H331.512c-36.022,0-65.329,29.307-65.329,65.331v65.21H26.188C11.724,199.967,0,211.693,0,226.164
			v248.708c0,14.463,11.726,26.188,26.188,26.188h518.109c14.461,0,26.188-11.725,26.188-26.188v-248.71
			C570.484,211.693,558.758,199.965,544.297,199.965z M376.305,263.323c0-3.694,2.998-6.691,6.691-6.691h36.1
			c3.697,0,6.691,2.997,6.691,6.691v32.286c0,3.693-2.998,6.691-6.691,6.691h-36.1c-3.695,0-6.691-2.998-6.691-6.691V263.323z
			 M376.305,334.378v32.274c0,3.695-2.996,6.691-6.688,6.691h-36.084c-3.693,0-6.691-2.996-6.691-6.691v-32.274
			c0-3.697,2.998-6.691,6.691-6.691h36.084C373.309,327.687,376.305,330.685,376.305,334.378z M342.029,256.634
			c3.692,0,6.69,2.997,6.69,6.691v32.286c0,3.693-2.998,6.691-6.69,6.691h-36.09c-3.695,0-6.689-2.998-6.689-6.691v-32.286
			c0-3.694,2.996-6.691,6.689-6.691H342.029L342.029,256.634z M300.207,334.378v32.274c0,3.695-3,6.691-6.691,6.691h-36.082
			c-3.694,0-6.691-2.996-6.691-6.691v-32.274c0-3.697,2.997-6.691,6.691-6.691h36.082
			C297.209,327.687,300.207,330.685,300.207,334.378z M222.201,263.333c0-3.694,2.997-6.689,6.691-6.689h36.08
			c3.696,0,6.691,2.997,6.691,6.689v32.274c0,3.693-2.995,6.691-6.691,6.691h-36.08c-3.696,0-6.691-2.998-6.691-6.691V263.333
			L222.201,263.333z M224.098,334.378v32.274c0,3.695-2.997,6.691-6.691,6.691h-36.079c-3.697,0-6.693-2.996-6.693-6.691v-32.274
			c0-3.697,2.997-6.691,6.693-6.691h36.079C221.101,327.687,224.098,330.685,224.098,334.378z M68.077,295.608v-32.286
			c0-3.694,2.997-6.691,6.689-6.691h36.091c3.695,0,6.691,2.997,6.691,6.691v32.286c0,3.693-2.999,6.691-6.691,6.691H74.766
			C71.074,302.3,68.077,299.302,68.077,295.608z M123.022,437.708c0,3.695-2.999,6.69-6.691,6.69H80.248
			c-3.692,0-6.689-2.995-6.689-6.69v-32.275c0-3.695,2.997-6.69,6.689-6.69h36.083c3.694,0,6.691,2.998,6.691,6.69V437.708z
			 M147.998,366.653c0,3.695-2.997,6.691-6.691,6.691h-36.08c-3.696,0-6.691-2.996-6.691-6.691v-32.274
			c0-3.697,2.997-6.691,6.691-6.691h36.08c3.696,0,6.691,2.996,6.691,6.691V366.653z M145.132,295.608v-32.286
			c0-3.694,2.999-6.691,6.693-6.691h36.098c3.696,0,6.691,2.997,6.691,6.691v32.286c0,3.693-2.997,6.691-6.691,6.691h-36.098
			C148.13,302.3,145.132,299.302,145.132,295.608z M423.879,437.708c0,3.695-2.996,6.69-6.688,6.69H161.364
			c-3.696,0-6.691-2.995-6.691-6.69v-32.275c0-3.695,2.997-6.69,6.691-6.69H417.19c3.694,0,6.688,2.998,6.688,6.69V437.708z
			 M452.412,366.653c0,3.695-2.996,6.691-6.691,6.691h-36.078c-3.696,0-6.69-2.996-6.69-6.691v-32.274
			c0-3.697,2.996-6.691,6.69-6.691h36.078c3.697,0,6.691,2.996,6.691,6.691V366.653z M453.371,295.608v-32.274
			c0-3.694,2.998-6.689,6.691-6.689h36.079c3.695,0,6.691,2.997,6.691,6.689v32.274c0,3.693-2.996,6.691-6.691,6.691h-36.077
			C456.369,302.3,453.371,299.302,453.371,295.608z M504.975,437.708c0,3.695-2.996,6.69-6.688,6.69h-36.08
			c-3.695,0-6.691-2.995-6.691-6.69v-32.275c0-3.695,2.996-6.69,6.691-6.69h36.08c3.694,0,6.688,2.998,6.688,6.69V437.708z"/>
	</g>
</g>
<g>
</g>
<g>
</g>
<g>
</g>
<g>
</g>
<g>
</g>
<g>
</g>
<g>
</g>
<g>
</g>
<g>
</g>
<g>
</g>
<g>
</g>
<g>
</g>
<g>
</g>
<g>
</g>
<g>
</g>
</svg>
