<?xml version="1.0" encoding="iso-8859-1"?>
<!-- Generator: Adobe Illustrator 16.0.0, SVG Export Plug-In . SVG Version: 6.00 Build 0)  -->
<!DOCTYPE svg PUBLIC "-//W3C//DTD SVG 1.1//EN" "http://www.w3.org/Graphics/SVG/1.1/DTD/svg11.dtd">
<svg version="1.1" id="Capa_1" xmlns="http://www.w3.org/2000/svg" xmlns:xlink="http://www.w3.org/1999/xlink" x="0px" y="0px"
	 width="59.056px" height="59.056px" viewBox="0 0 59.056 59.056" style="enable-background:new 0 0 59.056 59.056;"
	 xml:space="preserve">
<g>
	<g>
		<path d="M26.355,28.33c0.58-1.344,0.18-2.809-0.894-3.273c-0.242-0.104-0.497-0.147-0.753-0.135
			c-0.426,0.019-0.75,0.696-1.156,1.09c-0.406,0.395-0.972,0.429-1.016,0.5c-0.027,0.043-0.05,0.087-0.071,0.135
			c-0.58,1.344-0.18,2.81,0.894,3.273C24.434,30.385,25.776,29.672,26.355,28.33z"/>
		<path d="M33.572,24.263c0.06,0.186,0.077,0.387,0.043,0.594c-0.12,0.737-0.815,1.234-1.552,1.114
			c-0.052-0.008-0.099-0.026-0.145-0.046c-0.078-0.033-0.153,0.155-0.129,0.421c0.015,0.157,0.041,0.316,0.08,0.476
			c0.355,1.419,1.564,2.339,2.699,2.056c1.137-0.285,1.768-1.665,1.413-3.084c-0.247-0.989-0.91-1.736-1.674-2.002
			C33.765,23.604,33.475,23.945,33.572,24.263z"/>
		<path d="M26.978,57.812c0.669,0.766,1.594,1.244,2.625,1.244c1.039,0,1.969-0.485,2.639-1.261c0.376-0.436,1.04-0.917,1.608-1.009
			c13.131-2.073,23.173-13.435,23.173-27.149c0-15.187-12.31-27.496-27.496-27.496c-0.427,0-0.852,0.013-1.274,0.034
			c-0.575,0.029-1.379-0.251-1.831-0.606c-4.36-3.422-7.482-0.701-9.53,2.976c-0.28,0.503-0.894,1.144-1.389,1.438
			C7.437,10.773,2.032,19.573,2.032,29.636c0,13.77,10.124,25.17,23.333,27.177C25.933,56.899,26.6,57.378,26.978,57.812z
			 M37.523,34.436c-3.57,0.585-7.111-2.877-7.91-7.732c-0.798-4.857,1.451-9.27,5.022-9.855c3.571-0.586,7.113,2.876,7.911,7.732
			S41.096,33.849,37.523,34.436z M29.688,7.06c1.434,1.397,5.057,4.24,10.984,4.444c0.575,0.02,0.799,0.408,0.432,0.85
			c-1.189,1.435-4.089,4.02-8.44,2.073c-3.97-1.777-4.088-5.351-3.875-7.108C28.856,6.747,29.276,6.659,29.688,7.06z M29.528,52.081
			c1.367,0,2.476,1.245,2.476,2.781s-1.108,2.78-2.476,2.78c-1.37,0-2.478-1.244-2.478-2.78S28.16,52.081,29.528,52.081z
			 M26.315,5.159c-1.948,1.024-6.566,3.714-10.139,7.858c-0.376,0.436-0.57,0.348-0.428-0.21c0.87-3.444,4.192-14.187,10.727-8.812
			C26.918,4.361,26.824,4.891,26.315,5.159z M20.981,17.996c3.62,0,6.553,3.991,6.553,8.911c0,4.922-2.933,8.912-6.553,8.912
			s-6.553-3.99-6.553-8.912C14.428,21.987,17.361,17.996,20.981,17.996z"/>
	</g>
</g>
<g>
</g>
<g>
</g>
<g>
</g>
<g>
</g>
<g>
</g>
<g>
</g>
<g>
</g>
<g>
</g>
<g>
</g>
<g>
</g>
<g>
</g>
<g>
</g>
<g>
</g>
<g>
</g>
<g>
</g>
</svg>
