<?xml version="1.0" encoding="iso-8859-1"?>
<!-- Generator: Adobe Illustrator 16.0.0, SVG Export Plug-In . SVG Version: 6.00 Build 0)  -->
<!DOCTYPE svg PUBLIC "-//W3C//DTD SVG 1.1//EN" "http://www.w3.org/Graphics/SVG/1.1/DTD/svg11.dtd">
<svg version="1.1" id="Capa_1" xmlns="http://www.w3.org/2000/svg" xmlns:xlink="http://www.w3.org/1999/xlink" x="0px" y="0px"
	 width="543.466px" height="543.466px" viewBox="0 0 543.466 543.466" style="enable-background:new 0 0 543.466 543.466;"
	 xml:space="preserve">
<g>
	<g id="iconos_45_">
		<path d="M337.509,298.068h-32.312c0.669,2.572,1.348,10.701,1.443,11.266c2.735,15.635-7.019,23.6-17.184,26.984
			c-38.289,12.766-49.802-38.25-49.802-38.25h-11.752v9.562v66.938h66.938v19.125h172.125h9.562v-19.125h57.375h9.562V192.881
			H415.146L337.509,298.068z M495.653,298.068h-89.754l39.206-57.375h50.548V298.068z"/>
		<path d="M509.997,412.818H251.809c-21.124,0-43.031,12.346-43.031,33.469v38.25c0,21.123,21.908,43.031,43.031,43.031h258.188
			c21.123,0,33.469-21.908,33.469-43.031v-38.25C543.466,425.164,531.12,412.818,509.997,412.818z M505.216,489.318H247.028v-38.25
			h258.188V489.318z"/>
		<path d="M82.113,304.189c-1.128,2.715-2.629,5.211-4.59,7.305c-4.418,4.695-10.653,7.594-17.404,7.594
			c-2.18,0-4.351-0.307-6.464-0.9c-6.158-1.73-11.265-5.746-14.382-11.32c-2.639-4.695-3.49-10.014-2.687-15.254
			c0.153-0.975,0.249-1.959,0.526-2.926l1.387-3.643l-4.265,2.41C18.58,296.298-0.058,315.693,0,357.882
			c0.086,68.926,64.566,80.027,65.216,80.143l3.433,0.545l16.17-31.814L82.113,304.189z"/>
		<polygon points="74.817,450.925 100.042,464.58 109.146,447.759 97.576,408.869 		"/>
		<path d="M265.684,316.734c1.779,2.984,7.641,10.748,19.441,4.705c5.681-2.906,5.681-8.807,5.681-12.039
			c0-9.467-62.903-195.41-62.903-195.41l-41.549,44.59L265.684,316.734z"/>
		<path d="M212.698,30.586l0.02-3.423l-19.881-11.265l-3.939,2.228l-7.908,4.485l-7.172,4.064l-5.202,2.945l-33.784,19.135
			l-86.78,228.487l-1.865,4.896c-0.908,3.29-0.449,7.153,1.425,10.499c1.875,3.348,4.944,5.758,8.625,6.789
			c7.497,2.113,15.625-2.523,17.69-9.916l0.297-0.621l0.401-0.852l100.693-142.337l3.165-4.475l3.165-4.475l30.715-43.414
			L212.698,30.586z M176.504,80.436c-7.87,0-14.258-6.378-14.258-14.258c0-7.87,6.378-14.258,14.258-14.258
			s14.258,6.378,14.258,14.258C190.762,74.048,184.375,80.436,176.504,80.436z"/>
	</g>
</g>
<g>
</g>
<g>
</g>
<g>
</g>
<g>
</g>
<g>
</g>
<g>
</g>
<g>
</g>
<g>
</g>
<g>
</g>
<g>
</g>
<g>
</g>
<g>
</g>
<g>
</g>
<g>
</g>
<g>
</g>
</svg>
