<?xml version="1.0" encoding="iso-8859-1"?>
<!-- Generator: Adobe Illustrator 16.0.0, SVG Export Plug-In . SVG Version: 6.00 Build 0)  -->
<!DOCTYPE svg PUBLIC "-//W3C//DTD SVG 1.1//EN" "http://www.w3.org/Graphics/SVG/1.1/DTD/svg11.dtd">
<svg version="1.1" id="Capa_1" xmlns="http://www.w3.org/2000/svg" xmlns:xlink="http://www.w3.org/1999/xlink" x="0px" y="0px"
	 width="944.592px" height="944.592px" viewBox="0 0 944.592 944.592" style="enable-background:new 0 0 944.592 944.592;"
	 xml:space="preserve">
<g>
	<g>
		<g>
			<path d="M372.241,764.452H88.915c-6.704,0-13.191-0.937-19.357-2.647v132.787c0,27.614,22.386,50,50,50h607.286
				c27.614,0,50-22.386,50-50V761.805c-6.166,1.712-12.651,2.647-19.355,2.647H474.161c0.016,0.371,0.028,0.742,0.028,1.117v30.62
				c0,14.121-11.448,25.568-25.569,25.568h-50.84c-14.121,0-25.569-11.447-25.569-25.568v-30.62
				C372.212,765.195,372.225,764.823,372.241,764.452z"/>
			<path d="M823.926,387.049c43.683-37.572,88.09-99.116,76.865-189.992c-0.659-5.332-8.107-6.003-9.736-0.882
				c-7.814,24.593-26.405,59.099-69.194,59.099c-66.479,0-54.892-78.58-17.495-117.955c32.404-34.121,50.856-90.235,30.012-134.456
				c-2.234-4.74-9.354-3.26-9.511,1.979c-0.904,30.485-21.563,88.546-147.358,141.437c-11.906,5.006-22.947,10.861-33.188,17.064
				c-9.978,6.042-22.753-1.087-22.788-12.75c-0.04-12.969,1.959-26.723,7.643-39.517c1.736-3.907-1.861-8.069-5.959-6.85
				c-25.867,7.696-89.177,33.523-105.902,104.989h22.652c44.815,0,81.274,36.459,81.274,81.273v50.507h133.124
				C785.565,340.997,812.408,360.005,823.926,387.049z"/>
			<path d="M591.24,340.997V290.49c0-28.272-23.001-51.273-51.274-51.273h-26.624H306.436c-28.272,0-51.273,23.001-51.273,51.273
				v50.507h51.41v-50.37h211.311h21.946v50.37H591.24L591.24,340.997z"/>
			<path d="M804.363,692.008V416.565c0-4.458-0.592-8.777-1.688-12.892c-5.687-21.365-25.158-37.108-48.312-37.108H621.24h-15h-15
				h-51.41h-15h-8.506h-6.494H336.573h-15h-15h-51.41h-15h-15H88.915c-25.889,0-46.876,20.987-46.876,46.875v278.566
				c0,18.984,11.292,35.32,27.519,42.69c5.902,2.681,12.452,4.186,19.357,4.186h668.572c6.905,0,13.454-1.505,19.355-4.186
				C793.072,727.328,804.363,710.991,804.363,692.008z"/>
		</g>
	</g>
</g>
<g>
</g>
<g>
</g>
<g>
</g>
<g>
</g>
<g>
</g>
<g>
</g>
<g>
</g>
<g>
</g>
<g>
</g>
<g>
</g>
<g>
</g>
<g>
</g>
<g>
</g>
<g>
</g>
<g>
</g>
</svg>
