<?xml version="1.0" encoding="iso-8859-1"?>
<!-- Generator: Adobe Illustrator 16.0.0, SVG Export Plug-In . SVG Version: 6.00 Build 0)  -->
<!DOCTYPE svg PUBLIC "-//W3C//DTD SVG 1.1//EN" "http://www.w3.org/Graphics/SVG/1.1/DTD/svg11.dtd">
<svg version="1.1" id="Capa_1" xmlns="http://www.w3.org/2000/svg" xmlns:xlink="http://www.w3.org/1999/xlink" x="0px" y="0px"
	 width="459.909px" height="459.909px" viewBox="0 0 459.909 459.909" style="enable-background:new 0 0 459.909 459.909;"
	 xml:space="preserve">
<g>
	<g>
		<path d="M271.84,238.756c-13.917-1.696-30.462,1.123-49.177,8.382c-13.227,5.129-23.838,11.062-28.59,13.881
			c-6.608-10.442-28.05-55.397-35.903-73.671c-3.943-9.176-17.032-27.563-30.25-22.438c-3.059,1.186-5.389,3.488-6.739,6.66
			c-4.449,10.445,2.717,27.848,3.025,28.584c10.344,24.775,38.91,91.858,42.069,99.297c0.481,1.133,1.13,2.545,1.882,4.183
			c1.791,3.896,4.243,9.233,5.856,14.01c2.136,6.326,1.681,8.42,1.549,8.813c-0.429,0.316-0.875,0.563-1.359,0.75
			c-8.918,3.459-26.762-13.325-33.533-21.514c-6.19-7.484-19.256-11.42-27.416-8.256c-3.269,1.268-5.587,3.639-6.529,6.674
			c-1.355,4.371,0.13,9.768,4.408,16.027c0.047,0.07,0.131,0.205,0.252,0.395c6.182,9.713,23.433,34.474,50.05,54.586
			c17.06,12.893,34.887,21.494,52.989,25.568c22.458,5.053,45.401,3.135,68.191-5.703c24.448-9.482,38.375-27.883,41.395-54.689
			c2.976-26.411-5.896-54.37-11.447-68.688C305.03,252.184,291.329,241.131,271.84,238.756z"/>
		<path d="M156.849,101.951c-9.729,0-12.324,11.93-12.324,18.979c0,7.049,2.596,18.979,12.324,18.979
			c9.727,0,12.322-11.93,12.322-18.979C169.171,113.88,166.575,101.951,156.849,101.951z"/>
		<polygon points="249.973,123.723 260.467,123.723 255.141,109.221 		"/>
		<path d="M105.459,102.861c-0.382,0-0.756,0.02-1.12,0.062l-4.1,0.455v35.543h6.162c5.501,0,12.816-1.729,12.816-16.678
			C119.218,108.928,112.086,102.861,105.459,102.861z"/>
		<path d="M396.037,56.473H63.871C28.596,56.473,0,85.069,0,120.344c0,35.274,28.596,63.869,63.871,63.869h45.995
			c-0.507-5.529-0.163-11.408,2.032-16.561c2.396-5.627,6.772-9.912,12.323-12.065c2.675-1.037,5.469-1.563,8.307-1.563
			c18.148,0,31.235,21.204,34.747,29.376c0.113,0.262,0.234,0.541,0.352,0.813h228.411c35.275,0,63.871-28.595,63.871-63.869
			C459.909,85.067,431.312,56.473,396.037,56.473z M106.565,147.63c-1.528,0-3.039-0.119-4.501-0.233
			c-2.054-0.161-4.671-0.292-6.277-0.106l-7.152,0.832c-0.134,0.016-0.268,0.023-0.4,0.023c-1.659,0-3.106-1.203-3.376-2.881
			l-0.3-1.867c-0.15-0.933,0.092-1.887,0.669-2.634c0.577-0.749,1.438-1.226,2.379-1.317l3.431-0.334V103.2l-3.738-0.805
			c-1.632-0.352-2.772-1.826-2.7-3.492l0.051-1.192c0.041-0.978,0.499-1.89,1.256-2.507c0.758-0.618,1.741-0.887,2.708-0.729
			l1.134,0.189c1.598,0.27,3.249,0.549,4.823,0.549c1.382,0,2.746-0.203,4.325-0.438c1.717-0.258,3.657-0.547,5.78-0.547
			c14.799,0,23.991,10.356,23.991,27.029C128.667,144.205,114.819,147.63,106.565,147.63z M156.849,148.617
			c-15.041,0-21.772-13.906-21.772-27.688c0-13.782,6.731-27.688,21.772-27.688c15.04,0,21.771,13.906,21.771,27.688
			C178.62,134.71,171.889,148.617,156.849,148.617z M227.203,102.937h-1.752v41.271c0,1.892-1.532,3.423-3.423,3.423h-3.101
			c-1.222,0-2.351-0.65-2.963-1.709l-19.104-33.031v26.031h4.135c1.892,0,3.424,1.533,3.424,3.424v1.862
			c0,1.892-1.532,3.423-3.424,3.423h-15.993c-1.892,0-3.424-1.531-3.424-3.423v-1.862c0-1.891,1.532-3.424,3.424-3.424h2.657
			v-35.984h-2.657c-1.892,0-3.424-1.533-3.424-3.424v-1.862c0-1.892,1.532-3.423,3.424-3.423h9.584c1.229,0,2.364,0.658,2.973,1.726
			l18.691,32.724v-25.74h-4.3c-1.891,0-3.424-1.533-3.424-3.424v-1.862c0-1.892,1.533-3.423,3.424-3.423h15.253
			c1.891,0,3.424,1.531,3.424,3.423v1.862C230.627,101.404,229.094,102.937,227.203,102.937z M280.58,144.208
			c0,1.892-1.532,3.423-3.424,3.423h-13.855c-1.892,0-3.425-1.531-3.425-3.423v-1.862c0-1.891,1.533-3.424,3.425-3.424h2.739
			l-2.415-6.49h-16.688l-2.366,6.49h2.845c1.891,0,3.423,1.533,3.423,3.424v1.862c0,1.892-1.532,3.423-3.423,3.423h-13.691
			c-1.892,0-3.424-1.531-3.424-3.423v-1.862c0-1.891,1.533-3.424,3.424-3.424h1.317l16.89-44.641
			c0.502-1.325,1.767-2.203,3.183-2.212c0.007,0,0.014,0,0.021,0c1.407,0,2.674,0.862,3.188,2.175l17.499,44.678h1.336
			c1.892,0,3.424,1.533,3.424,3.424L280.58,144.208L280.58,144.208z M327.248,112.248c0,1.892-1.532,3.424-3.424,3.424h-2.354
			c-1.891,0-3.424-1.532-3.424-3.424v-4.875c0-3.002-0.258-3.803-0.41-4.012c-0.039-0.025-0.644-0.424-3.696-0.424h-4.602v35.984
			h7.339c1.892,0,3.424,1.533,3.424,3.424v1.862c0,1.892-1.532,3.423-3.424,3.423h-23.881c-1.891,0-3.424-1.531-3.424-3.423v-1.862
			c0-1.891,1.533-3.424,3.424-3.424h7.339v-35.984h-4.601c-3.054,0-3.658,0.398-3.717,0.443c-0.134,0.189-0.392,0.99-0.392,3.992
			v4.875c0,1.892-1.533,3.424-3.424,3.424h-2.354c-1.892,0-3.425-1.532-3.425-3.424V97.649c0-1.892,1.533-3.423,3.425-3.423h38.176
			c1.892,0,3.424,1.531,3.424,3.423V112.248L327.248,112.248z M375.394,144.208c0,1.892-1.532,3.423-3.425,3.423h-37.847
			c-1.892,0-3.424-1.531-3.424-3.423v-1.862c0-1.891,1.532-3.424,3.424-3.424h4.791v-35.984h-4.791
			c-1.892,0-3.424-1.533-3.424-3.424v-1.862c0-1.892,1.532-3.423,3.424-3.423h36.286c1.891,0,3.424,1.531,3.424,3.423v11.557
			c0,1.891-1.533,3.423-3.424,3.423h-2.356c-1.891,0-3.423-1.532-3.423-3.423v-0.767c0-2.937-0.159-4.625-0.477-5.021
			c-0.089-0.073-0.755-0.482-4.205-0.482h-11.831v11.419h7.205c0.296-1.589,1.689-2.792,3.366-2.792h2.354
			c1.892,0,3.424,1.532,3.424,3.424v8.27c0,1.891-1.532,3.423-3.424,3.423h-2.354c-1.892,0-3.425-1.532-3.425-3.423v-0.191h-7.146
			v15.854h13.309c4.767,0,4.767,0,4.767-7.805v-0.191c0-1.892,1.532-3.424,3.424-3.424h2.354c1.893,0,3.425,1.532,3.425,3.424
			V144.208z"/>
	</g>
</g>
<g>
</g>
<g>
</g>
<g>
</g>
<g>
</g>
<g>
</g>
<g>
</g>
<g>
</g>
<g>
</g>
<g>
</g>
<g>
</g>
<g>
</g>
<g>
</g>
<g>
</g>
<g>
</g>
<g>
</g>
</svg>
