<?xml version="1.0" encoding="iso-8859-1"?>
<!-- Generator: Adobe Illustrator 16.0.0, SVG Export Plug-In . SVG Version: 6.00 Build 0)  -->
<!DOCTYPE svg PUBLIC "-//W3C//DTD SVG 1.1//EN" "http://www.w3.org/Graphics/SVG/1.1/DTD/svg11.dtd">
<svg version="1.1" id="Capa_1" xmlns="http://www.w3.org/2000/svg" xmlns:xlink="http://www.w3.org/1999/xlink" x="0px" y="0px"
	 width="612px" height="612px" viewBox="0 0 612 612" style="enable-background:new 0 0 612 612;" xml:space="preserve">
<g>
	<g id="Download__x2F_Upload_Shapes_05">
		<g>
			<path d="M306,0.246C102,0.246,0,102.165,0,305.988c0,203.847,102,305.766,306,305.766s306-101.919,306-305.766
				C612,102.165,510,0.246,306,0.246z M305.978,548.846c-162.039,0-243.055-80.965-243.055-242.871
				c0-161.907,81.023-242.872,243.055-242.872c162.039,0,243.054,80.964,243.054,242.872
				C549.032,467.881,468.017,548.846,305.978,548.846z M429.204,308.749c-4.382-0.052-33.454-1.438-70.248-2.496V182.065
				c0-22.269-18.063-40.295-40.332-40.295h-10.085c-22.275,0-40.331,18.026-40.331,40.295v123.212
				c-38.431,0.477-66.85,1.842-69.933,0.8c-15.281-5.108-25.08,14.363-18.613,22.364c5.182,6.407,110.675,123.784,119.623,134.705
				c10.158,15.884,30.621,4.463,30.614,4.471c6.73-7.736,107.387-128.562,114.889-137.701
				C450.276,323.208,450.644,308.977,429.204,308.749z"/>
		</g>
	</g>
</g>
<g>
</g>
<g>
</g>
<g>
</g>
<g>
</g>
<g>
</g>
<g>
</g>
<g>
</g>
<g>
</g>
<g>
</g>
<g>
</g>
<g>
</g>
<g>
</g>
<g>
</g>
<g>
</g>
<g>
</g>
</svg>
