<?xml version="1.0" encoding="iso-8859-1"?>
<!-- Generator: Adobe Illustrator 16.0.0, SVG Export Plug-In . SVG Version: 6.00 Build 0)  -->
<!DOCTYPE svg PUBLIC "-//W3C//DTD SVG 1.1//EN" "http://www.w3.org/Graphics/SVG/1.1/DTD/svg11.dtd">
<svg version="1.1" id="Capa_1" xmlns="http://www.w3.org/2000/svg" xmlns:xlink="http://www.w3.org/1999/xlink" x="0px" y="0px"
	 width="145.042px" height="145.041px" viewBox="0 0 145.042 145.041" style="enable-background:new 0 0 145.042 145.041;"
	 xml:space="preserve">
<g>
	<g>
		<path d="M136.975,37.437H56.403c-4.426,0-8.057-3.625-8.057-8.057v-8.058c0-4.427-3.625-8.057-8.059-8.057H8.059
			C3.631,13.264,0,16.89,0,21.321v96.688c0,4.433,3.625,8.061,8.059,8.061h74.066c-5.284-5.948-8.529-13.746-8.529-22.31
			c0-18.538,15.073-33.617,33.618-33.617s33.622,15.079,33.622,33.617c0,8.563-3.245,16.373-8.531,22.31h4.684
			c4.422,0,8.054-3.628,8.054-8.061V45.5C145.032,41.067,141.41,37.437,136.975,37.437z"/>
		<path d="M107.208,75.744c-15.469,0-28.015,12.541-28.015,28.016s12.546,28.018,28.015,28.018
			c15.475,0,28.017-12.543,28.017-28.018S122.682,75.744,107.208,75.744z M121.216,107.962H93.2v-8.404h28.017V107.962z"/>
	</g>
</g>
<g>
</g>
<g>
</g>
<g>
</g>
<g>
</g>
<g>
</g>
<g>
</g>
<g>
</g>
<g>
</g>
<g>
</g>
<g>
</g>
<g>
</g>
<g>
</g>
<g>
</g>
<g>
</g>
<g>
</g>
</svg>
