<?xml version="1.0" encoding="iso-8859-1"?>
<!-- Generator: Adobe Illustrator 16.0.0, SVG Export Plug-In . SVG Version: 6.00 Build 0)  -->
<!DOCTYPE svg PUBLIC "-//W3C//DTD SVG 1.1//EN" "http://www.w3.org/Graphics/SVG/1.1/DTD/svg11.dtd">
<svg version="1.1" id="Capa_1" xmlns="http://www.w3.org/2000/svg" xmlns:xlink="http://www.w3.org/1999/xlink" x="0px" y="0px"
	 width="792.024px" height="792.024px" viewBox="0 0 792.024 792.024" style="enable-background:new 0 0 792.024 792.024;"
	 xml:space="preserve">
<g>
	<g id="_x34_3">
		<g>
			<path d="M585.817,235.853H209.213c-39.622,0-71.729,32.107-71.729,71.729l38.841,412.664c0,39.622,32.107,71.778,71.729,71.778
				h304.924c39.622,0,71.729-32.156,71.729-71.778l32.888-412.664C657.596,267.96,625.439,235.853,585.817,235.853z
				 M301.876,666.375c0,19.762-16.054,35.913-35.865,35.913s-35.865-16.151-35.865-35.913V343.349
				c0-19.762,16.054-35.816,35.865-35.816s35.865,16.005,35.865,35.816V666.375z M427.427,666.375
				c0,19.762-16.053,35.913-35.865,35.913c-19.811,0-35.865-16.151-35.865-35.913V343.349c0-19.762,16.054-35.816,35.865-35.816
				c19.812,0,35.865,16.005,35.865,35.816V666.375z M552.979,666.375c0,19.762-16.054,35.913-35.865,35.913
				c-19.811,0-35.864-16.151-35.864-35.913V343.349c0-19.762,16.054-35.816,35.864-35.816c19.812,0,35.865,16.005,35.865,35.816
				V666.375z M190.037,199.939L624.317,88.246c24.007-6.148,38.45-30.644,32.254-54.602c-6.197-24.007-30.595-38.402-54.603-32.205
				L468.172,35.84c-12.346-18.347-34.89-28.106-57.53-22.3l-52.114,13.468c-22.641,5.807-37.67,25.227-39.67,47.234l-151.168,38.89
				c-23.959,6.1-38.402,30.595-32.254,54.553C141.631,191.644,166.078,206.087,190.037,199.939z"/>
		</g>
	</g>
</g>
<g>
</g>
<g>
</g>
<g>
</g>
<g>
</g>
<g>
</g>
<g>
</g>
<g>
</g>
<g>
</g>
<g>
</g>
<g>
</g>
<g>
</g>
<g>
</g>
<g>
</g>
<g>
</g>
<g>
</g>
</svg>
