<?xml version="1.0" encoding="iso-8859-1"?>
<!-- Generator: Adobe Illustrator 16.0.0, SVG Export Plug-In . SVG Version: 6.00 Build 0)  -->
<!DOCTYPE svg PUBLIC "-//W3C//DTD SVG 1.1//EN" "http://www.w3.org/Graphics/SVG/1.1/DTD/svg11.dtd">
<svg version="1.1" id="Capa_1" xmlns="http://www.w3.org/2000/svg" xmlns:xlink="http://www.w3.org/1999/xlink" x="0px" y="0px"
	 width="62.379px" height="62.378px" viewBox="0 0 62.379 62.378" style="enable-background:new 0 0 62.379 62.378;"
	 xml:space="preserve">
<g>
	<g>
		<path d="M22.938,20.771c-0.426,0.019-0.749,0.696-1.156,1.091c-0.407,0.395-0.972,0.429-1.016,0.5
			c-0.027,0.043-0.051,0.087-0.072,0.136c-0.58,1.343-0.179,2.809,0.896,3.272c1.074,0.464,2.417-0.248,2.997-1.59
			c0.58-1.344,0.179-2.81-0.895-3.273C23.45,20.803,23.195,20.761,22.938,20.771z"/>
		<path d="M39.774,2.631c-0.954,0-1.842,0.148-2.647,0.379c-0.553,0.159-1.442,0.25-2.012,0.167
			c-1.282-0.188-2.591-0.289-3.926-0.289c-0.178,0-0.355,0.003-0.533,0.008c-0.293,0.009-0.873-0.299-1.333-0.645
			C28.083,1.32,25.823,0,22.97,0c-1.176,0-2.346,0.224-3.479,0.667c-5.657,2.208-8.263,9.035-8.37,9.325
			c-0.104,0.276-0.139,0.56-0.118,0.838c0.036,0.469-0.086,1.158-0.459,1.596C6.505,17.161,4.064,23.3,4.064,30.012
			c0,13.695,10.149,25.019,23.335,26.862c0.57,0.078,1.32,0.492,1.699,0.926c2.844,3.257,6.938,5.755,12.412,4
			c5.254-1.686,7.006-5.929,7.311-10.185c0.042-0.574,0.403-1.344,0.823-1.735c5.33-4.951,8.67-12.019,8.67-19.868
			c0-6.653-2.396-12.746-6.372-17.465c-0.37-0.439-0.878-1.208-1.144-1.719c-1.169-2.25-3.621-5.999-7.544-7.529
			C42.122,2.856,40.95,2.631,39.774,2.631z M22.336,31.671c-3.62,0-6.553-3.992-6.553-8.913c0-4.922,2.933-8.912,6.553-8.912
			c3.62,0,6.553,3.991,6.553,8.912C28.89,27.679,25.956,31.671,22.336,31.671z M13.999,9.767c0.866-1.819,3.088-5.726,6.759-7.159
			c3.519-1.373,6.452,0.274,7.799,1.283c0.46,0.345,0.327,0.663-0.247,0.699c-2.261,0.145-7.904,0.977-13.905,5.491
			C13.944,10.427,13.751,10.286,13.999,9.767z M30.208,51.781l-0.354-1.078c-0.111-0.337,0.069-0.705,0.405-0.823l12.739-4.49
			c0.335-0.117,0.738,0.041,0.903,0.355c0,0,0.11,0.213,0.247,0.475c0.136,0.263,0.378,0.923,0.509,1.483
			c0.744,3.194,1.41,9.415-4.041,11.162C34.541,60.814,31.218,54.248,30.208,51.781z M40.045,31.671
			c-3.619,0-6.554-3.992-6.554-8.913c0-4.922,2.935-8.912,6.554-8.912s6.553,3.991,6.553,8.912
			C46.598,27.679,43.664,31.671,40.045,31.671z M35.001,7.016c1.347-1.009,4.28-2.657,7.799-1.283
			c3.669,1.434,5.894,5.34,6.759,7.159c0.248,0.52,0.057,0.661-0.403,0.315C43.153,8.693,37.51,7.86,35.247,7.715
			C34.676,7.679,34.54,7.361,35.001,7.016z"/>
		<path d="M39.565,23.952c-0.414-0.393-0.738-1.077-1.165-1.096c-0.256-0.012-0.51,0.031-0.752,0.135
			c-1.074,0.464-1.476,1.929-0.896,3.273c0.58,1.343,1.923,2.056,2.997,1.591c1.074-0.463,1.475-1.93,0.895-3.272
			c-0.02-0.047-0.043-0.091-0.066-0.134C40.537,24.377,39.979,24.344,39.565,23.952z"/>
		<path d="M37.048,48.391c-0.509,0.183-0.691,0.736-0.409,1.238l1.88,3.349c0.18,0.31,0.503,0.482,0.837,0.482
			c0.162,0,0.327-0.041,0.478-0.128c0.461-0.265,0.62-0.853,0.356-1.314l-1.711-3.05C38.195,48.468,37.557,48.209,37.048,48.391z"/>
	</g>
</g>
<g>
</g>
<g>
</g>
<g>
</g>
<g>
</g>
<g>
</g>
<g>
</g>
<g>
</g>
<g>
</g>
<g>
</g>
<g>
</g>
<g>
</g>
<g>
</g>
<g>
</g>
<g>
</g>
<g>
</g>
</svg>
