<?xml version="1.0" encoding="iso-8859-1"?>
<!-- Generator: Adobe Illustrator 18.1.1, SVG Export Plug-In . SVG Version: 6.00 Build 0)  -->
<svg version="1.1" id="Capa_1" xmlns="http://www.w3.org/2000/svg" xmlns:xlink="http://www.w3.org/1999/xlink" x="0px" y="0px"
	 viewBox="0 0 94 94" style="enable-background:new 0 0 94 94;" xml:space="preserve">
<g>
	<path style="fill:#030104;" d="M67,70c-4.938,0-9.178,2.986-11.019,7.25H39.5c-7.06,0-7.717-5.963-7.75-7.75V50.158
		c2.154,0.996,4.718,1.592,7.75,1.592h16.481C57.821,56.014,62.062,59,67,59c6.627,0,12-5.371,12-12c0-6.625-5.373-12-12-12
		c-4.938,0-9.178,2.986-11.019,7.25H39.5c-7.06,0-7.717-5.963-7.75-7.75V23.02C36.014,21.18,39,16.939,39,12c0-6.625-5.373-12-12-12
		S15,5.375,15,12c0,4.939,2.986,9.178,7.25,11.02V69.5c0,6.934,4.594,17.25,17.25,17.25h16.481C57.821,91.014,62.062,94,67,94
		c6.627,0,12-5.371,12-12C79,75.375,73.627,70,67,70z M67,40.078c3.823,0,6.923,3.1,6.923,6.922c0,3.824-3.1,6.924-6.923,6.924
		c-3.822,0-6.923-3.1-6.923-6.924C60.077,43.178,63.178,40.078,67,40.078z M20.077,12c0-3.822,3.101-6.922,6.923-6.922
		c3.823,0,6.923,3.1,6.923,6.922c0,3.824-3.1,6.924-6.923,6.924C23.178,18.924,20.077,15.824,20.077,12z M67,88.924
		c-3.822,0-6.923-3.1-6.923-6.924c0-3.822,3.101-6.922,6.923-6.922c3.823,0,6.923,3.1,6.923,6.922
		C73.923,85.824,70.823,88.924,67,88.924z"/>
</g>
<g>
</g>
<g>
</g>
<g>
</g>
<g>
</g>
<g>
</g>
<g>
</g>
<g>
</g>
<g>
</g>
<g>
</g>
<g>
</g>
<g>
</g>
<g>
</g>
<g>
</g>
<g>
</g>
<g>
</g>
</svg>
