<?xml version="1.0" encoding="iso-8859-1"?>
<!-- Generator: Adobe Illustrator 16.0.0, SVG Export Plug-In . SVG Version: 6.00 Build 0)  -->
<!DOCTYPE svg PUBLIC "-//W3C//DTD SVG 1.1//EN" "http://www.w3.org/Graphics/SVG/1.1/DTD/svg11.dtd">
<svg version="1.1" id="Capa_1" xmlns="http://www.w3.org/2000/svg" xmlns:xlink="http://www.w3.org/1999/xlink" x="0px" y="0px"
	 width="870px" height="870px" viewBox="0 0 870 870" style="enable-background:new 0 0 870 870;" xml:space="preserve">
<g>
	<g>
		<path d="M180,870h510c27.6,0,50-22.4,50-50V50c0-27.6-22.4-50-50-50H180c-27.6,0-50,22.4-50,50v770C130,847.6,152.4,870,180,870z
			 M653.9,808.6c-16.601,0-30-13.399-30-30c0-16.6,13.399-30,30-30c16.6,0,30,13.4,30,30C683.9,795.2,670.5,808.6,653.9,808.6z
			 M653.9,68c16.6,0,30,13.4,30,30s-13.4,30-30,30c-16.601,0-30-13.4-30-30S637.3,68,653.9,68z M435,90.4
			c129.6,0,234.7,105.1,234.7,234.7S564.6,559.8,435,559.8c-20.4,0-40.2-2.6-59.1-7.5l44.1-74.8c13.1-22.2-12-47.4-34.2-34.2
			l-102.3,60.3c-0.2,0.101-0.3,0.2-0.4,0.301c-50.6-43-82.7-107.2-82.7-178.8C200.3,195.5,305.4,90.4,435,90.4z M222.1,68
			c16.6,0,30,13.4,30,30s-13.399,30-30,30s-30-13.4-30-30S205.5,68,222.1,68z M222.1,748.6c16.6,0,30,13.4,30,30
			c0,16.601-13.399,30-30,30s-30-13.399-30-30C192.1,762.1,205.5,748.6,222.1,748.6z"/>
		<circle cx="435" cy="325.1" r="62.7"/>
	</g>
</g>
<g>
</g>
<g>
</g>
<g>
</g>
<g>
</g>
<g>
</g>
<g>
</g>
<g>
</g>
<g>
</g>
<g>
</g>
<g>
</g>
<g>
</g>
<g>
</g>
<g>
</g>
<g>
</g>
<g>
</g>
</svg>
