<?xml version="1.0" encoding="iso-8859-1"?>
<!-- Generator: Adobe Illustrator 16.0.0, SVG Export Plug-In . SVG Version: 6.00 Build 0)  -->
<!DOCTYPE svg PUBLIC "-//W3C//DTD SVG 1.1//EN" "http://www.w3.org/Graphics/SVG/1.1/DTD/svg11.dtd">
<svg version="1.1" id="Capa_1" xmlns="http://www.w3.org/2000/svg" xmlns:xlink="http://www.w3.org/1999/xlink" x="0px" y="0px"
	 width="588.73px" height="588.73px" viewBox="0 0 588.73 588.73" style="enable-background:new 0 0 588.73 588.73;"
	 xml:space="preserve">
<g>
	<g id="Layer_1_105_">
		<path d="M570.149,473.828c16.575-10.199,21.675-31.875,11.476-47.174l-195.075-316.2c-5.101-8.925-14.025-14.025-24.226-16.575
			l-137.7-21.675C202.95,42.879,174.899,14.829,139.2,4.629C69.075-14.496-7.425,27.579,2.774,95.154
			c6.375,44.625,53.55,84.15,145.35,121.125l-3.825,12.75c-2.55,10.2-1.275,20.4,3.825,28.05l195.075,314.925
			c10.2,16.574,31.875,21.676,47.176,11.475L570.149,473.828z M41.024,90.054c-7.65-29.325,39.525-62.475,86.7-48.45
			c24.225,7.65,44.625,26.775,61.2,47.175L159.6,179.304C62.7,139.779,44.85,106.629,41.024,90.054z M275.625,198.429
			c-21.675,12.75-49.725,6.375-62.475-15.3c-10.2-16.575-7.65-38.25,3.825-52.275c11.475,20.4,16.575,35.7,16.575,35.7
			c3.825,10.2,15.3,15.3,24.225,11.475c10.2-3.825,15.3-15.3,11.475-24.225c-1.275-1.275-6.375-17.85-17.85-38.25
			c15.3,0,30.6,7.65,39.525,21.675C303.675,156.354,297.3,184.404,275.625,198.429z M404.399,515.904
			c-3.825,2.549-8.925,3.824-12.75,3.824c-8.925,0-16.575-3.824-21.675-11.475l-86.7-141.525c-7.65-11.475-3.825-28.049,7.65-35.699
			c11.475-7.65,28.05-3.826,35.7,7.65l86.699,141.523C419.699,492.953,417.149,508.254,404.399,515.904z M502.574,454.703
			c-3.824,2.551-8.925,3.826-12.75,3.826c-8.925,0-16.574-3.826-21.675-11.475l-127.5-206.551c-7.649-11.475-3.825-28.05,7.65-35.7
			c11.475-7.65,28.05-3.825,35.7,7.65l127.5,206.55C517.875,431.754,514.05,448.328,502.574,454.703z"/>
	</g>
</g>
<g>
</g>
<g>
</g>
<g>
</g>
<g>
</g>
<g>
</g>
<g>
</g>
<g>
</g>
<g>
</g>
<g>
</g>
<g>
</g>
<g>
</g>
<g>
</g>
<g>
</g>
<g>
</g>
<g>
</g>
</svg>
