<?xml version="1.0" encoding="iso-8859-1"?>
<!-- Generator: Adobe Illustrator 18.1.1, SVG Export Plug-In . SVG Version: 6.00 Build 0)  -->
<svg version="1.1" id="Capa_1" xmlns="http://www.w3.org/2000/svg" xmlns:xlink="http://www.w3.org/1999/xlink" x="0px" y="0px"
	 viewBox="0 0 543.906 543.906" style="enable-background:new 0 0 543.906 543.906;" xml:space="preserve">
<g>
	<path style="fill:#010002;" d="M271.953,0C121.759,0,0,121.759,0,271.953s121.759,271.953,271.953,271.953
		s271.953-121.759,271.953-271.953S422.148,0,271.953,0z M316.994,76.316c1.055-0.049,2.138-0.06,3.231,0
		c14.724-0.484,27.533,10.622,29.578,24.987c6.576,27.581-22.719,55.228-49.631,44.192
		C268.032,130.576,284.224,77.909,316.994,76.316z M303.739,196.318c20.875-1.327,24.519,22.964,18.014,47.592
		c-12.695,56.583-32.455,111.403-43.175,168.442c5.178,22.523,33.575-3.312,45.721-11.558c10.329-8.213,12.124,2.083,15.637,10.71
		c-25.776,18.058-51.687,36.447-80.395,50.991c-26.972,16.361-49.049-9.072-42.321-37.394
		c11.128-52.841,25.776-104.882,37.736-157.564c3.737-28.468-33.728,0.511-44.872,7.136c-8.985,11.292-13.25,3.051-16.997-7.136
		c29.871-21.816,60.325-48.593,93.313-65.949C293.138,198.238,298.92,196.622,303.739,196.318z"/>
</g>
<g>
</g>
<g>
</g>
<g>
</g>
<g>
</g>
<g>
</g>
<g>
</g>
<g>
</g>
<g>
</g>
<g>
</g>
<g>
</g>
<g>
</g>
<g>
</g>
<g>
</g>
<g>
</g>
<g>
</g>
</svg>
