<?xml version="1.0" encoding="iso-8859-1"?>
<!-- Generator: Adobe Illustrator 16.0.0, SVG Export Plug-In . SVG Version: 6.00 Build 0)  -->
<!DOCTYPE svg PUBLIC "-//W3C//DTD SVG 1.1//EN" "http://www.w3.org/Graphics/SVG/1.1/DTD/svg11.dtd">
<svg version="1.1" id="Capa_1" xmlns="http://www.w3.org/2000/svg" xmlns:xlink="http://www.w3.org/1999/xlink" x="0px" y="0px"
	 width="45.943px" height="45.943px" viewBox="0 0 45.943 45.943" style="enable-background:new 0 0 45.943 45.943;"
	 xml:space="preserve">
<g>
	<g>
		<path d="M20.513,34.339h-0.018c-0.089,0.394-0.178,0.812-0.275,1.157l-0.355,1.273h1.324l-0.373-1.273
			C20.708,35.143,20.602,34.732,20.513,34.339z"/>
		<path d="M33.253,0H12.691C9.146,0,6.272,2.874,6.272,6.419v33.104c0,3.545,2.874,6.42,6.419,6.42h20.562
			c3.545,0,6.418-2.875,6.418-6.42V6.419C39.671,2.874,36.798,0,33.253,0z M15.445,37.213v2.145h-1.333v-5.912
			c0.392-0.07,0.99-0.125,1.817-0.125c0.835,0,1.424,0.16,1.824,0.479c0.382,0.304,0.636,0.802,0.636,1.388
			s-0.192,1.084-0.548,1.422c-0.462,0.436-1.143,0.631-1.943,0.631C15.721,37.24,15.523,37.23,15.445,37.213z M21.846,39.357
			l-0.462-1.567h-1.715l-0.427,1.567h-1.404l1.831-5.959h1.778l1.857,5.959H21.846z M25.128,39.443
			c-0.685,0-1.359-0.178-1.698-0.363l0.277-1.119c0.364,0.188,0.923,0.373,1.501,0.373c0.623,0,0.951-0.26,0.951-0.648
			c0-0.373-0.285-0.586-1.004-0.846c-0.995-0.348-1.644-0.896-1.644-1.77c0-1.021,0.853-1.803,2.266-1.803
			c0.677,0,1.173,0.143,1.529,0.303l-0.302,1.093c-0.24-0.115-0.668-0.284-1.254-0.284s-0.871,0.268-0.871,0.577
			c0,0.383,0.339,0.551,1.111,0.845c1.059,0.391,1.555,0.941,1.555,1.786C27.546,38.591,26.772,39.443,25.128,39.443z
			 M29.485,39.443c-0.684,0-1.359-0.178-1.697-0.363l0.275-1.119c0.364,0.188,0.924,0.373,1.502,0.373
			c0.622,0,0.951-0.26,0.951-0.648c0-0.373-0.284-0.586-1.004-0.846c-0.996-0.348-1.645-0.896-1.645-1.77
			c0-1.021,0.854-1.803,2.267-1.803c0.675,0,1.173,0.143,1.528,0.303l-0.302,1.093c-0.239-0.115-0.667-0.284-1.253-0.284
			s-0.871,0.268-0.871,0.577c0,0.383,0.338,0.551,1.111,0.845c1.059,0.391,1.557,0.941,1.557,1.786
			C31.902,38.591,31.13,39.443,29.485,39.443z M22.994,28.053c-5.407,0-9.806-4.398-9.806-9.806s4.398-9.807,9.806-9.807
			c5.408,0,9.806,4.399,9.806,9.807C32.8,23.654,28.4,28.053,22.994,28.053z"/>
		<path d="M15.997,34.342c-0.275,0-0.472,0.025-0.551,0.055v1.769c0.079,0.026,0.249,0.034,0.444,0.034
			c0.72,0,1.164-0.363,1.164-0.977C17.054,34.671,16.671,34.342,15.997,34.342z"/>
		<path d="M26.569,11.966c-0.029,0.362-0.314,0.7-1.143,0.77c-0.295,0.024-0.963,0.295-1.359,0.716
			c-0.44,0.465-1.646,0.646-1.933,0.368c-0.286-0.275,1.547-1.183,0.93-2.015c-0.199-0.326-0.298-0.581-0.331-0.782
			c-1.316,0.047-2.543,0.446-3.59,1.107c0.535,0.111,0.933,0.472,0.405,1.465c-1.064,2.004-1.97,3.864-0.694,3.363
			s3.002-0.215,3.423,0.787c0.249,0.595,0.788,2.326-1.002,2.523c-1.79,0.197-2.108,1.129-2.076,1.485
			c0.064,0.705-1.663,0.704-1.364,1.554c1.313,1.338,3.14,2.168,5.157,2.168c1.058,0,2.063-0.229,2.969-0.639
			c-0.258-0.543,0.22-1.473-0.321-1.866c-0.788-0.573-1.675-0.218-2.362-1.146c-0.564-0.761,0.429-1.145,1.557-1.557
			c1.127-0.412,0.316-2.312,0-3.311c-0.392-1.232,1.735-2.517,2.666-2.576c0.738-0.048,1.332,0.107,1.806,0.35
			C28.665,13.58,27.716,12.621,26.569,11.966z"/>
	</g>
</g>
<g>
</g>
<g>
</g>
<g>
</g>
<g>
</g>
<g>
</g>
<g>
</g>
<g>
</g>
<g>
</g>
<g>
</g>
<g>
</g>
<g>
</g>
<g>
</g>
<g>
</g>
<g>
</g>
<g>
</g>
</svg>
