<?xml version="1.0" encoding="iso-8859-1"?>
<!-- Generator: Adobe Illustrator 16.0.0, SVG Export Plug-In . SVG Version: 6.00 Build 0)  -->
<!DOCTYPE svg PUBLIC "-//W3C//DTD SVG 1.1//EN" "http://www.w3.org/Graphics/SVG/1.1/DTD/svg11.dtd">
<svg version="1.1" id="Capa_1" xmlns="http://www.w3.org/2000/svg" xmlns:xlink="http://www.w3.org/1999/xlink" x="0px" y="0px"
	 width="590.066px" height="590.067px" viewBox="0 0 590.066 590.067" style="enable-background:new 0 0 590.066 590.067;"
	 xml:space="preserve">
<g>
	<g>
		<polygon points="35.158,563.382 35.215,563.382 35.215,563.382 		"/>
		<polygon points="553.98,563.382 553.98,563.382 554.028,563.382 		"/>
		<path d="M347.479,297c0,0,0.966,3.978-13.493,19.401s-6.751,26.269-5.784,46.522c0.966,20.253,6.751,32.302-13.493,32.302
			c-20.244,0-26.029,23.142-26.029,31.814s11.571,21.21-26.029,22.175c-37.608,0.956-33.756,47.229-33.756,47.229h289.227
			L374.952,249.636C329.156,257.354,347.479,297,347.479,297z"/>
		<circle cx="188.397" cy="455.958" r="21.21"/>
		<circle cx="296.377" cy="301.695" r="21.21"/>
		<circle cx="226.962" cy="386.533" r="13.493"/>
		<circle cx="257.821" cy="324.836" r="13.493"/>
		<circle cx="304.094" cy="355.685" r="13.493"/>
		<circle cx="273.246" cy="371.109" r="7.134"/>
		<circle cx="134.416" cy="479.089" r="7.134"/>
		<circle cx="334.941" cy="247.705" r="7.134"/>
	</g>
	<path d="M583.039,498.546L323.646,47.435c-7.717-13.368-17.776-20.751-28.304-20.751c-10.729,0-20.99,7.564-28.908,21.286
		L7.032,498.289c-7.908,13.692-9.208,27.138-3.586,36.873c5.508,9.533,16.935,14.783,32.207,14.783h518.766
		c15.31,0,26.756-5.23,32.245-14.717C592.237,525.56,590.918,512.202,583.039,498.546z M515.648,510.26H74.281
		c-15.591,0-21.979-11.053-14.197-24.562l220.957-383.579c7.781-13.509,20.507-13.505,28.278,0.011l220.547,383.556
		C537.637,499.203,531.24,510.26,515.648,510.26z"/>
</g>
<g>
</g>
<g>
</g>
<g>
</g>
<g>
</g>
<g>
</g>
<g>
</g>
<g>
</g>
<g>
</g>
<g>
</g>
<g>
</g>
<g>
</g>
<g>
</g>
<g>
</g>
<g>
</g>
<g>
</g>
</svg>
