<?xml version="1.0" encoding="iso-8859-1"?>
<!-- Generator: Adobe Illustrator 16.0.0, SVG Export Plug-In . SVG Version: 6.00 Build 0)  -->
<!DOCTYPE svg PUBLIC "-//W3C//DTD SVG 1.1//EN" "http://www.w3.org/Graphics/SVG/1.1/DTD/svg11.dtd">
<svg version="1.1" id="Capa_1" xmlns="http://www.w3.org/2000/svg" xmlns:xlink="http://www.w3.org/1999/xlink" x="0px" y="0px"
	 width="29.922px" height="29.922px" viewBox="0 0 29.922 29.922" style="enable-background:new 0 0 29.922 29.922;"
	 xml:space="preserve">
<g>
	<g>
		<g>
			<path d="M5.262,8.517c0.086-0.003,0.164-0.053,0.203-0.13c0.039-0.077,0.032-0.169-0.017-0.24L4.327,6.522L4.26,4.549
				C4.257,4.463,4.207,4.385,4.13,4.346C4.053,4.308,3.961,4.314,3.889,4.363L2.264,5.484L0.292,5.551
				c-0.086,0.003-0.164,0.053-0.203,0.13C0.05,5.758,0.057,5.85,0.106,5.921l1.121,1.625l0.067,1.973
				c0.003,0.086,0.053,0.164,0.13,0.203c0.077,0.039,0.169,0.032,0.24-0.017l1.625-1.121L5.262,8.517z"/>
			<path d="M8.954,10.141l-0.471-0.86C8.441,9.206,8.362,9.158,8.276,9.158S8.11,9.206,8.069,9.281l-0.471,0.86l-0.86,0.471
				c-0.076,0.042-0.123,0.121-0.123,0.207c0,0.086,0.047,0.166,0.123,0.207l0.86,0.472l0.471,0.859
				c0.042,0.076,0.121,0.123,0.207,0.123s0.166-0.047,0.207-0.123l0.471-0.859l0.86-0.472c0.076-0.042,0.123-0.121,0.123-0.207
				c0-0.086-0.047-0.166-0.123-0.207L8.954,10.141z"/>
			<path d="M6.255,3.591L7.88,3.595l1.367,0.88c0.072,0.047,0.165,0.05,0.241,0.009c0.076-0.041,0.123-0.12,0.123-0.207l0.004-1.625
				l0.88-1.367c0.047-0.071,0.05-0.164,0.009-0.24c-0.041-0.076-0.12-0.123-0.207-0.123L8.673,0.919l-1.367-0.88
				C7.234-0.01,7.141-0.013,7.065,0.028c-0.076,0.041-0.123,0.12-0.123,0.207L6.938,1.861l-0.88,1.367
				C6.011,3.3,6.008,3.393,6.049,3.469C6.09,3.544,6.168,3.591,6.255,3.591z"/>
			<path d="M12.183,7.035l0.718-0.089l0.653,0.312c0.078,0.038,0.17,0.029,0.24-0.021c0.07-0.051,0.107-0.135,0.096-0.221
				l-0.089-0.718l0.312-0.653c0.038-0.078,0.029-0.17-0.021-0.24C14.041,5.337,13.957,5.3,13.871,5.31l-0.718,0.089L12.5,5.087
				c-0.078-0.038-0.17-0.029-0.24,0.021c-0.07,0.051-0.107,0.135-0.096,0.222l0.089,0.718L11.941,6.7
				c-0.038,0.078-0.029,0.171,0.021,0.24C12.013,7.01,12.097,7.047,12.183,7.035z"/>
			<path d="M29.421,18.38l-0.815-0.814l-9.084-9.084c-0.293-0.293-0.677-0.438-1.062-0.438s-0.769,0.146-1.062,0.438
				c-0.585,0.585-0.586,1.535,0,2.121l8.757,8.757l1.144,1.143c0.586,0.586,1.534,0.586,2.122,0
				c0.146-0.146,0.256-0.314,0.327-0.496c0.073-0.182,0.11-0.373,0.11-0.563C29.86,19.056,29.714,18.672,29.421,18.38z M20.012,11.8
				l-1.905-1.905c-0.195-0.195-0.194-0.512,0-0.707c0.128-0.127,0.277-0.146,0.354-0.146s0.228,0.019,0.354,0.146l1.904,1.905
				L20.012,11.8z"/>
			<path d="M5.027,20.311v8.122c0,0.822,2.854,1.489,6.375,1.489s6.375-0.667,6.375-1.489v-8.122c-1.805,0.403-4.05,0.63-6.375,0.63
				C9.077,20.94,6.831,20.714,5.027,20.311z"/>
			<path d="M11.402,14.809c-5.316,0-9.625,1.148-9.625,2.565c0,0.764,1.261,1.448,3.25,1.918c1.699,0.401,3.927,0.646,6.375,0.646
				c2.449,0,4.676-0.246,6.375-0.646c1.989-0.471,3.25-1.154,3.25-1.918C21.027,15.958,16.718,14.809,11.402,14.809z M11.402,18.963
				c-3.291,0-5.958-0.711-5.958-1.588s2.667-1.589,5.958-1.589s5.958,0.711,5.958,1.589C17.36,18.251,14.692,18.963,11.402,18.963z"
				/>
		</g>
	</g>
</g>
<g>
</g>
<g>
</g>
<g>
</g>
<g>
</g>
<g>
</g>
<g>
</g>
<g>
</g>
<g>
</g>
<g>
</g>
<g>
</g>
<g>
</g>
<g>
</g>
<g>
</g>
<g>
</g>
<g>
</g>
</svg>
