<?xml version="1.0" encoding="iso-8859-1"?>
<!-- Generator: Adobe Illustrator 16.0.0, SVG Export Plug-In . SVG Version: 6.00 Build 0)  -->
<!DOCTYPE svg PUBLIC "-//W3C//DTD SVG 1.1//EN" "http://www.w3.org/Graphics/SVG/1.1/DTD/svg11.dtd">
<svg version="1.1" id="Capa_1" xmlns="http://www.w3.org/2000/svg" xmlns:xlink="http://www.w3.org/1999/xlink" x="0px" y="0px"
	 width="611.979px" height="611.979px" viewBox="0 0 611.979 611.979" style="enable-background:new 0 0 611.979 611.979;"
	 xml:space="preserve">
<g>
	<g id="_x34_6">
		<g>
			<path d="M132.089,285.247h219.965v-73.309H132.089V285.247z M595.518,518.407l-126.66-130.733
				c-3.462-3.339-7.656-5.172-11.688-7.412c18.815-36.653,28.753-82.023,28.346-137.615C484.415,80.88,402.921,0.486,241.073,1.626
				C79.226,2.726-1.128,84.22,0.012,246.149c1.14,161.848,82.635,242.323,244.441,241.143
				c58.484-0.407,105.971-11.688,143.154-33.111c2.281,3.625,4.154,7.494,7.372,10.63l126.659,130.732
				c21.301,20.363,55.062,19.671,75.467-1.629C617.551,572.573,616.817,538.729,595.518,518.407z M242.784,412.762
				c-111.388,0-167.062-55.714-167.062-167.183c0-111.429,55.674-167.021,167.062-167.021c111.387,0,167.061,55.592,167.061,167.021
				C409.845,357.089,354.171,412.762,242.784,412.762z"/>
		</g>
	</g>
</g>
<g>
</g>
<g>
</g>
<g>
</g>
<g>
</g>
<g>
</g>
<g>
</g>
<g>
</g>
<g>
</g>
<g>
</g>
<g>
</g>
<g>
</g>
<g>
</g>
<g>
</g>
<g>
</g>
<g>
</g>
</svg>
