<?xml version="1.0" encoding="iso-8859-1"?>
<!-- Generator: Adobe Illustrator 16.0.0, SVG Export Plug-In . SVG Version: 6.00 Build 0)  -->
<!DOCTYPE svg PUBLIC "-//W3C//DTD SVG 1.1//EN" "http://www.w3.org/Graphics/SVG/1.1/DTD/svg11.dtd">
<svg version="1.1" id="Capa_1" xmlns="http://www.w3.org/2000/svg" xmlns:xlink="http://www.w3.org/1999/xlink" x="0px" y="0px"
	 width="559.497px" height="559.496px" viewBox="0 0 559.497 559.496" style="enable-background:new 0 0 559.497 559.496;"
	 xml:space="preserve">
<g>
	<g>
		<path d="M0,514.201h131.076V45.289H0V514.201z M20.026,469.15h27.909v-7.31H20.026v-18.474h27.909v-7.286H20.026v-16.487h27.909
			v-7.299H20.026v-16.383h57.627v-11.701H20.026v-19.967h27.909v-7.299H20.026v-18.461h27.909v-7.287H20.026v-16.5h27.909v-7.298
			H20.026v-16.395h57.627v-11.689H20.026v-23.588h27.909v-7.31H20.026v-18.45h27.909v-7.304H20.026v-16.488h27.909v-7.292H20.026
			v-16.383h57.627v-11.694H20.026v-18.094h35.493v-7.292H20.026v-18.473h35.493v-7.292H20.026v-16.505h35.493v-7.292H20.026V65.315
			h91.012v428.848H20.026V469.15z"/>
		<path d="M166.924,43.543v472.41h392.572L166.924,43.543z M186.968,483.584h27.909v-7.135h-27.909v-18.064h27.909v-7.123h-27.909
			v-16.15h27.909v-7.135h-27.909v-16.021h57.609v-11.42h-57.609v-19.501h27.909v-7.146h-27.909v-18.053h27.909v-7.146h-27.909
			v-16.126h27.909v-7.146h-27.909v-16.009h57.609v-11.42h-57.609v-23.068h27.909v-7.141h-27.909v-18.053h27.909v-7.094h-27.909
			v-16.144h27.909v-7.123h-27.909v-16.039h57.609v-11.391h-57.609v-17.685h35.487v-7.129h-35.487v-18.064h35.487v-7.129h-35.487
			v-43.2L517.413,496.37H186.968V483.584z"/>
		<path d="M256.832,276.151v162.241h134.841L256.832,276.151z M276.87,331.314l72.696,87.473H276.87V331.314z"/>
	</g>
</g>
<g>
</g>
<g>
</g>
<g>
</g>
<g>
</g>
<g>
</g>
<g>
</g>
<g>
</g>
<g>
</g>
<g>
</g>
<g>
</g>
<g>
</g>
<g>
</g>
<g>
</g>
<g>
</g>
<g>
</g>
</svg>
