<?xml version="1.0" encoding="iso-8859-1"?>
<!-- Generator: Adobe Illustrator 16.0.0, SVG Export Plug-In . SVG Version: 6.00 Build 0)  -->
<!DOCTYPE svg PUBLIC "-//W3C//DTD SVG 1.1//EN" "http://www.w3.org/Graphics/SVG/1.1/DTD/svg11.dtd">
<svg version="1.1" id="Capa_1" xmlns="http://www.w3.org/2000/svg" xmlns:xlink="http://www.w3.org/1999/xlink" x="0px" y="0px"
	 width="971.299px" height="971.3px" viewBox="0 0 971.299 971.3" style="enable-background:new 0 0 971.299 971.3;"
	 xml:space="preserve">
<g>
	<g>
		<path d="M508.45,640.5c11,0,20-9,20-20v-9.3c0-11-9-20-20-20h-334c-11,0-20,9-20,20v9.3c0,11,9,20,20,20H508.45z"/>
		<path d="M718.15,228.2c-31.4-31.4-67.9-56-108.7-73.3l-0.2-0.1c-13.3-5.6-28.699-0.8-36.5,11.3l-23.199,36.1
			c-5.801-2-12-3.2-18.4-3.7c-1.9-0.1-3.9-0.2-5.9-0.2c-5.399,0-10.699,0.6-15.8,1.7l40.9-63.8l12.7-19.8
			c8.899-13.9,4.899-32.5-9.101-41.4L444.65,4.7c-5-3.2-10.6-4.7-16.2-4.7c-9.899,0-19.6,4.9-25.3,13.8l-190.1,296.4
			c-8.9,13.9-4.9,32.5,9.1,41.4l20.7,13.3l-9.4,14.7l-9.4,14.7l-5.9,9.2c-8.9,13.899-4.9,32.5,9.1,41.399l17.8,11.4
			c13.9,8.9,32.5,4.9,41.4-9.1l5.9-9.2l9.399-14.7l9.4-14.7l20.4,13.101c5,3.199,10.6,4.699,16.199,4.699
			c9.9,0,19.601-4.899,25.301-13.8l78-121.7c1.6,7.2,4.199,14,7.8,20.3c3.1,5.5,6.8,10.6,11.1,15.1c14.4,15.2,34.9,24.6,57.601,23.9
			c40.1-1.2,72.699-33.8,73.8-73.9c0.3-9.8-1.3-19.2-4.4-27.9c20.9,11.4,40.3,25.9,57.601,43.2c47.6,47.6,73.8,110.8,73.8,178.101
			c0,67.3-26.2,130.5-73.8,178.1c-29.601,29.6-65.2,50.9-104.101,62.8c-2.899,0.9-5.899,1.3-8.899,1.3h-98.4
			c-16.6,0-30-13.399-30-30V675.2h-143.3v36.699v47.4v50.9c3.1-0.2,6.3-0.301,9.399-0.301H476.35h35.899H683.55h23.6h2.3
			c34.2-6.1,60.3-36,60.3-72c0-22.199-9.899-42.1-25.5-55.5c19.2-24.199,35.101-50.8,47.2-79.399c17.8-42.2,26.9-87,26.9-133.101
			c0-46.1-9-90.899-26.9-133.1C774.15,296.1,749.55,259.5,718.15,228.2z M525.25,301.7c-12.699,0-23.3-8.6-26.399-20.4
			c-0.601-2.2-0.9-4.6-0.9-7c0-13.5,9.8-24.7,22.7-26.9c1.5-0.3,3.1-0.4,4.7-0.4c15.1,0,27.3,12.2,27.3,27.3
			S540.35,301.7,525.25,301.7z M707.15,761.2c-3.2,1.5-6.8,2.3-10.6,2.3c-10.101,0-18.801-5.8-22.9-14.3
			c-1.7-3.4-2.6-7.301-2.6-11.301c0-14.1,11.399-25.6,25.6-25.6c3.8,0,7.4,0.8,10.6,2.3c1.7,0.8,3.4,1.8,4.9,2.9
			c6.1,4.7,10.1,12,10.1,20.3C722.15,748.3,715.95,757.2,707.15,761.2z"/>
		<path d="M269.85,845.3c-65.4,4.8-116.9,59.4-116.9,126h524.2c16.6,0,30-13.4,30-30v-48.1V845h-427.9
			C276.05,845,272.95,845.1,269.85,845.3z"/>
	</g>
</g>
<g>
</g>
<g>
</g>
<g>
</g>
<g>
</g>
<g>
</g>
<g>
</g>
<g>
</g>
<g>
</g>
<g>
</g>
<g>
</g>
<g>
</g>
<g>
</g>
<g>
</g>
<g>
</g>
<g>
</g>
</svg>
