<?xml version="1.0" encoding="iso-8859-1"?>
<!-- Generator: Adobe Illustrator 16.0.0, SVG Export Plug-In . SVG Version: 6.00 Build 0)  -->
<!DOCTYPE svg PUBLIC "-//W3C//DTD SVG 1.1//EN" "http://www.w3.org/Graphics/SVG/1.1/DTD/svg11.dtd">
<svg version="1.1" id="Capa_1" xmlns="http://www.w3.org/2000/svg" xmlns:xlink="http://www.w3.org/1999/xlink" x="0px" y="0px"
	 width="433.985px" height="433.984px" viewBox="0 0 433.985 433.984" style="enable-background:new 0 0 433.985 433.984;"
	 xml:space="preserve">
<g>
	<path d="M300.899,184.9c-0.932-3.23-2.87-6.082-5.534-8.135c-22.628-17.441-45.702-27.336-68.728-29.5
		c-3.742-13.455-3.752-23.508-0.023-30.619c3.826-7.299,12.398-12.904,26.204-17.133c25.719-6.746,44.58-24.809,48.08-46.07
		c3.171-19.266-6.913-38.113-27.667-51.709c-4.893-3.205-11.461-1.84-14.668,3.055s-1.838,11.463,3.056,14.668
		c9.636,6.314,20.645,16.736,18.372,30.547c-2.117,12.854-15.266,24.531-32.717,29.059c-0.144,0.037-0.285,0.074-0.427,0.119
		c-19.629,5.973-32.386,15.01-39,27.627c-5.713,10.9-6.695,24.307-2.976,40.746c-22.203,2.619-44.434,12.395-66.252,29.211
		c-2.665,2.053-4.604,4.904-5.535,8.135c-10.707,37.117-13.565,72.724-8.996,112.058c4.039,34.767,13.619,69.666,24.795,108.41
		c0.932,3.232,2.871,6.084,5.534,8.135c17.133,13.207,39.354,20.48,62.572,20.48c23.218,0,45.44-7.273,62.576-20.479
		c2.666-2.053,4.604-4.903,5.536-8.137c11.176-38.744,20.756-73.645,24.795-108.41C314.465,257.624,311.607,222.017,300.899,184.9z
		 M230.817,249.71c0,7.638-6.19,13.826-13.826,13.826c-7.636,0-13.825-6.188-13.825-13.826v-57.667
		c0-7.635,6.189-13.824,13.825-13.824c7.635,0,13.826,6.189,13.826,13.824V249.71z"/>
</g>
<g>
</g>
<g>
</g>
<g>
</g>
<g>
</g>
<g>
</g>
<g>
</g>
<g>
</g>
<g>
</g>
<g>
</g>
<g>
</g>
<g>
</g>
<g>
</g>
<g>
</g>
<g>
</g>
<g>
</g>
</svg>
