<?xml version="1.0" encoding="iso-8859-1"?>
<!-- Generator: Adobe Illustrator 16.0.0, SVG Export Plug-In . SVG Version: 6.00 Build 0)  -->
<!DOCTYPE svg PUBLIC "-//W3C//DTD SVG 1.1//EN" "http://www.w3.org/Graphics/SVG/1.1/DTD/svg11.dtd">
<svg version="1.1" id="Capa_1" xmlns="http://www.w3.org/2000/svg" xmlns:xlink="http://www.w3.org/1999/xlink" x="0px" y="0px"
	 width="393.202px" height="393.202px" viewBox="0 0 393.202 393.202" style="enable-background:new 0 0 393.202 393.202;"
	 xml:space="preserve">
<g>
	<g>
		<path d="M358.132,35.07c-46.747-46.756-122.828-46.756-169.563,0c-32.318,32.306-43.294,79.596-29.039,122.51L15.736,301.371
			c-20.981,20.981-20.981,55.112,0,76.093s55.112,20.98,76.093,0l10.379-10.382l27.745,0.048c6.536,0.012,12.322-5.783,12.31-12.31
			l-0.039-27.749l0.697-0.689l27.742,0.035c6.536,0.013,12.325-5.771,12.313-12.31l-0.039-27.742l52.668-52.687
			c42.916,14.256,90.222,3.279,122.527-29.039C404.892,157.895,404.892,81.814,358.132,35.07z M328.156,116.138
			c-14.087,14.075-37.008,14.075-51.095,0c-14.087-14.087-14.087-37.005,0-51.092c14.087-14.087,37.008-14.087,51.095,0
			C342.243,79.133,342.243,102.051,328.156,116.138z"/>
	</g>
</g>
<g>
</g>
<g>
</g>
<g>
</g>
<g>
</g>
<g>
</g>
<g>
</g>
<g>
</g>
<g>
</g>
<g>
</g>
<g>
</g>
<g>
</g>
<g>
</g>
<g>
</g>
<g>
</g>
<g>
</g>
</svg>
