<?xml version="1.0" encoding="iso-8859-1"?>
<!-- Generator: Adobe Illustrator 18.1.1, SVG Export Plug-In . SVG Version: 6.00 Build 0)  -->
<svg version="1.1" id="Capa_1" xmlns="http://www.w3.org/2000/svg" xmlns:xlink="http://www.w3.org/1999/xlink" x="0px" y="0px"
	 viewBox="0 0 282.891 282.891" style="enable-background:new 0 0 282.891 282.891;" xml:space="preserve">
<g>
	<path style="fill:#010002;" d="M175.51,210.127c-1.893,9.072-5.564,20.511-12.711,30.992
		c-12.624,18.52-31.721,29.741-45.226,35.822c-8.605,3.878-23.654,5.95-33.086,5.95H46.512c-9.437,0-17.09-7.653-17.09-17.09V17.09
		C29.423,7.653,37.075,0,46.512,0h189.867c9.437,0,17.09,7.653,17.09,17.09v159.006c0,9.437-2.17,24.824-9.758,29.501
		c-3.671,2.268-8.664,3.992-15.403,4.194c-15.044,0.462-27.489-3.476-36.295-7.631C183.468,198.134,177.436,200.892,175.51,210.127z
		"/>
	<path style="fill:#010002;" d="M140.173,281.504c16.312-1.73,35.876-5.439,55.778-13.027c8.817-3.361,21.968-11.4,28.958-17.742
		c9.464-8.583,16.295-18.03,20.902-25.689c4.863-8.082,1.501-10.383-7.522-7.609c-8.974,2.758-21.615,4.123-37.067-0.821
		c-8.991-2.877-17.144,0.734-20.734,9.459c-6.32,15.349-19.744,37.878-46.792,50.839
		C125.183,280.998,130.785,282.505,140.173,281.504z"/>
</g>
<g>
</g>
<g>
</g>
<g>
</g>
<g>
</g>
<g>
</g>
<g>
</g>
<g>
</g>
<g>
</g>
<g>
</g>
<g>
</g>
<g>
</g>
<g>
</g>
<g>
</g>
<g>
</g>
<g>
</g>
</svg>
