<?xml version="1.0" encoding="iso-8859-1"?>
<!-- Generator: Adobe Illustrator 16.0.0, SVG Export Plug-In . SVG Version: 6.00 Build 0)  -->
<!DOCTYPE svg PUBLIC "-//W3C//DTD SVG 1.1//EN" "http://www.w3.org/Graphics/SVG/1.1/DTD/svg11.dtd">
<svg version="1.1" id="Capa_1" xmlns="http://www.w3.org/2000/svg" xmlns:xlink="http://www.w3.org/1999/xlink" x="0px" y="0px"
	 width="493.012px" height="493.012px" viewBox="0 0 493.012 493.012" style="enable-background:new 0 0 493.012 493.012;"
	 xml:space="preserve">
<g>
	<g>
		<g>
			<path d="M24.18,329.494c-6.937,6.933-10.836,16.345-10.836,26.147c0,9.804,3.899,19.218,10.836,26.146l11.592,11.596l-32.42,32.4
				c-4.434,4.453-4.453,11.656,0,16.092l47.799,47.815c2.127,2.128,5.031,3.32,8.043,3.32c3.018,0,5.922-1.192,8.049-3.34l32.4-32.4
				l11.545,11.541c6.932,6.933,16.35,10.831,26.147,10.831c9.804,0,19.218-3.898,26.152-10.831l57.744-57.748L81.911,271.778
				L24.18,329.494z"/>
			<path d="M489.656,51.155L441.855,3.34c-4.448-4.453-11.672-4.453-16.102,0L393.36,35.728l-11.56-11.546
				c-14.445-14.445-37.836-14.445-52.295-0.014l-57.729,57.745l139.303,139.324l57.748-57.748
				c14.429-14.445,14.429-37.855-0.019-52.296L457.268,99.63l32.388-32.387C494.105,62.794,494.105,55.59,489.656,51.155z"/>
			<path d="M254.832,98.859c-9.674-9.674-25.346-9.674-35.018,0c-9.674,9.674-9.674,25.344,0,35.018l139.307,139.307
				c4.839,4.836,11.173,7.254,17.507,7.254c6.338,0,12.672-2.418,17.512-7.254c9.674-9.674,9.674-25.344,0-35.018L254.832,98.859z"
				/>
			<path d="M256.506,273.359l-34.533,34.562l-36.886-36.886l34.552-34.551c9.674-9.655,9.674-25.339,0-35.013
				c-9.675-9.674-25.345-9.674-35.019,0l-34.547,34.546l-16.205-16.2c-9.672-9.674-25.344-9.674-35.018,0
				c-9.668,9.674-9.668,25.344,0,35.014l33.662,33.661c0.02,0.019,0.02,0.035,0.036,0.05c0.015,0.02,0.031,0.02,0.046,0.03
				l105.563,105.563c4.838,4.839,11.172,7.254,17.511,7.254c6.334,0,12.672-2.414,17.508-7.254c9.675-9.674,9.675-25.34,0-35.014
				l-16.188-16.188l34.533-34.562c9.674-9.674,9.674-25.362,0-35.018C281.85,263.685,266.149,263.685,256.506,273.359z"/>
		</g>
	</g>
</g>
<g>
</g>
<g>
</g>
<g>
</g>
<g>
</g>
<g>
</g>
<g>
</g>
<g>
</g>
<g>
</g>
<g>
</g>
<g>
</g>
<g>
</g>
<g>
</g>
<g>
</g>
<g>
</g>
<g>
</g>
</svg>
