<?xml version="1.0" encoding="iso-8859-1"?>
<!-- Generator: Adobe Illustrator 16.0.0, SVG Export Plug-In . SVG Version: 6.00 Build 0)  -->
<!DOCTYPE svg PUBLIC "-//W3C//DTD SVG 1.1//EN" "http://www.w3.org/Graphics/SVG/1.1/DTD/svg11.dtd">
<svg version="1.1" id="Capa_1" xmlns="http://www.w3.org/2000/svg" xmlns:xlink="http://www.w3.org/1999/xlink" x="0px" y="0px"
	 width="23.303px" height="23.303px" viewBox="0 0 23.303 23.303" style="enable-background:new 0 0 23.303 23.303;"
	 xml:space="preserve">
<g>
	<g>
		<polygon points="0,11.738 6.296,15.487 12.596,11.738 6.296,7.992 		"/>
		<polygon points="5.887,4.949 5.887,6.594 5.065,6.594 6.221,7.751 7.373,6.594 6.555,6.594 6.555,4.949 		"/>
		<polygon points="5.887,15.797 5.887,17.442 5.065,17.442 6.221,18.596 7.373,17.442 6.555,17.442 6.555,15.797 		"/>
		<polygon points="15.18,11.469 12.796,11.47 12.796,12.142 15.18,12.14 15.18,12.963 16.335,11.805 15.18,10.65 		"/>
		<polygon points="1.408,22.693 8.576,22.693 10.395,19.112 3.224,19.112 		"/>
		<path d="M21.292,9.703h-2.66c-1.108,0-2.012,0.902-2.012,2.012c0,1.113,0.903,2.015,2.012,2.015h2.66
			c1.11,0,2.011-0.902,2.011-2.015C23.303,10.605,22.402,9.704,21.292,9.703z"/>
		<path d="M4.325,4.635h4.132c1.112,0,2.016-0.903,2.016-2.012c0-1.112-0.904-2.014-2.016-2.014H4.325
			c-1.111,0-2.014,0.902-2.015,2.014C2.31,3.733,3.214,4.635,4.325,4.635z"/>
	</g>
</g>
<g>
</g>
<g>
</g>
<g>
</g>
<g>
</g>
<g>
</g>
<g>
</g>
<g>
</g>
<g>
</g>
<g>
</g>
<g>
</g>
<g>
</g>
<g>
</g>
<g>
</g>
<g>
</g>
<g>
</g>
</svg>
