<?xml version="1.0" encoding="iso-8859-1"?>
<!-- Generator: Adobe Illustrator 16.0.0, SVG Export Plug-In . SVG Version: 6.00 Build 0)  -->
<!DOCTYPE svg PUBLIC "-//W3C//DTD SVG 1.1//EN" "http://www.w3.org/Graphics/SVG/1.1/DTD/svg11.dtd">
<svg version="1.1" id="Capa_1" xmlns="http://www.w3.org/2000/svg" xmlns:xlink="http://www.w3.org/1999/xlink" x="0px" y="0px"
	 width="45.479px" height="45.479px" viewBox="0 0 45.479 45.479" style="enable-background:new 0 0 45.479 45.479;"
	 xml:space="preserve">
<g>
	<g>
		<path d="M9.563,0.362H2.384C1.062,0.362,0,1.421,0,2.742v7.181c0,1.321,1.062,2.403,2.384,2.403h7.18
			c1.322,0,2.399-1.082,2.399-2.403V2.742C11.963,1.421,10.885,0.362,9.563,0.362z M9.803,9.883c0,0.157-0.127,0.284-0.285,0.284
			H2.352c-0.157,0-0.284-0.127-0.284-0.284V2.715c0-0.157,0.127-0.284,0.284-0.284h7.167c0.158,0,0.285,0.127,0.285,0.284
			L9.803,9.883L9.803,9.883z"/>
		<rect x="3.687" y="4.05" width="4.588" height="4.587"/>
		<path d="M9.563,19.072H2.384C1.062,19.072,0,20.126,0,21.447v7.182c0,1.32,1.062,2.408,2.384,2.408h7.18
			c1.322,0,2.399-1.088,2.399-2.408v-7.182C11.963,20.126,10.885,19.072,9.563,19.072z M9.803,28.624
			c0,0.158-0.112,0.254-0.269,0.254H2.373c-0.157,0-0.305-0.096-0.305-0.254v-7.163c0-0.157,0.147-0.32,0.305-0.32h7.162
			c0.156,0,0.269,0.164,0.269,0.32L9.803,28.624L9.803,28.624z"/>
		<rect x="3.687" y="22.76" width="4.588" height="4.588"/>
		<path d="M20.991,12.326h7.181c1.32,0,2.411-1.082,2.411-2.403V2.742c0-1.321-1.091-2.38-2.411-2.38h-7.181
			c-1.322,0-2.372,1.059-2.372,2.38v7.181C18.619,11.244,19.669,12.326,20.991,12.326z M20.688,2.715
			c0-0.157,0.127-0.284,0.284-0.284h7.168c0.156,0,0.283,0.127,0.283,0.284v7.168c0,0.157-0.127,0.284-0.283,0.284h-7.168
			c-0.157,0-0.284-0.127-0.284-0.284V2.715z"/>
		<rect x="22.218" y="4.05" width="4.676" height="4.587"/>
		<path d="M4.299,13.675H2.716c-0.345,0-0.647,0.288-0.647,0.633v1.583c0,0.345,0.302,0.663,0.647,0.663h1.511v0.02
			c0,0.345,0.244,0.609,0.589,0.609h3.549v0.075c0,0.345,0.306,0.645,0.651,0.645h1.583c0.346,0,0.644-0.299,0.644-0.645v-1.534
			c0-0.345-0.298-0.61-0.644-0.61H9.804v-0.806c0-0.345-0.275-0.633-0.621-0.633H8.332c-0.345,0-0.597,0.288-0.597,0.633v0.807
			H4.946v-0.807C4.946,13.962,4.644,13.675,4.299,13.675z"/>
		<path d="M14.391,7.108v3.508c0,0.345,0.237,0.63,0.583,0.63h2.267c0.345,0,0.659-0.285,0.659-0.63V9.033
			c0-0.345-0.314-0.666-0.659-0.666h-0.78V3.51h0.096c0.345,0,0.624-0.266,0.624-0.611v-0.85c0-0.345-0.278-0.607-0.624-0.607
			h-2.999c-0.346,0-0.606,0.263-0.606,0.607v0.85c0,0.345,0.26,0.611,0.606,0.611h0.833v2.249h-0.833
			c-0.346,0-0.606,0.291-0.606,0.636v0.118c0,0.345,0.26,0.595,0.606,0.595H14.391z"/>
		<path d="M16.101,14.399V12.86c0-0.345-0.28-0.625-0.625-0.625h-1.539c-0.345,0-0.625,0.28-0.625,0.625v1.539
			c0,0.345,0.28,0.625,0.625,0.625h1.539C15.821,15.024,16.101,14.745,16.101,14.399z"/>
		<path d="M18.832,14.935c-0.345,0-0.662,0.298-0.662,0.643v0.618c0.54-0.457,1.131-0.901,1.716-1.261H18.832z"/>
		<path d="M18.008,16.374h-2.692c-0.345,0-0.654,0.274-0.654,0.62v3.605c0.72-1.299,1.577-2.514,2.666-3.603
			C17.543,16.781,17.78,16.554,18.008,16.374z"/>
		<path d="M44.627,40.194l-5.887-5.886c3.094-4.955,2.503-11.611-1.812-15.927c-5.019-5.018-13.184-5.019-18.202,0
			c-5.019,5.018-5.009,13.175,0.009,18.194c4.316,4.314,10.935,4.943,15.935,1.803l5.887,5.888c1.129,1.13,2.951,1.139,4.08,0.01
			C45.766,43.144,45.756,41.325,44.627,40.194z M34.477,34.127c-3.666,3.666-9.629,3.666-13.294,0
			c-3.667-3.666-3.667-9.631,0-13.295c3.666-3.665,9.628-3.665,13.294,0C38.141,24.497,38.141,30.461,34.477,34.127z"/>
	</g>
</g>
<g>
</g>
<g>
</g>
<g>
</g>
<g>
</g>
<g>
</g>
<g>
</g>
<g>
</g>
<g>
</g>
<g>
</g>
<g>
</g>
<g>
</g>
<g>
</g>
<g>
</g>
<g>
</g>
<g>
</g>
</svg>
