<?xml version="1.0" encoding="iso-8859-1"?>
<!-- Generator: Adobe Illustrator 16.0.0, SVG Export Plug-In . SVG Version: 6.00 Build 0)  -->
<!DOCTYPE svg PUBLIC "-//W3C//DTD SVG 1.1//EN" "http://www.w3.org/Graphics/SVG/1.1/DTD/svg11.dtd">
<svg version="1.1" id="Capa_1" xmlns="http://www.w3.org/2000/svg" xmlns:xlink="http://www.w3.org/1999/xlink" x="0px" y="0px"
	 width="326.534px" height="326.535px" viewBox="0 0 326.534 326.535" style="enable-background:new 0 0 326.534 326.535;"
	 xml:space="preserve">
<g>
	<path d="M326.533,38.375c0.001-15.521-9.349-29.512-23.688-35.451c-14.338-5.939-30.842-2.657-41.816,8.317l-20.065,20.066
		l14.577,14.577c3.222,3.222,3.222,8.446,0,11.667c-3.223,3.221-8.445,3.222-11.667,0l-14.577-14.577l-37.83,37.831l14.576,14.577
		c3.223,3.222,3.223,8.445,0,11.667c-3.222,3.222-8.444,3.222-11.667,0L179.8,92.473l-37.831,37.83l14.577,14.576
		c3.222,3.222,3.222,8.446,0,11.667c-3.222,3.221-8.445,3.222-11.667,0l-14.577-14.577l-37.83,37.83l14.576,14.577
		c3.222,3.222,3.222,8.445,0,11.667c-3.222,3.222-8.445,3.222-11.667,0l-14.577-14.577l-37.83,37.831l14.576,14.576
		c3.222,3.222,3.222,8.445,0,11.667c-3.222,3.221-8.445,3.222-11.667,0l-14.576-14.576L11.241,261.03
		c-10.974,10.974-14.258,27.477-8.318,41.815c5.939,14.338,19.93,23.688,35.451,23.688l249.788-0.001
		c10.18,0,19.938-4.044,27.134-11.238c7.194-7.195,11.239-16.955,11.239-27.133L326.533,38.375z M249.789,249.79l-118.778,0.002
		l118.779-118.78L249.789,249.79z"/>
</g>
<g>
</g>
<g>
</g>
<g>
</g>
<g>
</g>
<g>
</g>
<g>
</g>
<g>
</g>
<g>
</g>
<g>
</g>
<g>
</g>
<g>
</g>
<g>
</g>
<g>
</g>
<g>
</g>
<g>
</g>
</svg>
