<?xml version="1.0" encoding="iso-8859-1"?>
<!-- Generator: Adobe Illustrator 16.0.0, SVG Export Plug-In . SVG Version: 6.00 Build 0)  -->
<!DOCTYPE svg PUBLIC "-//W3C//DTD SVG 1.1//EN" "http://www.w3.org/Graphics/SVG/1.1/DTD/svg11.dtd">
<svg version="1.1" id="Capa_1" xmlns="http://www.w3.org/2000/svg" xmlns:xlink="http://www.w3.org/1999/xlink" x="0px" y="0px"
	 width="79.536px" height="79.536px" viewBox="0 0 79.536 79.536" style="enable-background:new 0 0 79.536 79.536;"
	 xml:space="preserve">
<g>
	<path style="fill:#010002;" d="M65.482,70.56l3.148,3.666l-58.36,0.016l0.714-4.51l6.411-3.562l-0.997-7.55l8.505-0.741l0.44-3.93
		l9.88-0.85l0.567-7.062l1.696-2.258l3.951,0.85l0.455,3.759l6.32-0.398l0.398,7.109l7.109,2.771l0.399,5.53
		c0.61,0.849,3.712-0.513,4.256,0.279c0.549,0.798-0.497-0.776,0,0c-0.699,3.278,4.147,3.837,4.147,3.837L65.482,70.56z
		 M57.757,46.839l-2.978-1.01c-1.01,0.781-1.393,1.595-1.098,2.443l1.486,1.72l2.253-0.751c0.812-0.274,1.092-0.781,0.844-1.507
		C58.192,47.48,58.026,47.175,57.757,46.839z M55.862,38.921c-0.658-0.316-1.336-0.371-2.072-0.127
		c-0.393,0.127-0.792,0.388-1.242,0.774l0.114,3.526l3.423-0.425c0.896-1.022,1.237-1.848,1.03-2.485
		C56.929,39.675,56.524,39.25,55.862,38.921z M66.343,43.819l0.021,0.073c-0.124,0.041-0.746-0.104-1.864-0.456
		c-0.539-0.181-1.082-0.383-1.626-0.596c-0.776,0.259-1.253,1.031-1.439,2.305c-0.187,1.279-0.062,2.562,0.362,3.842
		c0.108,0.353,0.383,0.725,0.808,1.16l0.726,0.684l1.263-0.067c1.419-0.616,2.227-0.958,2.444-1.03
		c0.508-0.306,0.859-0.953,1.03-1.916c0.177-0.974,0.109-1.896-0.196-2.791C67.533,44.001,67.036,43.592,66.343,43.819z
		 M60.833,54.326l-0.74,2.677c0.554,0.482,1.341,0.818,2.396,0.974l2.496-0.839l-1.264-3.779L60.833,54.326z M73.54,49.489
		l-0.746,2.683c0.549,0.481,1.336,0.813,2.403,0.979l2.495-0.834l-1.269-3.785L73.54,49.489z M75.378,69.617l-0.74,2.677
		c0.549,0.482,1.341,0.813,2.393,0.979l2.506-0.833l-1.264-3.785L75.378,69.617z M74.674,57.718c-1.444-1.61-3.236-2.061-5.37-1.346
		l-0.32,0.104c-1.005,0.891-1.844,2.195-2.537,3.883c-0.684,1.605-0.875,2.874-0.57,3.801c0.031,0.072,0.694,0.674,1.973,1.823
		c1.373,1.123,2.129,1.874,2.295,2.247l4.044-1.352c0.466-0.155,0.921-0.373,1.352-0.657c0.439-0.28,0.797-0.611,1.103-0.964
		c0.295-0.352,0.513-0.714,0.652-1.076c0.13-0.357,0.15-0.694,0.036-1.021C76.45,60.529,75.564,58.723,74.674,57.718z
		 M33.378,40.534c-0.678,4.042-2.752,7.77-2.752,7.77s-4.261,0.326-8.217-0.75c-3.951-1.072-10.028-11.092-10.028-11.092
		l6.237-3.998l-7.503-12.422l-5.844-1.279l-2.604-4.067l-1.134,0.728L0,13.031l12.073-7.736l1.532,2.387l-1.134,0.725l2.615,4.073
		l-1.295,5.905l7.482,12.384l6.209-3.99C27.483,26.778,34.052,36.493,33.378,40.534z M6.532,16.956l5.24,1.149l1.145-5.232
		l-2.154-3.369l-6.382,4.093L6.532,16.956z"/>
</g>
<g>
</g>
<g>
</g>
<g>
</g>
<g>
</g>
<g>
</g>
<g>
</g>
<g>
</g>
<g>
</g>
<g>
</g>
<g>
</g>
<g>
</g>
<g>
</g>
<g>
</g>
<g>
</g>
<g>
</g>
</svg>
