<?xml version="1.0" encoding="iso-8859-1"?>
<!-- Generator: Adobe Illustrator 16.0.0, SVG Export Plug-In . SVG Version: 6.00 Build 0)  -->
<!DOCTYPE svg PUBLIC "-//W3C//DTD SVG 1.1//EN" "http://www.w3.org/Graphics/SVG/1.1/DTD/svg11.dtd">
<svg version="1.1" id="Capa_1" xmlns="http://www.w3.org/2000/svg" xmlns:xlink="http://www.w3.org/1999/xlink" x="0px" y="0px"
	 width="612px" height="612px" viewBox="0 0 612 612" style="enable-background:new 0 0 612 612;" xml:space="preserve">
<g>
	<g id="Shape_363_1_">
		<g>
			<path d="M107.1,499.816c-2.815,0-5.1,2.273-5.1,5.09c0,2.814,2.285,5.109,5.1,5.109c2.815,0,5.1-2.295,5.1-5.109
				C112.2,502.09,109.915,499.816,107.1,499.816z M18.482,377.426h574.893c16.055,0,19.777-3.295,18.329-15.197L560.684,10.409
				c-0.204-6.069-3.08-9.435-10.169-10.394H61.23c-5.437,0-9.18,3.845-10.057,10.394L0.153,362.229
				C-1.061,370.592,7.14,377.426,18.482,377.426z M178.5,499.816c-2.815,0-5.1,2.273-5.1,5.09c0,2.814,2.285,5.109,5.1,5.109
				s5.1-2.295,5.1-5.109C183.6,502.09,181.315,499.816,178.5,499.816z M504.9,499.816c-2.815,0-5.101,2.273-5.101,5.09
				c0,2.814,2.285,5.109,5.101,5.109c2.814,0,5.1-2.295,5.1-5.109C510,502.09,507.715,499.816,504.9,499.816z M433.5,499.816
				c-2.815,0-5.1,2.273-5.1,5.09c0,2.814,2.284,5.109,5.1,5.109s5.1-2.295,5.1-5.109C438.6,502.09,436.315,499.816,433.5,499.816z
				 M591.6,397.816H20.4c-11.271,0-20.4,9.129-20.4,20.398v173.381c0,11.281,9.129,20.389,20.4,20.389h571.2
				c11.261,0,20.4-9.107,20.4-20.389V418.215C612,406.945,602.86,397.816,591.6,397.816z M107.1,530.416
				c-14.086,0-25.5-11.424-25.5-25.51c0-14.076,11.414-25.48,25.5-25.48c14.086,0,25.5,11.404,25.5,25.48
				C132.6,518.992,121.186,530.416,107.1,530.416z M178.5,530.416c-14.086,0-25.5-11.424-25.5-25.51
				c0-14.076,11.414-25.48,25.5-25.48s25.5,11.404,25.5,25.48C204,518.992,192.586,530.416,178.5,530.416z M433.5,530.416
				c-14.086,0-25.5-11.424-25.5-25.51c0-14.076,11.414-25.48,25.5-25.48s25.5,11.404,25.5,25.48
				C459,518.992,447.586,530.416,433.5,530.416z M504.9,530.416c-14.087,0-25.5-11.424-25.5-25.51c0-14.076,11.413-25.48,25.5-25.48
				c14.086,0,25.5,11.404,25.5,25.48C530.4,518.992,518.986,530.416,504.9,530.416z"/>
		</g>
	</g>
</g>
<g>
</g>
<g>
</g>
<g>
</g>
<g>
</g>
<g>
</g>
<g>
</g>
<g>
</g>
<g>
</g>
<g>
</g>
<g>
</g>
<g>
</g>
<g>
</g>
<g>
</g>
<g>
</g>
<g>
</g>
</svg>
