<?xml version="1.0" encoding="iso-8859-1"?>
<!-- Generator: Adobe Illustrator 16.0.0, SVG Export Plug-In . SVG Version: 6.00 Build 0)  -->
<!DOCTYPE svg PUBLIC "-//W3C//DTD SVG 1.1//EN" "http://www.w3.org/Graphics/SVG/1.1/DTD/svg11.dtd">
<svg version="1.1" id="Capa_1" xmlns="http://www.w3.org/2000/svg" xmlns:xlink="http://www.w3.org/1999/xlink" x="0px" y="0px"
	 width="143.266px" height="143.266px" viewBox="0 0 143.266 143.266" style="enable-background:new 0 0 143.266 143.266;"
	 xml:space="preserve">
<g>
	<g>
		<g>
			<path d="M46.765,4.482C20.938,4.482,0,11.46,0,20.07v103.126c0,8.609,20.938,15.588,46.765,15.588
				c25.824,0,46.765-6.979,46.765-15.588V20.07C93.529,11.466,72.589,4.482,46.765,4.482z M46.765,7.6
				c26.644,0,43.647,7.389,43.647,12.471c0,5.081-17.004,12.471-43.647,12.471c-26.646,0-43.647-7.39-43.647-12.471
				C3.118,14.989,20.119,7.6,46.765,7.6z M44.356,65.525H34.032v30.653h-8.588V65.525H15.287v-7.182h29.076v7.182H44.356z
				 M73.04,93.14c-2.75,2.192-7.353,3.422-14.879,3.422c-4.208,0-7.35-0.279-9.258-0.56V58.843c2.244-0.45,6.789-0.785,11.055-0.785
				c5.219,0,8.424,0.502,11.174,2.131c2.637,1.403,4.545,3.982,4.545,7.407c0,3.374-1.963,6.51-6.235,8.081v0.109
				c4.321,1.182,7.526,4.433,7.526,9.328C76.967,88.536,75.396,91.234,73.04,93.14z"/>
			<path d="M60.295,79.452h-2.92v10.655c0.844,0.116,1.852,0.116,3.312,0.116c3.873,0,7.295-1.455,7.295-5.45
				C67.989,80.962,64.561,79.452,60.295,79.452z"/>
			<path d="M67.091,68.668c0-2.862-2.189-4.385-6.068-4.385c-1.851,0-2.917,0.113-3.647,0.226v8.817h2.808
				C64.67,73.326,67.091,71.475,67.091,68.668z"/>
		</g>
		<g>
			<g>
				<rect x="112.966" y="5.542" width="3.995" height="34.681"/>
				<rect x="112.966" y="52.206" width="3.995" height="85.519"/>
			</g>
			<g>
				<rect x="102.566" y="42.22" width="24.795" height="7.992"/>
			</g>
			<g>
				<g>
					<rect x="127.288" y="4.546" width="15.978" height="1.994"/>
				</g>
				<g>
					<rect x="127.288" y="14.709" width="15.978" height="2"/>
				</g>
				<g>
					<rect x="127.288" y="24.877" width="15.978" height="1.995"/>
				</g>
				<g>
					<rect x="127.288" y="35.046" width="15.978" height="1.998"/>
				</g>
				<g>
					<rect x="127.288" y="45.218" width="15.978" height="2"/>
				</g>
				<g>
					<rect x="127.288" y="55.381" width="15.978" height="2"/>
				</g>
				<g>
					<rect x="127.288" y="65.55" width="15.978" height="1.991"/>
				</g>
				<g>
					<rect x="127.288" y="75.726" width="15.978" height="1.99"/>
				</g>
				<g>
					<rect x="127.288" y="85.894" width="15.978" height="1.998"/>
				</g>
				<g>
					<rect x="127.288" y="96.051" width="15.978" height="2.003"/>
				</g>
				<g>
					<rect x="127.288" y="106.22" width="15.978" height="1.997"/>
				</g>
				<g>
					<rect x="127.288" y="116.389" width="15.978" height="1.997"/>
				</g>
				<g>
					<rect x="127.288" y="126.563" width="15.978" height="2.003"/>
				</g>
				<g>
					<rect x="127.288" y="136.726" width="15.978" height="1.998"/>
				</g>
			</g>
		</g>
	</g>
</g>
<g>
</g>
<g>
</g>
<g>
</g>
<g>
</g>
<g>
</g>
<g>
</g>
<g>
</g>
<g>
</g>
<g>
</g>
<g>
</g>
<g>
</g>
<g>
</g>
<g>
</g>
<g>
</g>
<g>
</g>
</svg>
