<?xml version="1.0" encoding="iso-8859-1"?>
<!-- Generator: Adobe Illustrator 16.0.0, SVG Export Plug-In . SVG Version: 6.00 Build 0)  -->
<!DOCTYPE svg PUBLIC "-//W3C//DTD SVG 1.1//EN" "http://www.w3.org/Graphics/SVG/1.1/DTD/svg11.dtd">
<svg version="1.1" id="Capa_1" xmlns="http://www.w3.org/2000/svg" xmlns:xlink="http://www.w3.org/1999/xlink" x="0px" y="0px"
	 width="491.54px" height="491.541px" viewBox="0 0 491.54 491.541" style="enable-background:new 0 0 491.54 491.541;"
	 xml:space="preserve">
<g>
	<g>
		<g>
			<path d="M481.844,106.494L385.088,9.707c-6.209-6.209-14.619-9.703-23.402-9.703c-8.777,0-17.204,3.494-23.401,9.689
				L121.852,226.125c-12.931,12.93-12.931,33.873,0,46.804l96.755,96.773c12.931,12.93,33.875,12.93,46.805,0l216.434-216.401
				C494.771,140.372,494.771,119.426,481.844,106.494z"/>
			<path d="M6.023,380.447c-8.031,8.026-8.031,21.055,0,29.082l75.937,75.973c3.849,3.861,9.085,6.035,14.542,6.035
				c5.46,0,10.694-2.174,14.558-6.035l90.497-90.516L96.501,289.95L6.023,380.447z M131.318,400.958
				c7.966,7.967,7.935,20.879-0.018,28.844c-7.979,7.969-20.864,7.98-28.843,0c-8.001-7.979-7.983-20.877-0.019-28.844
				C110.424,393.007,123.322,392.976,131.318,400.958z M90.626,389.144c-7.979,7.968-20.927,7.918-28.878-0.028
				c-7.996-8.002-7.965-20.884,0-28.865c7.951-7.947,20.882-7.979,28.864,0C98.579,368.213,98.579,381.179,90.626,389.144z"/>
		</g>
	</g>
</g>
<g>
</g>
<g>
</g>
<g>
</g>
<g>
</g>
<g>
</g>
<g>
</g>
<g>
</g>
<g>
</g>
<g>
</g>
<g>
</g>
<g>
</g>
<g>
</g>
<g>
</g>
<g>
</g>
<g>
</g>
</svg>
