<?xml version="1.0" encoding="iso-8859-1"?>
<!-- Generator: Adobe Illustrator 16.0.0, SVG Export Plug-In . SVG Version: 6.00 Build 0)  -->
<!DOCTYPE svg PUBLIC "-//W3C//DTD SVG 1.1//EN" "http://www.w3.org/Graphics/SVG/1.1/DTD/svg11.dtd">
<svg version="1.1" id="Capa_1" xmlns="http://www.w3.org/2000/svg" xmlns:xlink="http://www.w3.org/1999/xlink" x="0px" y="0px"
	 width="591.6px" height="591.6px" viewBox="0 0 591.6 591.6" style="enable-background:new 0 0 591.6 591.6;" xml:space="preserve"
	>
<g>
	<g id="Layer_1_88_">
		<g>
			<path d="M557.05,562.275l-2.55-61.2h-204c-1.275,11.475-10.2,19.125-21.675,19.125H261.25c-11.475,0-20.4-8.925-21.675-19.125
				h-204l-1.275,61.2c0,7.649,2.55,15.3,7.65,20.399c5.1,5.101,12.75,8.925,20.4,8.925h467.925c7.65,0,15.301-3.824,20.4-8.925
				C554.5,577.575,558.325,569.925,557.05,562.275z"/>
			<path d="M262.525,429.675H330.1c11.476,0,20.4,8.925,21.675,20.4h201.45l-5.1-103.275H351.774
				c-1.274,11.476-10.199,19.125-21.675,19.125h-67.575c-11.475,0-20.4-8.925-21.675-19.125H43.225l-5.1,103.275h201.45
				C240.85,438.6,251.05,429.675,262.525,429.675z"/>
			<path d="M262.525,274.125H330.1c11.476,0,20.4,8.925,21.675,20.4H546.85l-2.55-47.175c0-10.2-6.375-19.125-15.3-24.225
				c-51-24.225-86.7-76.5-86.7-137.7c0-16.575,2.55-33.15,7.65-48.45c2.55-8.925,1.274-17.85-3.825-25.5
				C441.024,3.825,432.1,0,423.175,0H416.8c-12.75,0-24.225,8.925-26.775,21.675c-10.199,43.35-48.449,75.225-94.35,75.225
				c-45.9,0-84.15-31.875-94.35-75.225C198.775,8.925,187.3,0,174.55,0h-6.375c-8.925,0-17.85,3.825-22.95,11.475
				c-5.1,7.65-6.375,16.575-3.825,25.5c5.1,15.3,7.65,31.875,7.65,48.45c0,61.2-35.7,113.475-86.7,137.7
				c-8.925,3.825-15.3,14.025-15.3,24.225l-2.55,47.175h195.075C240.85,283.05,251.05,274.125,262.525,274.125z"/>
		</g>
	</g>
</g>
<g>
</g>
<g>
</g>
<g>
</g>
<g>
</g>
<g>
</g>
<g>
</g>
<g>
</g>
<g>
</g>
<g>
</g>
<g>
</g>
<g>
</g>
<g>
</g>
<g>
</g>
<g>
</g>
<g>
</g>
</svg>
