<?xml version="1.0" encoding="iso-8859-1"?>
<!-- Generator: Adobe Illustrator 16.0.0, SVG Export Plug-In . SVG Version: 6.00 Build 0)  -->
<!DOCTYPE svg PUBLIC "-//W3C//DTD SVG 1.1//EN" "http://www.w3.org/Graphics/SVG/1.1/DTD/svg11.dtd">
<svg version="1.1" id="Capa_1" xmlns="http://www.w3.org/2000/svg" xmlns:xlink="http://www.w3.org/1999/xlink" x="0px" y="0px"
	 width="466px" height="466px" viewBox="0 0 466 466" style="enable-background:new 0 0 466 466;" xml:space="preserve">
<g>
	<g>
		<g>
			<path d="M370.001,26.35H18.5C8.282,26.35,0,34.633,0,44.85v289.477c0,10.218,8.282,18.5,18.5,18.5h262.662l-20.326-23.571
				h-48.548v-29.603h25.435l-0.183-0.224c-6.49-7.407-10.784-15.061-12.85-22.429H44.4V102.175h299.7V277h-40.213
				c6.104,6.485,12.491,13.053,17.853,18.368c3.759-3.521,8.191-7.416,13.159-11.314c16.925-13.288,33.388-21.414,48.932-24.151
				c1.562-0.274,3.121-0.479,4.672-0.647V44.85C388.501,34.633,380.219,26.35,370.001,26.35z M129.038,299.653h47.175v29.601
				h-47.175V299.653z M45.787,299.653h47.176v29.601H45.787V299.653z M92.963,79.521H45.787v-29.6h47.176V79.521z M176.213,79.521
				h-47.175v-29.6h47.175V79.521z M259.463,79.521h-47.175v-29.6h47.175V79.521z M342.713,79.521h-47.175v-29.6h47.175V79.521z"/>
			<path d="M464.662,354.325c-4.595-24.766-20.357-47.662-29.344-59.11c-12.191-15.53-27.666-21.767-45.99-18.538
				c-13.086,2.305-27.307,9.429-42.271,21.177c-10.572,8.303-18.558,16.611-22.088,20.479c-8.874-7.644-33.651-33.175-45.816-47.571
				c-6.109-7.229-21.865-22.604-33.621-11.991c-12.654,12.301,5.882,32.396,6.362,32.979l74.362,91.024
				c-0.301,0.402-0.637,0.752-1.021,1.055c-7.133,5.601-27.943-4.69-36.344-10.245c-7.68-5.076-20.609-5.037-27.137,0.086
				c-2.612,2.053-4.06,4.842-4.075,7.854c-0.021,4.338,2.815,8.82,8.422,13.313c0.063,0.051,0.177,0.149,0.339,0.289
				c8.286,7.1,30.764,24.782,60.445,35.668c19.027,6.979,37.564,9.854,55.104,8.551c21.754-1.621,42.023-9.693,60.246-24
				C461.781,399.991,469.327,379.461,464.662,354.325z"/>
			<path d="M175.976,127.423c-2.845-2.387-6.815-2.905-10.183-1.335c-3.365,1.57-5.517,4.948-5.517,8.662v100.833
				c0,3.715,2.151,7.092,5.517,8.661c1.291,0.604,2.671,0.897,4.042,0.897c2.204,0,4.386-0.763,6.141-2.233l60.163-50.416
				c2.168-1.817,3.42-4.501,3.42-7.328s-1.252-5.511-3.42-7.327L175.976,127.423z"/>
		</g>
	</g>
</g>
<g>
</g>
<g>
</g>
<g>
</g>
<g>
</g>
<g>
</g>
<g>
</g>
<g>
</g>
<g>
</g>
<g>
</g>
<g>
</g>
<g>
</g>
<g>
</g>
<g>
</g>
<g>
</g>
<g>
</g>
</svg>
