<?xml version="1.0" encoding="iso-8859-1"?>
<!-- Generator: Adobe Illustrator 16.0.0, SVG Export Plug-In . SVG Version: 6.00 Build 0)  -->
<!DOCTYPE svg PUBLIC "-//W3C//DTD SVG 1.1//EN" "http://www.w3.org/Graphics/SVG/1.1/DTD/svg11.dtd">
<svg version="1.1" id="Capa_1" xmlns="http://www.w3.org/2000/svg" xmlns:xlink="http://www.w3.org/1999/xlink" x="0px" y="0px"
	 width="412.996px" height="412.996px" viewBox="0 0 412.996 412.996" style="enable-background:new 0 0 412.996 412.996;"
	 xml:space="preserve">
<g>
	<g>
		<g>
			<path d="M392.996,28.338H20c-11.047,0-20,8.954-20,20v234c0,11.046,8.953,20,20,20h139.498v45.32h-54.283
				c-10.201,0-18.5,8.299-18.5,18.5s8.299,18.5,18.5,18.5h202.566c10.201,0,18.5-8.299,18.5-18.5s-8.299-18.5-18.5-18.5h-54.283
				v-45.32h139.498c11.047,0,20-8.954,20-20v-234C412.996,37.292,404.043,28.338,392.996,28.338z M382.996,272.338H30v-214h352.996
				V272.338z"/>
			<path d="M141.846,229.04c2.652,1.974,4.604,4.798,6.33,7.289c2.824,4.085,5.264,7.611,9.936,7.611
				c4.673,0,7.113-3.526,9.939-7.612c3.2-4.629,6.828-9.875,14.252-9.875c7.422,0,11.051,5.246,14.254,9.876
				c2.824,4.085,5.263,7.611,9.936,7.611c4.674,0,7.114-3.526,9.938-7.612c3.201-4.629,6.832-9.875,14.254-9.875
				c7.425,0,11.053,5.247,14.257,9.875c2.823,4.085,5.266,7.612,9.938,7.612s7.115-3.527,9.94-7.612
				c1.723-2.49,3.675-5.314,6.33-7.288c0.442-0.328,0.707-0.852,0.707-1.403V159.3c0-36.039-29.319-65.358-65.358-65.358
				S141.14,123.261,141.14,159.3v68.337C141.14,228.189,141.401,228.711,141.846,229.04z M216.487,158.024
				c0.892-4.134,3.39-7.929,7.027-10.681c3.314-2.506,7.279-3.885,11.168-3.885c4.505,0,8.494,1.86,10.946,5.103
				c2.275,3.01,3.048,6.892,2.177,10.93c-0.892,4.136-3.39,7.929-7.027,10.681c-3.314,2.507-7.278,3.887-11.166,3.887
				c-4.505,0-8.497-1.86-10.948-5.105C216.389,165.945,215.616,162.064,216.487,158.024z M167.365,148.561
				c2.452-3.242,6.443-5.103,10.947-5.103c3.888,0,7.853,1.379,11.168,3.885c3.639,2.752,6.137,6.547,7.028,10.681
				c0.871,4.04,0.099,7.921-2.177,10.929c-2.451,3.245-6.443,5.105-10.948,5.105c-3.888,0-7.852-1.38-11.166-3.887
				c-3.64-2.752-6.138-6.545-7.029-10.681C164.317,155.453,165.09,151.571,167.365,148.561z"/>
		</g>
	</g>
</g>
<g>
</g>
<g>
</g>
<g>
</g>
<g>
</g>
<g>
</g>
<g>
</g>
<g>
</g>
<g>
</g>
<g>
</g>
<g>
</g>
<g>
</g>
<g>
</g>
<g>
</g>
<g>
</g>
<g>
</g>
</svg>
