<?xml version="1.0" encoding="iso-8859-1"?>
<!-- Generator: Adobe Illustrator 16.0.0, SVG Export Plug-In . SVG Version: 6.00 Build 0)  -->
<!DOCTYPE svg PUBLIC "-//W3C//DTD SVG 1.1//EN" "http://www.w3.org/Graphics/SVG/1.1/DTD/svg11.dtd">
<svg version="1.1" id="Capa_1" xmlns="http://www.w3.org/2000/svg" xmlns:xlink="http://www.w3.org/1999/xlink" x="0px" y="0px"
	 width="544px" height="544px" viewBox="0 0 544 544" style="enable-background:new 0 0 544 544;" xml:space="preserve">
<g>
	<path d="M445.02,477.019c-6.143,0-12.283-2.342-16.971-7.027c-9.371-9.373-9.371-24.568,0-33.941
		C471.867,392.23,496,333.972,496,272.001c0-61.969-24.133-120.229-67.951-164.049c-9.371-9.373-9.371-24.569,0-33.941
		c9.373-9.372,24.568-9.372,33.941,0c52.885,52.886,82.01,123.2,82.01,197.991c0,74.791-29.125,145.104-82.01,197.99
		C457.305,474.677,451.162,477.019,445.02,477.019z M359.766,431.765c-6.145,0-12.283-2.344-16.971-7.028
		c-9.373-9.372-9.373-24.567,0-33.94c65.502-65.504,65.502-172.085,0-237.588c-9.373-9.373-9.373-24.569,0-33.941
		c9.371-9.371,24.568-9.372,33.939,0C417.531,160.062,440,214.304,440,272s-22.469,111.938-63.266,152.735
		C372.049,429.421,365.906,431.765,359.766,431.765z M274.51,386.509c-6.143,0-12.284-2.342-16.971-7.028
		c-9.373-9.373-9.373-24.567,0-33.94c40.551-40.549,40.551-106.528,0-147.078c-9.373-9.373-9.373-24.569,0-33.941
		s24.568-9.372,33.941,0c59.264,59.265,59.264,155.696,0,214.961C286.794,384.167,280.652,386.509,274.51,386.509z M200.666,55.334
		C213.5,42.5,224,46.85,224,65v414c0,18.15-10.5,22.5-23.334,9.666L80,368H0V176h80L200.666,55.334z"/>
</g>
<g>
</g>
<g>
</g>
<g>
</g>
<g>
</g>
<g>
</g>
<g>
</g>
<g>
</g>
<g>
</g>
<g>
</g>
<g>
</g>
<g>
</g>
<g>
</g>
<g>
</g>
<g>
</g>
<g>
</g>
</svg>
