<?xml version="1.0" encoding="iso-8859-1"?>
<!-- Generator: Adobe Illustrator 16.0.0, SVG Export Plug-In . SVG Version: 6.00 Build 0)  -->
<!DOCTYPE svg PUBLIC "-//W3C//DTD SVG 1.1//EN" "http://www.w3.org/Graphics/SVG/1.1/DTD/svg11.dtd">
<svg version="1.1" id="Capa_1" xmlns="http://www.w3.org/2000/svg" xmlns:xlink="http://www.w3.org/1999/xlink" x="0px" y="0px"
	 width="27.083px" height="27.084px" viewBox="0 0 27.083 27.084" style="enable-background:new 0 0 27.083 27.084;"
	 xml:space="preserve">
<g>
	<path style="fill:#333333;" d="M22.292,7.292h-1.775c-1.718-1.913-4.201-3.125-6.975-3.125c-2.773,0-5.257,1.212-6.974,3.125H4.792
		C2.146,7.292,0,9.437,0,12.083V15c0,2.646,2.146,4.792,4.792,4.792h1.776c1.716,1.913,4.2,3.125,6.974,3.125
		c2.774,0,5.257-1.212,6.975-3.125h1.775c2.646,0,4.792-2.146,4.792-4.792v-2.917C27.083,9.437,24.937,7.292,22.292,7.292z
		 M8.089,16.776H6.56l-0.671-3.952l-0.655,3.952H3.72l-1.435-6.415h1.716L4.5,14.113l0.656-3.751h1.513l0.64,3.751l0.515-3.769
		h1.685L8.089,16.776z M11.015,9.976c0.496,0,0.896,0.371,0.896,0.829c0,0.458-0.402,0.829-0.896,0.829
		c-0.496,0-0.897-0.371-0.897-0.829C10.118,10.348,10.519,9.976,11.015,9.976z M10.227,12.104h1.544v4.64h-1.544V12.104z M26.042,15
		c0,2.066-1.683,3.75-3.75,3.75H11.458c1.458,0,2.083-1.683,2.083-3.75v-2.917c0-2.068,1.683-3.75,3.75-3.75h5
		c2.066,0,3.75,1.682,3.75,3.75V15z"/>
	<rect x="22.271" y="12.104" style="fill:#333333;" width="1.545" height="4.64"/>
	<ellipse style="fill:#333333;" cx="23.059" cy="10.805" rx="0.896" ry="0.829"/>
	<polygon style="fill:#333333;" points="16.186,10.362 21.319,10.362 21.319,11.869 17.839,11.869 17.839,13.292 20.975,13.292 
		20.975,14.783 17.839,14.783 17.839,16.728 16.186,16.728 	"/>
</g>
<g>
</g>
<g>
</g>
<g>
</g>
<g>
</g>
<g>
</g>
<g>
</g>
<g>
</g>
<g>
</g>
<g>
</g>
<g>
</g>
<g>
</g>
<g>
</g>
<g>
</g>
<g>
</g>
<g>
</g>
</svg>
