<?xml version="1.0" encoding="iso-8859-1"?>
<!-- Generator: Adobe Illustrator 16.0.0, SVG Export Plug-In . SVG Version: 6.00 Build 0)  -->
<!DOCTYPE svg PUBLIC "-//W3C//DTD SVG 1.1//EN" "http://www.w3.org/Graphics/SVG/1.1/DTD/svg11.dtd">
<svg version="1.1" id="Capa_1" xmlns="http://www.w3.org/2000/svg" xmlns:xlink="http://www.w3.org/1999/xlink" x="0px" y="0px"
	 width="27.083px" height="27.083px" viewBox="0 0 27.083 27.083" style="enable-background:new 0 0 27.083 27.083;"
	 xml:space="preserve">
<g>
	<g>
		<path style="fill:#333333;" d="M11.021,13.904c-1.018,0.282-1.601,0.998-1.601,1.884c-0.033,0.933,0.667,1.768,1.801,1.768h0.017
			c1.083,0,1.801-0.684,1.801-1.619C13.039,14.837,12.238,14.236,11.021,13.904z"/>
		<path style="fill:#333333;" d="M11.42,12.386c0.751-0.217,1.352-0.817,1.352-1.633c0-0.75-0.451-1.535-1.535-1.535h-0.017
			c-1.035,0-1.568,0.683-1.568,1.467C9.654,11.569,10.388,12.102,11.42,12.386z"/>
		<path style="fill:#333333;" d="M20.154,13.102c-0.768,0-1.451,0.466-1.769,1.117c-0.083,0.167-0.132,0.366-0.132,0.651
			c0.032,1.433,0.7,2.601,2.034,2.601h0.018c1.051,0,1.734-0.916,1.734-2.218C22.038,13.986,21.354,13.102,20.154,13.102z"/>
		<path style="fill:#333333;" d="M23.958,0H3.125C1.4,0,0,1.4,0,3.125v20.833c0,1.726,1.4,3.125,3.125,3.125h20.833
			c1.725,0,3.125-1.399,3.125-3.125V3.125C27.083,1.4,25.683,0,23.958,0z M5.365,18.821l-0.553-0.92
			c-0.151-0.242-0.282-0.487-0.413-0.74H4.381c-0.131,0.263-0.273,0.498-0.413,0.751l-0.535,0.909H2.167l1.584-2.335l-1.529-2.232
			h1.285l0.544,0.861c0.151,0.235,0.282,0.469,0.412,0.703h0.019c0.14-0.252,0.262-0.487,0.404-0.721l0.505-0.844h1.257L5.12,16.439
			l1.557,2.382H5.365L5.365,18.821z M11.172,19.005c-2.536,0-3.853-1.468-3.853-2.984c0-1.333,0.785-2.251,2.035-2.802v-0.05
			c-1.134-0.55-1.651-1.451-1.651-2.401C7.703,9,9.271,7.8,11.305,7.8h0.017c2.351,0,3.401,1.4,3.401,2.734
			c0,0.917-0.483,1.867-1.667,2.451v0.05c1.184,0.45,2.066,1.384,2.066,2.734C15.123,17.704,13.489,19.005,11.172,19.005z
			 M20.303,19.005c-2.635,0-4.086-2.001-4.086-4.685c0-2.085,0.751-3.769,1.886-4.836C19.086,8.533,20.404,8,21.955,7.883
			c0.449-0.05,0.783-0.05,1.033-0.05v1.618c-0.301-0.017-0.634,0-1.033,0.05c-2.285,0.267-3.368,1.651-3.635,3.151h0.05
			c0.533-0.617,1.351-1.05,2.436-1.05c1.867,0,3.318,1.333,3.318,3.534C24.122,17.204,22.604,19.005,20.303,19.005z"/>
	</g>
</g>
<g>
</g>
<g>
</g>
<g>
</g>
<g>
</g>
<g>
</g>
<g>
</g>
<g>
</g>
<g>
</g>
<g>
</g>
<g>
</g>
<g>
</g>
<g>
</g>
<g>
</g>
<g>
</g>
<g>
</g>
</svg>
