<?xml version="1.0" encoding="iso-8859-1"?>
<!-- Generator: Adobe Illustrator 16.0.0, SVG Export Plug-In . SVG Version: 6.00 Build 0)  -->
<!DOCTYPE svg PUBLIC "-//W3C//DTD SVG 1.1//EN" "http://www.w3.org/Graphics/SVG/1.1/DTD/svg11.dtd">
<svg version="1.1" id="Capa_1" xmlns="http://www.w3.org/2000/svg" xmlns:xlink="http://www.w3.org/1999/xlink" x="0px" y="0px"
	 width="248.662px" height="248.662px" viewBox="0 0 248.662 248.662" style="enable-background:new 0 0 248.662 248.662;"
	 xml:space="preserve">
<g>
	<path d="M248.343,175.365c-1.779-5.671-9.99-13.958-8.992-25.03c0.998-11.068,9.798-36.354,7.514-47.147
		s-13.737-42.525-43.349-47.324c-29.599-4.797-50.858,3.166-62.211,2.655c-11.345-0.513-13.409-9.091-25.95-8.98
		c-16.188,0.15-18.975,6.869-30.42,10.473c-8.392,2.645-34.676,2.613-34.676,2.613s-7.52-9.812-9.812-6.217
		c-2.292,3.597-5.236,12.757-5.236,12.757s-14.068,4.905-15.371,7.528c-1.304,2.623-3.094,6.876-3.094,6.876
		S1.847,87.486,0.213,91.083c-1.633,3.595,6.546,12.096,9.161,15.048c2.615,2.951,33.035,3.597,37.856,7.149
		c4.819,3.557,18.315,6.226,25.852,7.52c14.145,2.435,20.362,30.533,23.957,61.61c-4.254,3.603-11.776,6.793-12.183,16.715h46.114
		c0,0,0.613-6.624,1.395-14.827c0.77-8.203,14.719-39.253,14.719-39.253s10.135,7.851,17.008,8.188
		c-0.646,6.211,2.252,12.819,2.252,12.819s5.936,7.129,11.706,12.771c-10.563,4.356-10.255,12.039-10.255,12.039l39.145,0.304
		c0,0,3.923-8.171,3.923-14.719c5.246,7.53,15.381,10.472,15.381,10.472l-6.304,12.206h23.92
		C243.875,199.117,250.123,181.031,248.343,175.365z M28.482,85.278c-1.721,0-3.107-1.395-3.107-3.108
		c0-1.709,1.386-3.11,3.107-3.11c1.711,0,3.11,1.393,3.11,3.11C31.592,83.899,30.185,85.278,28.482,85.278z"/>
</g>
<g>
</g>
<g>
</g>
<g>
</g>
<g>
</g>
<g>
</g>
<g>
</g>
<g>
</g>
<g>
</g>
<g>
</g>
<g>
</g>
<g>
</g>
<g>
</g>
<g>
</g>
<g>
</g>
<g>
</g>
</svg>
