<?xml version="1.0" encoding="iso-8859-1"?>
<!-- Generator: Adobe Illustrator 16.0.0, SVG Export Plug-In . SVG Version: 6.00 Build 0)  -->
<!DOCTYPE svg PUBLIC "-//W3C//DTD SVG 1.1//EN" "http://www.w3.org/Graphics/SVG/1.1/DTD/svg11.dtd">
<svg version="1.1" id="Capa_1" xmlns="http://www.w3.org/2000/svg" xmlns:xlink="http://www.w3.org/1999/xlink" x="0px" y="0px"
	 width="38.031px" height="38.032px" viewBox="0 0 38.031 38.032" style="enable-background:new 0 0 38.031 38.032;"
	 xml:space="preserve">
<g>
	<path d="M37.772,35.321c-0.223-0.869-2.943-2.1-2.943-2.1c-1.077,0.123-1.709-0.687-1.709-0.687
		c-0.578-0.656-0.92,0.197-0.92,0.197c-0.521,0.961-2.692,1.518-2.692,1.518c-1.453,1.853-1.593,1.342-1.593,1.342
		c-0.623-1.633,2.966-7.302,2.966-7.302c-4.591-8.797-18.36-15.538-18.36-15.538c0.118-0.517,1.204-1.462,1.204-1.462l-0.214-0.484
		c-1.671-0.095-3.209,6.612-3.209,6.612c-1.825-1.376-1.639-6.312-1.639-6.312c-1.042-0.75-4.716-1.857-6.382-1.955
		C1.072,9.08,0.562,8.924,0.239,8.498C-1.025,6.833,3.146,6.13,3.146,6.13c3.997-7.065,15.09-1.914,15.09-1.914
		c3.312-2.685,6.312-1.64,6.312-1.64c2.272,0.701,0.892,0.933,0.892,0.933c-2.375,0.714-2.576,3.543-2.576,3.543
		c10.297,7.76,9.719,18.867,9.719,18.867c0.062,0.987-0.011,1.89-0.011,1.89c3.612,2.164,4.955,5.359,4.955,5.359
		C38.495,35.537,37.772,35.321,37.772,35.321z M12.236,23.274c-5.752,2.735-10.417,0.913-10.417,1.157
		c0,1.034,4.664,3.895,10.417,1.157c5.753-2.735,10.417-0.913,10.417-1.157C22.652,23.397,17.989,20.537,12.236,23.274z
		 M12.236,28.234c-5.752,2.737-10.417,0.913-10.417,1.157c0,1.034,4.664,3.895,10.417,1.158c5.753-2.736,10.417-0.914,10.417-1.158
		C22.652,28.357,17.989,25.497,12.236,28.234z"/>
</g>
<g>
</g>
<g>
</g>
<g>
</g>
<g>
</g>
<g>
</g>
<g>
</g>
<g>
</g>
<g>
</g>
<g>
</g>
<g>
</g>
<g>
</g>
<g>
</g>
<g>
</g>
<g>
</g>
<g>
</g>
</svg>
