<?xml version="1.0" encoding="iso-8859-1"?>
<!-- Generator: Adobe Illustrator 16.0.0, SVG Export Plug-In . SVG Version: 6.00 Build 0)  -->
<!DOCTYPE svg PUBLIC "-//W3C//DTD SVG 1.1//EN" "http://www.w3.org/Graphics/SVG/1.1/DTD/svg11.dtd">
<svg version="1.1" id="Capa_1" xmlns="http://www.w3.org/2000/svg" xmlns:xlink="http://www.w3.org/1999/xlink" x="0px" y="0px"
	 width="570.958px" height="570.958px" viewBox="0 0 570.958 570.958" style="enable-background:new 0 0 570.958 570.958;"
	 xml:space="preserve">
<g>
	<g>
		<path d="M93.673,349.341c0.131,2.19,0.653,4.369,0.682,6.556c0.094,6.671-0.343,13.371,0.106,20.017
			c1.134,16.777,0.73,33.628,4.194,50.299c2.134,10.277,2.036,21.02,2.991,31.551c0.714,7.895,1.514,15.777,2.272,23.651
			c2.436-0.424,2.436-0.424,5.712-8.507c0.457,1.991,0.93,3.305,1.032,4.644c0.379,4.908,0.681,9.828,0.922,14.744
			c0.164,3.301,1.53,5.354,3.999,5.312c2.84,9.106,5.206,17.45,8.124,25.594c0.869,2.424,1.983,5.517,6.422,4.704
			c1.285-0.236,3.345,3.86,5.071,5.957c4.002,4.855,5.492,11.562,11.738,14.818c10.069,5.247,18.833,13.016,30.604,14.979
			c2.501,0.416,4.643,2.884,6.985,4.356c2.428,1.526,4.868,4.48,7.866,1.963c1.722-1.448,2.387-4.157,3.55-6.34
			c4.011,1.191,8.812,2.99,13.782,3.981c4.488,0.897,10.383,2.848,13.472,0.89c5.614-3.562,11.599-0.751,16.948-3.248
			c1.771-0.828,4.321,0.127,6.503,0.029c4.868-0.225,9.657-0.258,13.333-4.61c3.966-4.696,10.216-3.852,15.504-5.32
			c1.42-0.396,3.158-0.396,4.174-1.257c0.877-0.743,1.2-2.432,1.306-3.737c0.277-3.432-1.204-7.046,3.044-9.597
			c2.965-1.782,5.629-4.557,5.242-8.833c-0.064-0.693,0.841-1.714,1.555-2.203c5.798-3.974,7.687-10.6,10.8-16.304
			c0.841-1.542-0.44-4.288-0.865-6.459c-0.469-2.402-1.199-4.765-1.587-7.181c-0.628-3.937-1.098-7.898-1.579-11.856
			c-0.163-1.334-0.392-2.729-0.171-4.022c1.036-6.161-0.665-8.119-6.858-10.322c-2.13-0.759-3.603-3.88-4.937-6.178
			c-1.069-1.844-1.236-4.198-2.228-6.107c-3.183-6.141-8.25-8.678-15.145-7.417c-2.999,0.546-5.153-0.481-7.148-3.003
			c-7.344-9.274-25.08-10.739-35.101-7.1c-4.096,1.489-8.58,1.877-12.86,2.885c-4.133,0.971-9.005,0.832-10.192,6.553
			c-0.131,0.628-1.236,1.158-1.991,1.529c-2.591,1.277-5.284,2.354-7.833,3.705c-5.271,2.795-6.699,7.724-7.287,13.207
			c-0.208,1.954-0.853,3.986-1.791,5.712c-4.284,7.895-4.647,16.438-4.402,25.088c0.021,0.751,0.689,1.804,1.354,2.162
			c5.671,3.089,3.256,8.801,5.561,14.35c-4.761-1.795-8.225-3.097-11.689-4.402c0.049-0.273,0.098-0.547,0.147-0.82
			c2.603,0,5.206,0,7.976,0c0.241-4.234-2.66-4.908-5.357-5.463c-4.553-0.935-9.262-1.485-9.833-7.825
			c1.061-0.184,2.17-0.139,3.007-0.596c0.665-0.363,1.367-1.334,1.367-2.036s-0.693-1.689-1.354-2.064
			c-5.724-3.244-11.624-6.201-17.206-9.67c-1.44-0.894-1.934-3.305-2.864-5.022c1.554-0.008,3.113-0.004,4.667-0.032
			c0.718-0.013,1.432-0.082,2.366-0.139c-0.363-1.403-0.641-2.485-0.946-3.677c1.579-0.693,3.027-1.33,4.99-2.194
			c-6.442-5.524-15.231-8.059-18.65-16.712c2.187-1.024,4.264-1.999,7.107-3.329c-1.208-1.865-2.142-3.619-3.362-5.146
			c-4.753-5.94-10.062-11.559-11.942-19.232c-0.804-3.28-0.371-7.042-1.783-9.964c-2.783-5.744-1.383-11.607-1.53-17.396
			c-0.077-3.04,1.367-6.088,1.632-9.172c0.506-5.859,0.306-11.792,1.048-17.613c1.024-8.051,2.799-16.002,3.962-24.04
			c1.175-8.144,5.691-15.626,4.28-24.341c-0.441-2.714,1.065-5.736,1.636-8.625c1.228-6.223,0.461-12.281-0.657-18.495
			c-0.542-3.007,1.347-6.45,2.203-9.979c0.396,0.024,1.191-0.135,1.787,0.143c9.433,4.391,18.752,9.033,28.271,13.224
			c11.069,4.871,22.289,9.404,33.484,13.982c2.852,1.166,4.121,3.39,5.961,5.671c3.439,4.26,8.462,7.739,13.501,10.098
			c8.343,3.909,21.758-2.799,24.839-8.522c2.791-5.19,6.132-10.682,4.892-17.3c-0.547-2.904,1.62-2.979,3.786-2.872
			c6.605,0.322,13.219,0.697,19.829,0.734c1.595,0.008,3.24-1.135,4.786-1.901c5.292-2.619,10.522-5.361,15.83-7.948
			c4.773-2.325,9.661-5.324,13.387-8.372c6.364-5.209,12.166-12.276,12.126-21.95c-0.013-2.664,1.424-5.397,2.533-7.956
			c0.281-0.648,1.845-0.983,2.84-1.032c4.794-0.249,9.629-0.049,14.386-0.587c4.745-0.539,11.159,2.991,13.771,6.993
			c3.097,4.745,6.271,10.379,10.897,12.934c5.071,2.803,11.832,3.309,17.866,3.346c4.476,0.028,6.104-7.732,2.856-12.656
			c-1.86-2.815-4.235-5.288-5.867-8.531c1.518,1.453,3.076,2.86,4.545,4.361c2.375,2.424,4.908,4.949,8.515,2.909
			c2.849-1.612,2.477-7.303-0.632-10.343c-2.473-2.419-4.207-4.382-1.489-7.964c0.763-1.003-0.09-4.439-1.302-5.512
			c-3.831-3.391-8.4-5.94-12.272-9.291c-3.366-2.913-6.993-6.03-9.033-9.845c-3.252-6.075-8.56-9.613-13.831-13.146
			c-3.036-2.036-7.034-2.636-10.596-3.884c-0.114-0.648-0.229-1.293-0.343-1.942c1.456-0.89,2.909-1.783,4.369-2.668
			c4.056-2.464,8.336-4.643,12.028-7.564c1.032-0.816,0.33-3.807,0.44-5.802c0.371-6.614,5.227-8.903,10.526-9.812
			c3.052-0.522,5.157-1.905,7.654-3.354c4.288-2.484,9.135-3.982,13.668-6.067c2.399-1.102,4.896-2.252,6.887-3.929
			c5.483-4.619,10.902-9.343,15.97-14.407c1.881-1.881,3.251-4.68,3.904-7.295c1.604-6.422,8.425-10.947,6.646-18.515
			c-0.294-1.252-0.563-2.57-1.171-3.676c-2.216-4.035-4.097-7.65-0.347-12.244c1.444-1.771,0.212-5.553,0.729-8.315
			c0.303-1.604,1.396-4.023,2.596-4.341c7.939-2.114,11.297-9.18,16.34-14.402c0.983-1.02,1.991-2.04,2.819-3.187
			c2.827-3.925,5.684-7.838,8.336-11.885c2.636-4.019,5.54-7.977,7.425-12.35c2.954-6.863,6.088-13.88,7.39-21.146
			c1.231-6.879,1.518-14.48-0.119-21.196c-2.9-11.926-8.951-12.317-20.118-11.322c-12.628,1.126-21.232,9.894-30.963,16.446
			c-8.25,5.553-17.475,8.935-27.051,10.106c-5.896,0.718-12.179-1.75-18.29-2.77c-3.064-0.51-6.129-1.073-9.209-1.457
			c-5.141-0.641-10.294-1.183-15.447-1.726c-10.824-1.138-21.546-2.224-32.354,1.032c-8.409,2.534-15.741,7.111-23.677,10.474
			c-1.946,0.824-5.145-0.245-7.353-1.31c-5.806-2.799-11.158-5.9-16.017-10.735c-5.626-5.598-12.64-10.816-21.849-10.498
			c-3.166,0.11-6.397-1.673-9.563-1.571C239.37,8.53,233.376,9,227.615,10.26c-3.59,0.788-7.095,3.264-6.328,7.927
			c0.755,4.61,1.546,9.347,3.289,13.64c2.974,7.319,5.165,14.676,5.781,22.611c0.816,10.449,2.554,20.722,10.849,28.968
			c-7.735,4.043-15.329,7.152-23.945,8.352c-7.968,1.105-15.623,4.304-23.566,5.753c-7.703,1.403-13.211,5.749-18.776,10.73
			c-4.753,4.255-11.191,6.871-15.239,11.616c-6.471,7.589-17.854,11.253-19.094,23.175c-0.123,1.179-0.938,2.75-1.91,3.301
			c-5.655,3.211-8.266,8.923-11.856,13.835c-0.175,0.241-0.428,0.449-0.535,0.714c-3.7,9.339-7.695,18.581-10.996,28.059
			c-3.419,9.82-6.381,19.816-9.123,29.849c-1.628,5.957-2.652,12.101-3.566,18.217c-1.681,11.265-3.027,22.579-4.606,33.86
			c-1.555,11.122-3.631,22.187-4.712,33.35c-0.828,8.527-0.632,17.173-0.567,25.765C92.763,336.415,93.29,342.882,93.673,349.341z
			 M194.257,525.05c3.774,0.09,7.866,0.273,11.175-1.122c1.098-0.461,2.995-2.982,4.913-4.276c-1.016-2.501-1.975-4.863-3.183-7.837
			c2.057,1.126,3.35,1.836,5.484,3.007c0.143-1.938,0.281-3.056,0.298-4.174c0.044-2.881,0.11-5.761,0.028-8.638
			c-0.204-6.965,7.095-11.701,5.634-19.054c-0.057-0.285,0.759-0.718,1.13-1.113c1.424-1.514,2.652-3.28,4.28-4.517
			c3.297-2.497,5.565-5.811,11.306-4.766c8.226,1.501,14.419,5.401,19.649,11.208c2.774,3.08,3.227,6.993,1.571,11.272
			c-1.914,4.941-3.644,10.103-4.382,15.32c-0.897,6.373-5.308,12.946-11.363,15.088c-4.423,1.562-8.748,3.398-13.187,4.908
			c-7.675,2.611-15.218,6.096-23.636,4.962c-1.432-0.192-3.925-2.232-3.876-2.317c1.967-3.668-0.865-3.272-2.966-4.027
			c-3.676-1.317-7.177-3.121-10.751-4.717C189.173,524.054,191.703,524.992,194.257,525.05z"/>
	</g>
</g>
<g>
</g>
<g>
</g>
<g>
</g>
<g>
</g>
<g>
</g>
<g>
</g>
<g>
</g>
<g>
</g>
<g>
</g>
<g>
</g>
<g>
</g>
<g>
</g>
<g>
</g>
<g>
</g>
<g>
</g>
</svg>
