<?xml version="1.0" encoding="iso-8859-1"?>
<!-- Generator: Adobe Illustrator 16.0.0, SVG Export Plug-In . SVG Version: 6.00 Build 0)  -->
<!DOCTYPE svg PUBLIC "-//W3C//DTD SVG 1.1//EN" "http://www.w3.org/Graphics/SVG/1.1/DTD/svg11.dtd">
<svg version="1.1" id="Capa_1" xmlns="http://www.w3.org/2000/svg" xmlns:xlink="http://www.w3.org/1999/xlink" x="0px" y="0px"
	 width="160.472px" height="160.472px" viewBox="0 0 160.472 160.472" style="enable-background:new 0 0 160.472 160.472;"
	 xml:space="preserve">
<g>
	<path d="M43.555,81.296c-1.691,7.068-6.831,14.174-6.831,14.174s-18.426,1.903-23.087-6.191L7.749,79.096
		c4.843,0.301,11.225-2.148,16.519-5.202c1.26-0.728,2.524-1.537,3.753-2.395c1.222,0.08,2.524,0.222,3.364,0.483
		C34.582,72.945,40.289,75.454,43.555,81.296z M20.292,68.793c-0.18-4.975,3.032-8.628,5.378-9.632
		c2.465-1.052,5.324-1.537,8.997-1.537c0.673,0,1.294,0.06,1.961,0.084c0.05-0.894-0.038-1.757-0.487-2.535
		c-5.416-9.383-15.126-8.644-24.506-3.236l-7.271-9.851l-1.859,6.444l6.775,4.929C1.382,58.823-2.819,66.24,2.134,74.804
		c2.427,4.199,10.56,2.585,18.334-1.309L20.292,68.793z M159.72,48.367c-7.506-10.578-22.603-14.256-28.389-5.731
		c-4.048,5.955-1.703,15.116,7.037,26.563c10.948,14.32,13.016,26.15,9.385,38.806c-7.758,27.011-29.779,30.737-50.554,35.683
		c-12.526,9.758-29.458,9.329-34.099,12.286c-1.994,1.274-7.065,1.167-8.093,0.493c-1.038-0.677,1.978-1.939,2.833-2.456
		c-2.338,0.072-4.593,0.805-6.444,1.482c0.487-1.956,3.829-6.388,5.583-6.271c-3.244-3.114-12.615-2.625-20.137-0.369
		c-0.134-2.584,0.96-4.744,3.124-5.866c2.442-1.263,4.105-1.855,8.948-2.638c0.042-5.073-7.141-9.926-8.197-16.751
		c-2.344-15.1,6.65-17.355,8.081-27.062c2.998-20.438-12.531-26.355-16.479-27.563c-2.308-0.705-7.033-1.38-8.884-0.307
		c-0.128-3.514,2.172-6.083,3.482-6.638c7.103-3.034,17.312,0.509,19.769-1.627c0.156-3.931,1.302-9.878,2.024-11.886
		c0.958-2.661-8.9,1.86-14.03-3.085c-1.739-1.679-5.73-2.733-5.783-6.045C28.785,32.8,39.998,25.026,50.416,20.349
		c-0.214-1.385-0.11-11.154,3.404-9.64c3.519,1.513,5.931,5.235,5.931,5.235S64.021,1.302,67.355,3.8
		c3.332,2.489,4.294,16.086,5.588,18.354c1.297,2.27,3.992,2.04,6.667,8.299c4.083,9.56-1.411,12.009,2.523,18.932
		c7.361,12.96,30.893,36.059,29.15,64.078c-0.297,4.861-1.143,9.041-2.293,12.76c0.017,0,0.032,0.013,0.04,0.013
		c13.577-37.626-11.806-60.919-20.502-85.413c3.728-14.713,12.239-27.888,27.984-32.847C139.679,0.701,165.203,18.926,159.72,48.367
		z M50.658,28.687c-0.855-1.491-3.43-1.617-5.738-0.285c-2.309,1.335-3.477,3.619-2.615,5.11c0.855,1.493,3.425,1.627,5.731,0.292
		C50.343,32.47,51.513,30.177,50.658,28.687z M44.47,29.173c-1.467,0.848-2.12,2.449-1.467,3.589
		c0.651,1.138,2.373,1.362,3.839,0.525c1.469-0.848,2.128-2.451,1.469-3.588C47.652,28.561,45.939,28.314,44.47,29.173z"/>
</g>
<g>
</g>
<g>
</g>
<g>
</g>
<g>
</g>
<g>
</g>
<g>
</g>
<g>
</g>
<g>
</g>
<g>
</g>
<g>
</g>
<g>
</g>
<g>
</g>
<g>
</g>
<g>
</g>
<g>
</g>
</svg>
